<?xml version="1.0" standalone="no"?>
<!DOCTYPE svg PUBLIC "-//W3C//DTD SVG 1.1//EN" "http://www.w3.org/Graphics/SVG/1.1/DTD/svg11.dtd" >
<svg>
<metadata>
Created by FontForge 20090622 at Sat Jun 20 00:47:43 2020
 By deploy user
Copyright &#194;&#169;2016. Neue Hans Kendrick is a trademark of Alfredo Marco Pradil. All rights reserved.
</metadata>
<defs>
<font id="NeueHansKendrick-Regular" horiz-adv-x="606" >
  <font-face 
    font-family="Neue Hans Kendrick"
    font-weight="400"
    font-stretch="normal"
    units-per-em="1000"
    panose-1="0 0 5 0 0 0 0 0 0 0"
    ascent="750"
    descent="-250"
    x-height="470"
    cap-height="750"
    bbox="-760 -303 1284 1270"
    underline-thickness="50"
    underline-position="-50"
    unicode-range="U+0020-U+FB02"
  />
<missing-glyph horiz-adv-x="604" 
d="M97 0v750h410v-750h-410zM161 64h282v622h-282v-622z" />
    <glyph glyph-name="f_f" unicode="ff" horiz-adv-x="597" 
d="M588 470v-78h-124v-392h-82v392h-189v-392h-82v392h-79v78h79v145q0 67 38 106.5t102 39.5q45 0 64 -14v-81q-10 8 -25 13t-29 5q-31 0 -49.5 -21.5t-18.5 -57.5v-135h189v145q0 67 38 106.5t102 39.5q45 0 64 -14v-81q-10 8 -25 13t-29 5q-31 0 -49.5 -21.5t-18.5 -57.5
v-135h124z" />
    <glyph glyph-name="f_f_i" unicode="ffi" horiz-adv-x="826" 
d="M588 470v-78h-124v-392h-82v392h-189v-392h-82v392h-79v78h79v145q0 67 38 106.5t102 39.5q45 0 64 -14v-81q-10 8 -25 13t-29 5q-31 0 -49.5 -21.5t-18.5 -57.5v-135h189v145q0 67 38 106.5t102 39.5q45 0 64 -14v-81q-10 8 -25 13t-29 5q-31 0 -49.5 -21.5t-18.5 -57.5
v-135h124zM663 573q-16 16 -16 38q0 23 16 38.5t39 15.5q22 0 38 -15.5t16 -38.5q0 -22 -16 -38t-38 -16q-23 0 -39 16zM661 0v470h81v-470h-81z" />
    <glyph glyph-name="f_f_l" unicode="ffl" horiz-adv-x="798" 
d="M588 470v-78h-124v-392h-82v392h-189v-392h-82v392h-79v78h79v145q0 67 38 106.5t102 39.5q45 0 64 -14v-81q-10 8 -25 13t-29 5q-31 0 -49.5 -21.5t-18.5 -57.5v-135h189v145q0 67 38 106.5t102 39.5q45 0 64 -14v-81q-10 8 -25 13t-29 5q-31 0 -49.5 -21.5t-18.5 -57.5
v-135h124zM646 0v750h82v-750h-82z" />
    <glyph glyph-name="fi" unicode="fi" horiz-adv-x="575" 
d="M317 395h-124v-395h-82v395h-79v75h79v145q0 67 38 106.5t102 39.5q45 0 64 -14v-81q-10 8 -25 13t-29 5q-31 0 -49.5 -21.5t-18.5 -57.5v-135h124v-75zM412 573q-16 16 -16 38q0 23 16 38.5t39 15.5q22 0 38 -15.5t16 -38.5q0 -22 -16 -38t-38 -16q-23 0 -39 16zM410 0
v470h81v-470h-81z" />
    <glyph glyph-name="fl" unicode="fl" horiz-adv-x="548" 
d="M317 395h-124v-395h-82v395h-79v75h79v145q0 67 38 106.5t102 39.5q45 0 64 -14v-81q-10 8 -25 13t-29 5q-31 0 -49.5 -21.5t-18.5 -57.5v-135h124v-75zM396 0v750h82v-750h-82z" />
    <glyph glyph-name=".notdef" horiz-adv-x="604" 
d="M97 0v750h410v-750h-410zM161 64h282v622h-282v-622z" />
    <glyph glyph-name="space" unicode=" " horiz-adv-x="250" 
 />
    <glyph glyph-name="A" unicode="A" horiz-adv-x="634" 
d="M540 0l-47 120h-352l-47 -120h-95l316 766h4l316 -766h-95zM172 199h290l-145 371z" />
    <glyph glyph-name="Aacute" unicode="&#xc1;" horiz-adv-x="634" 
d="M540 0l-47 120h-352l-47 -120h-95l316 766h4l316 -766h-95zM172 199h290l-145 371zM298 808l-32 35l148 159l47 -53z" />
    <glyph glyph-name="Abreve" unicode="&#x102;" horiz-adv-x="634" 
d="M540 0l-47 120h-352l-47 -120h-95l316 766h4l316 -766h-95zM172 199h290l-145 371zM198.5 878q-46.5 42 -46.5 112h51q0 -43 32.5 -72.5t81.5 -29.5q50 0 82.5 29.5t32.5 72.5h51q0 -70 -46.5 -112t-119.5 -42q-72 0 -118.5 42z" />
    <glyph glyph-name="uni1EAE" unicode="&#x1eae;" horiz-adv-x="634" 
d="M540 0l-47 120h-352l-47 -120h-95l316 766h4l316 -766h-95zM172 199h290l-145 371zM198.5 878q-46.5 42 -46.5 112h51q0 -43 32.5 -72.5t81.5 -29.5q50 0 82.5 29.5t32.5 72.5h51q0 -70 -46.5 -112t-119.5 -42q-72 0 -118.5 42zM298 1033l-32 35l148 159l47 -53z" />
    <glyph glyph-name="uni1EB6" unicode="&#x1eb6;" horiz-adv-x="634" 
d="M540 0l-47 120h-352l-47 -120h-95l316 766h4l316 -766h-95zM172 199h290l-145 371zM278.5 -164.5q-16.5 16.5 -16.5 39.5q0 22 16.5 39t39.5 17q22 0 39 -17t17 -39q0 -23 -16.5 -39.5t-39.5 -16.5t-39.5 16.5zM198.5 878q-46.5 42 -46.5 112h51q0 -43 32.5 -72.5
t81.5 -29.5q50 0 82.5 29.5t32.5 72.5h51q0 -70 -46.5 -112t-119.5 -42q-72 0 -118.5 42z" />
    <glyph glyph-name="uni1EB0" unicode="&#x1eb0;" horiz-adv-x="634" 
d="M540 0l-47 120h-352l-47 -120h-95l316 766h4l316 -766h-95zM172 199h290l-145 371zM198.5 878q-46.5 42 -46.5 112h51q0 -43 32.5 -72.5t81.5 -29.5q50 0 82.5 29.5t32.5 72.5h51q0 -70 -46.5 -112t-119.5 -42q-72 0 -118.5 42zM319 1033l-164 141l48 53l147 -159z" />
    <glyph glyph-name="uni1EB2" unicode="&#x1eb2;" horiz-adv-x="634" 
d="M540 0l-47 120h-352l-47 -120h-95l316 766h4l316 -766h-95zM172 199h290l-145 371zM198.5 878q-46.5 42 -46.5 112h51q0 -43 32.5 -72.5t81.5 -29.5q50 0 82.5 29.5t32.5 72.5h51q0 -70 -46.5 -112t-119.5 -42q-72 0 -118.5 42zM291 1099q70 15 70 63q0 19 -13.5 32
t-35.5 13q-27 0 -52 -17l-32 45q38 30 82 30q46 0 78 -29t32 -74q0 -32 -19.5 -57.5t-56.5 -36.5v-44h-53v75z" />
    <glyph glyph-name="uni1EB4" unicode="&#x1eb4;" horiz-adv-x="634" 
d="M540 0l-47 120h-352l-47 -120h-95l316 766h4l316 -766h-95zM172 199h290l-145 371zM198.5 878q-46.5 42 -46.5 112h51q0 -43 32.5 -72.5t81.5 -29.5q50 0 82.5 29.5t32.5 72.5h51q0 -70 -46.5 -112t-119.5 -42q-72 0 -118.5 42zM292 1081q-18 27 -40 27q-23 0 -35.5 -22
t-12.5 -56h-61q0 60 29 99t78 39q54 0 92 -55q9 -13 18 -20t24 -7q23 0 35 19.5t12 58.5h60q0 -60 -28 -99t-79 -39q-55 0 -92 55z" />
    <glyph glyph-name="uni01CD" unicode="&#x1cd;" horiz-adv-x="634" 
d="M540 0l-47 120h-352l-47 -120h-95l316 766h4l316 -766h-95zM172 199h290l-145 371zM275 829l-98 145l43 26l98 -117l97 117l43 -26l-99 -145h-84z" />
    <glyph glyph-name="Acircumflex" unicode="&#xc2;" horiz-adv-x="634" 
d="M540 0l-47 120h-352l-47 -120h-95l316 766h4l316 -766h-95zM172 199h290l-145 371zM218 810l-41 25l98 145h84l99 -145l-42 -25l-98 116z" />
    <glyph glyph-name="uni1EA4" unicode="&#x1ea4;" horiz-adv-x="634" 
d="M540 0l-47 120h-352l-47 -120h-95l316 766h4l316 -766h-95zM172 199h290l-145 371zM218 810l-41 25l98 145h84l99 -145l-42 -25l-98 116zM297 1038l-32 35l148 159l47 -53z" />
    <glyph glyph-name="uni1EAC" unicode="&#x1eac;" horiz-adv-x="634" 
d="M540 0l-47 120h-352l-47 -120h-95l316 766h4l316 -766h-95zM172 199h290l-145 371zM278.5 -164.5q-16.5 16.5 -16.5 39.5q0 22 16.5 39t39.5 17q22 0 39 -17t17 -39q0 -23 -16.5 -39.5t-39.5 -16.5t-39.5 16.5zM218 810l-41 25l98 145h84l99 -145l-42 -25l-98 116z" />
    <glyph glyph-name="uni1EA6" unicode="&#x1ea6;" horiz-adv-x="634" 
d="M540 0l-47 120h-352l-47 -120h-95l316 766h4l316 -766h-95zM172 199h290l-145 371zM218 810l-41 25l98 145h84l99 -145l-42 -25l-98 116zM318 1038l-164 141l48 53l147 -159z" />
    <glyph glyph-name="uni1EA8" unicode="&#x1ea8;" horiz-adv-x="634" 
d="M540 0l-47 120h-352l-47 -120h-95l316 766h4l316 -766h-95zM172 199h290l-145 371zM218 810l-41 25l98 145h84l99 -145l-42 -25l-98 116zM290 1104q70 15 70 63q0 19 -13.5 32t-35.5 13q-27 0 -52 -17l-32 45q38 30 82 30q46 0 78 -29t32 -74q0 -32 -19.5 -57.5
t-56.5 -36.5v-44h-53v75z" />
    <glyph glyph-name="uni1EAA" unicode="&#x1eaa;" horiz-adv-x="634" 
d="M540 0l-47 120h-352l-47 -120h-95l316 766h4l316 -766h-95zM172 199h290l-145 371zM218 810l-41 25l98 145h84l99 -145l-42 -25l-98 116zM291 1086q-18 27 -40 27q-23 0 -35.5 -22t-12.5 -56h-61q0 60 29 99t78 39q54 0 92 -55q9 -13 18 -20t24 -7q23 0 35 19.5t12 58.5
h60q0 -60 -28 -99t-79 -39q-55 0 -92 55z" />
    <glyph glyph-name="Adieresis" unicode="&#xc4;" horiz-adv-x="634" 
d="M540 0l-47 120h-352l-47 -120h-95l316 766h4l316 -766h-95zM172 199h290l-145 371zM186.5 853.5q-16.5 16.5 -16.5 38.5q0 24 16.5 40t39.5 16t39.5 -16t16.5 -40q0 -22 -16.5 -38.5t-39.5 -16.5t-39.5 16.5zM370.5 853.5q-16.5 16.5 -16.5 38.5q0 24 16.5 40t39.5 16
t39.5 -16t16.5 -40q0 -23 -16.5 -39t-39.5 -16t-39.5 16.5z" />
    <glyph glyph-name="uni1EA0" unicode="&#x1ea0;" horiz-adv-x="634" 
d="M540 0l-47 120h-352l-47 -120h-95l316 766h4l316 -766h-95zM172 199h290l-145 371zM278.5 -164.5q-16.5 16.5 -16.5 39.5q0 22 16.5 39t39.5 17q22 0 39 -17t17 -39q0 -23 -16.5 -39.5t-39.5 -16.5t-39.5 16.5z" />
    <glyph glyph-name="Agrave" unicode="&#xc0;" horiz-adv-x="634" 
d="M540 0l-47 120h-352l-47 -120h-95l316 766h4l316 -766h-95zM172 199h290l-145 371zM319 808l-164 141l48 53l147 -159z" />
    <glyph glyph-name="uni1EA2" unicode="&#x1ea2;" horiz-adv-x="634" 
d="M540 0l-47 120h-352l-47 -120h-95l316 766h4l316 -766h-95zM172 199h290l-145 371zM291 874q70 15 70 63q0 19 -13.5 32t-35.5 13q-27 0 -52 -17l-32 45q38 30 82 30q46 0 78 -29t32 -74q0 -32 -19.5 -57.5t-56.5 -36.5v-44h-53v75z" />
    <glyph glyph-name="Amacron" unicode="&#x100;" horiz-adv-x="634" 
d="M540 0l-47 120h-352l-47 -120h-95l316 766h4l316 -766h-95zM172 199h290l-145 371zM163 852v56h310v-56h-310z" />
    <glyph glyph-name="Aogonek" unicode="&#x104;" horiz-adv-x="634" 
d="M695 -208q-51 -51 -126 -51q-55 0 -88 27t-33 76q0 83 105 156h-13l-47 120h-352l-47 -120h-95l316 766h4l316 -766q-56 -23 -92.5 -59.5t-36.5 -77.5q0 -27 16 -40.5t42 -13.5q23 0 48 10.5t43 28.5zM172 199h290l-145 371z" />
    <glyph glyph-name="Aring" unicode="&#xc5;" horiz-adv-x="634" 
d="M493 120h-352l-47 -120h-95l309 748q-42 2 -72 32.5t-30 72.5q0 43 31 74t75 31q43 0 73.5 -31t30.5 -74q0 -39 -26 -69t-64 -35l309 -749h-95zM269 809.5q17 -17.5 43 -17.5q25 0 42.5 17.5t17.5 43.5q0 25 -17.5 43.5t-42.5 18.5t-42.5 -18.5t-17.5 -43.5
q0 -26 17 -43.5zM172 199h290l-145 371z" />
    <glyph glyph-name="Atilde" unicode="&#xc3;" horiz-adv-x="634" 
d="M540 0l-47 120h-352l-47 -120h-95l316 766h4l316 -766h-95zM172 199h290l-145 371zM292 856q-18 27 -40 27q-23 0 -35.5 -22t-12.5 -56h-61q0 60 29 99t78 39q54 0 92 -55q9 -13 18 -20t24 -7q23 0 35 19.5t12 58.5h60q0 -60 -28 -99t-79 -39q-55 0 -92 55z" />
    <glyph glyph-name="AE" unicode="&#xc6;" horiz-adv-x="861" 
d="M816 665h-328v-247h286v-85h-286v-248h328v-85h-411v178h-240l-70 -178h-96l301 750h516v-85zM196 259h209v418h-45z" />
    <glyph glyph-name="B" unicode="B" horiz-adv-x="655" 
d="M561 315q36 -48 36 -117q0 -57 -27.5 -102.5t-74.5 -70.5t-104 -25h-301v750h265q57 0 104.5 -25.5t75.5 -71t28 -103.5t-26 -101t-74 -67q62 -19 98 -67zM440 630.5q-38 34.5 -94 34.5h-172v-249h172q55 0 93.5 36.5t38.5 90.5q0 53 -38 87.5zM474 120q38 35 38 88
q0 54 -38.5 90t-93.5 36h-206v-249h206q56 0 94 35z" />
    <glyph glyph-name="C" unicode="C" horiz-adv-x="742" 
d="M241.5 41.5q-88.5 51.5 -140 140t-51.5 193.5t51.5 193.5t140 140t193.5 51.5q73 0 147 -31t125 -82l-61 -60q-41 41 -97 64.5t-114 23.5q-82 0 -151 -40t-109 -108.5t-40 -151.5t40 -151.5t109 -108.5t151 -40q58 0 114 23.5t97 64.5l61 -60q-51 -51 -125 -82t-147 -31
q-105 0 -193.5 51.5z" />
    <glyph glyph-name="Cacute" unicode="&#x106;" horiz-adv-x="742" 
d="M241.5 41.5q-88.5 51.5 -140 140t-51.5 193.5t51.5 193.5t140 140t193.5 51.5q73 0 147 -31t125 -82l-61 -60q-41 41 -97 64.5t-114 23.5q-82 0 -151 -40t-109 -108.5t-40 -151.5t40 -151.5t109 -108.5t151 -40q58 0 114 23.5t97 64.5l61 -60q-51 -51 -125 -82t-147 -31
q-105 0 -193.5 51.5zM415 808l-32 35l148 159l47 -53z" />
    <glyph glyph-name="Ccaron" unicode="&#x10c;" horiz-adv-x="742" 
d="M241.5 41.5q-88.5 51.5 -140 140t-51.5 193.5t51.5 193.5t140 140t193.5 51.5q73 0 147 -31t125 -82l-61 -60q-41 41 -97 64.5t-114 23.5q-82 0 -151 -40t-109 -108.5t-40 -151.5t40 -151.5t109 -108.5t151 -40q58 0 114 23.5t97 64.5l61 -60q-51 -51 -125 -82t-147 -31
q-105 0 -193.5 51.5zM392 829l-98 145l43 26l98 -117l97 117l43 -26l-99 -145h-84z" />
    <glyph glyph-name="Ccedilla" unicode="&#xc7;" horiz-adv-x="742" 
d="M588 23.5q-70 -30.5 -140 -33.5l-26 -56q14 3 26 3q42 0 69.5 -26t27.5 -67q0 -44 -30 -74t-73 -30q-35 0 -68.5 19t-47.5 47l45 18q10 -15 31 -25t40 -10q23 0 38.5 16t15.5 39q0 24 -15.5 38t-40.5 14q-18 0 -41 -9l-39 25l40 80q-97 8 -177.5 61t-126.5 138t-46 184
q0 105 51.5 193.5t140 140t193.5 51.5q73 0 147 -31t125 -82l-61 -60q-41 41 -97 64.5t-114 23.5q-82 0 -151 -40t-109 -108.5t-40 -151.5t40 -151.5t109 -108.5t151 -40q58 0 114 23.5t97 64.5l61 -60q-49 -49 -119 -79.5z" />
    <glyph glyph-name="Cdotaccent" unicode="&#x10a;" horiz-adv-x="742" 
d="M241.5 41.5q-88.5 51.5 -140 140t-51.5 193.5t51.5 193.5t140 140t193.5 51.5q73 0 147 -31t125 -82l-61 -60q-41 41 -97 64.5t-114 23.5q-82 0 -151 -40t-109 -108.5t-40 -151.5t40 -151.5t109 -108.5t151 -40q58 0 114 23.5t97 64.5l61 -60q-51 -51 -125 -82t-147 -31
q-105 0 -193.5 51.5zM395.5 849.5q-16.5 16.5 -16.5 38.5q0 24 16.5 40t39.5 16t39.5 -16t16.5 -40q0 -22 -16.5 -38.5t-39.5 -16.5t-39.5 16.5z" />
    <glyph glyph-name="D" unicode="D" horiz-adv-x="702" 
d="M70 750h207q102 0 188 -50.5t136.5 -136.5t50.5 -188t-50.5 -188t-136.5 -136.5t-188 -50.5h-207v750zM276 85q81 0 147.5 37.5t105 104t38.5 148.5t-38.5 148.5t-105 104t-147.5 37.5h-122v-580h122z" />
    <glyph glyph-name="Eth" unicode="&#xd0;" horiz-adv-x="702" 
d="M465 699.5q86 -50.5 136.5 -136.5t50.5 -188t-50.5 -188t-136.5 -136.5t-188 -50.5h-207v341h-77v58h77v351h207q102 0 188 -50.5zM423.5 122.5q66.5 37.5 105 104t38.5 148.5t-38.5 148.5t-105 104t-147.5 37.5h-122v-266h133v-58h-133v-256h122q81 0 147.5 37.5z" />
    <glyph glyph-name="Dcaron" unicode="&#x10e;" horiz-adv-x="702" 
d="M70 750h207q102 0 188 -50.5t136.5 -136.5t50.5 -188t-50.5 -188t-136.5 -136.5t-188 -50.5h-207v750zM276 85q81 0 147.5 37.5t105 104t38.5 148.5t-38.5 148.5t-105 104t-147.5 37.5h-122v-580h122zM233 829l-98 145l43 26l98 -117l97 117l43 -26l-99 -145h-84z" />
    <glyph glyph-name="Dcroat" unicode="&#x110;" horiz-adv-x="702" 
d="M465 699.5q86 -50.5 136.5 -136.5t50.5 -188t-50.5 -188t-136.5 -136.5t-188 -50.5h-207v341h-77v58h77v351h207q102 0 188 -50.5zM423.5 122.5q66.5 37.5 105 104t38.5 148.5t-38.5 148.5t-105 104t-147.5 37.5h-122v-266h133v-58h-133v-256h122q81 0 147.5 37.5z" />
    <glyph glyph-name="E" unicode="E" horiz-adv-x="553" 
d="M508 668h-327v-252h285v-82h-285v-252h327v-82h-412v750h412v-82z" />
    <glyph glyph-name="Eacute" unicode="&#xc9;" horiz-adv-x="553" 
d="M508 668h-327v-252h285v-82h-285v-252h327v-82h-412v750h412v-82zM282 808l-32 35l148 159l47 -53z" />
    <glyph glyph-name="Ecaron" unicode="&#x11a;" horiz-adv-x="553" 
d="M508 668h-327v-252h285v-82h-285v-252h327v-82h-412v750h412v-82zM259 829l-98 145l43 26l98 -117l97 117l43 -26l-99 -145h-84z" />
    <glyph glyph-name="Ecircumflex" unicode="&#xca;" horiz-adv-x="553" 
d="M508 668h-327v-252h285v-82h-285v-252h327v-82h-412v750h412v-82zM202 810l-41 25l98 145h84l99 -145l-42 -25l-98 116z" />
    <glyph glyph-name="uni1EBE" unicode="&#x1ebe;" horiz-adv-x="553" 
d="M508 668h-327v-252h285v-82h-285v-252h327v-82h-412v750h412v-82zM202 810l-41 25l98 145h84l99 -145l-42 -25l-98 116zM281 1038l-32 35l148 159l47 -53z" />
    <glyph glyph-name="uni1EC6" unicode="&#x1ec6;" horiz-adv-x="553" 
d="M508 668h-327v-252h285v-82h-285v-252h327v-82h-412v750h412v-82zM262.5 -164.5q-16.5 16.5 -16.5 39.5q0 22 16.5 39t39.5 17q22 0 39 -17t17 -39q0 -23 -16.5 -39.5t-39.5 -16.5t-39.5 16.5zM202 810l-41 25l98 145h84l99 -145l-42 -25l-98 116z" />
    <glyph glyph-name="uni1EC0" unicode="&#x1ec0;" horiz-adv-x="553" 
d="M508 668h-327v-252h285v-82h-285v-252h327v-82h-412v750h412v-82zM202 810l-41 25l98 145h84l99 -145l-42 -25l-98 116zM302 1038l-164 141l48 53l147 -159z" />
    <glyph glyph-name="uni1EC2" unicode="&#x1ec2;" horiz-adv-x="553" 
d="M508 668h-327v-252h285v-82h-285v-252h327v-82h-412v750h412v-82zM202 810l-41 25l98 145h84l99 -145l-42 -25l-98 116zM274 1104q70 15 70 63q0 19 -13.5 32t-35.5 13q-27 0 -52 -17l-32 45q38 30 82 30q46 0 78 -29t32 -74q0 -32 -19.5 -57.5t-56.5 -36.5v-44h-53v75z
" />
    <glyph glyph-name="uni1EC4" unicode="&#x1ec4;" horiz-adv-x="553" 
d="M508 668h-327v-252h285v-82h-285v-252h327v-82h-412v750h412v-82zM202 810l-41 25l98 145h84l99 -145l-42 -25l-98 116zM275 1086q-18 27 -40 27q-23 0 -35.5 -22t-12.5 -56h-61q0 60 29 99t78 39q54 0 92 -55q9 -13 18 -20t24 -7q23 0 35 19.5t12 58.5h60q0 -60 -28 -99
t-79 -39q-55 0 -92 55z" />
    <glyph glyph-name="Edieresis" unicode="&#xcb;" horiz-adv-x="553" 
d="M508 668h-327v-252h285v-82h-285v-252h327v-82h-412v750h412v-82zM170.5 853.5q-16.5 16.5 -16.5 38.5q0 24 16.5 40t39.5 16t39.5 -16t16.5 -40q0 -22 -16.5 -38.5t-39.5 -16.5t-39.5 16.5zM354.5 853.5q-16.5 16.5 -16.5 38.5q0 24 16.5 40t39.5 16t39.5 -16t16.5 -40
q0 -23 -16.5 -39t-39.5 -16t-39.5 16.5z" />
    <glyph glyph-name="Edotaccent" unicode="&#x116;" horiz-adv-x="553" 
d="M508 668h-327v-252h285v-82h-285v-252h327v-82h-412v750h412v-82zM262.5 849.5q-16.5 16.5 -16.5 38.5q0 24 16.5 40t39.5 16t39.5 -16t16.5 -40q0 -22 -16.5 -38.5t-39.5 -16.5t-39.5 16.5z" />
    <glyph glyph-name="uni1EB8" unicode="&#x1eb8;" horiz-adv-x="553" 
d="M508 668h-327v-252h285v-82h-285v-252h327v-82h-412v750h412v-82zM262.5 -164.5q-16.5 16.5 -16.5 39.5q0 22 16.5 39t39.5 17q22 0 39 -17t17 -39q0 -23 -16.5 -39.5t-39.5 -16.5t-39.5 16.5z" />
    <glyph glyph-name="Egrave" unicode="&#xc8;" horiz-adv-x="553" 
d="M508 668h-327v-252h285v-82h-285v-252h327v-82h-412v750h412v-82zM303 808l-164 141l48 53l147 -159z" />
    <glyph glyph-name="uni1EBA" unicode="&#x1eba;" horiz-adv-x="553" 
d="M508 668h-327v-252h285v-82h-285v-252h327v-82h-412v750h412v-82zM275 874q70 15 70 63q0 19 -13.5 32t-35.5 13q-27 0 -52 -17l-32 45q38 30 82 30q46 0 78 -29t32 -74q0 -32 -19.5 -57.5t-56.5 -36.5v-44h-53v75z" />
    <glyph glyph-name="Emacron" unicode="&#x112;" horiz-adv-x="553" 
d="M508 668h-327v-252h285v-82h-285v-252h327v-82h-412v750h412v-82zM147 852v56h310v-56h-310z" />
    <glyph glyph-name="Eogonek" unicode="&#x118;" horiz-adv-x="553" 
d="M568 -208q-51 -51 -126 -51q-55 0 -88 27t-33 76q0 83 105 156h-330v750h412v-82h-327v-252h285v-82h-285v-252h327v-82q-56 -23 -92.5 -59.5t-36.5 -77.5q0 -27 16 -40.5t42 -13.5q23 0 48 10.5t43 28.5z" />
    <glyph glyph-name="uni1EBC" unicode="&#x1ebc;" horiz-adv-x="553" 
d="M508 668h-327v-252h285v-82h-285v-252h327v-82h-412v750h412v-82zM276 856q-18 27 -40 27q-23 0 -35.5 -22t-12.5 -56h-61q0 60 29 99t78 39q54 0 92 -55q9 -13 18 -20t24 -7q23 0 35 19.5t12 58.5h60q0 -60 -28 -99t-79 -39q-55 0 -92 55z" />
    <glyph glyph-name="F" unicode="F" horiz-adv-x="528" 
d="M508 668h-327v-252h285v-82h-285v-334h-85v750h412v-82z" />
    <glyph glyph-name="G" unicode="G" horiz-adv-x="825" 
d="M730 395v-395h-85v54q-48 -30 -102.5 -47t-107.5 -17q-105 0 -193.5 51.5t-140 140t-51.5 193.5t51.5 193.5t140 140t193.5 51.5q73 0 147 -31t125 -82l-61 -60q-41 41 -97 64.5t-114 23.5q-82 0 -151 -40t-109 -108.5t-40 -151.5t40 -151.5t109 -108.5t151 -40
q58 0 113.5 23t96.5 64v153h-214v80h299z" />
    <glyph glyph-name="Gbreve" unicode="&#x11e;" horiz-adv-x="825" 
d="M730 395v-395h-85v54q-48 -30 -102.5 -47t-107.5 -17q-105 0 -193.5 51.5t-140 140t-51.5 193.5t51.5 193.5t140 140t193.5 51.5q73 0 147 -31t125 -82l-61 -60q-41 41 -97 64.5t-114 23.5q-82 0 -151 -40t-109 -108.5t-40 -151.5t40 -151.5t109 -108.5t151 -40
q58 0 113.5 23t96.5 64v153h-214v80h299zM328.5 878q-46.5 42 -46.5 112h51q0 -43 32.5 -72.5t81.5 -29.5q50 0 82.5 29.5t32.5 72.5h51q0 -70 -46.5 -112t-119.5 -42q-72 0 -118.5 42z" />
    <glyph glyph-name="Gcommaaccent" unicode="&#x122;" horiz-adv-x="825" 
d="M730 395v-395h-85v54q-48 -30 -102.5 -47t-107.5 -17q-105 0 -193.5 51.5t-140 140t-51.5 193.5t51.5 193.5t140 140t193.5 51.5q73 0 147 -31t125 -82l-61 -60q-41 41 -97 64.5t-114 23.5q-82 0 -151 -40t-109 -108.5t-40 -151.5t40 -151.5t109 -108.5t151 -40
q58 0 113.5 23t96.5 64v153h-214v80h299zM385 -274l-45 18l92 215l70 -29z" />
    <glyph glyph-name="Gdotaccent" unicode="&#x120;" horiz-adv-x="825" 
d="M730 395v-395h-85v54q-48 -30 -102.5 -47t-107.5 -17q-105 0 -193.5 51.5t-140 140t-51.5 193.5t51.5 193.5t140 140t193.5 51.5q73 0 147 -31t125 -82l-61 -60q-41 41 -97 64.5t-114 23.5q-82 0 -151 -40t-109 -108.5t-40 -151.5t40 -151.5t109 -108.5t151 -40
q58 0 113.5 23t96.5 64v153h-214v80h299zM408.5 849.5q-16.5 16.5 -16.5 38.5q0 24 16.5 40t39.5 16t39.5 -16t16.5 -40q0 -22 -16.5 -38.5t-39.5 -16.5t-39.5 16.5z" />
    <glyph glyph-name="H" unicode="H" horiz-adv-x="757" 
d="M582 750h85v-750h-85v333h-407v-333h-85v750h85v-332h407v332z" />
    <glyph glyph-name="Hbar" unicode="&#x126;" horiz-adv-x="757" 
d="M735 614v-58h-68v-556h-85v333h-407v-333h-85v556h-70v58h70v136h85v-136h407v136h85v-136h68zM582 418v138h-407v-138h407z" />
    <glyph glyph-name="I" unicode="I" horiz-adv-x="276" 
d="M96 0v750h85v-750h-85z" />
    <glyph glyph-name="Iacute" unicode="&#xcd;" horiz-adv-x="276" 
d="M96 0v750h85v-750h-85zM118 808l-32 35l148 159l47 -53z" />
    <glyph glyph-name="uni01CF" unicode="&#x1cf;" horiz-adv-x="276" 
d="M96 0v750h85v-750h-85zM95 829l-98 145l43 26l98 -117l97 117l43 -26l-99 -145h-84z" />
    <glyph glyph-name="Icircumflex" unicode="&#xce;" horiz-adv-x="276" 
d="M96 0v750h85v-750h-85zM38 810l-41 25l98 145h84l99 -145l-42 -25l-98 116z" />
    <glyph glyph-name="Idieresis" unicode="&#xcf;" horiz-adv-x="276" 
d="M96 0v750h85v-750h-85zM6.5 853.5q-16.5 16.5 -16.5 38.5q0 24 16.5 40t39.5 16t39.5 -16t16.5 -40q0 -22 -16.5 -38.5t-39.5 -16.5t-39.5 16.5zM190.5 853.5q-16.5 16.5 -16.5 38.5q0 24 16.5 40t39.5 16t39.5 -16t16.5 -40q0 -23 -16.5 -39t-39.5 -16t-39.5 16.5z" />
    <glyph glyph-name="Idotaccent" unicode="&#x130;" horiz-adv-x="276" 
d="M96 0v750h85v-750h-85zM98.5 849.5q-16.5 16.5 -16.5 38.5q0 24 16.5 40t39.5 16t39.5 -16t16.5 -40q0 -22 -16.5 -38.5t-39.5 -16.5t-39.5 16.5z" />
    <glyph glyph-name="uni1ECA" unicode="&#x1eca;" horiz-adv-x="276" 
d="M96 0v750h85v-750h-85zM98.5 -164.5q-16.5 16.5 -16.5 39.5q0 22 16.5 39t39.5 17q22 0 39 -17t17 -39q0 -23 -16.5 -39.5t-39.5 -16.5t-39.5 16.5z" />
    <glyph glyph-name="Igrave" unicode="&#xcc;" horiz-adv-x="276" 
d="M96 0v750h85v-750h-85zM139 808l-164 141l48 53l147 -159z" />
    <glyph glyph-name="uni1EC8" unicode="&#x1ec8;" horiz-adv-x="276" 
d="M96 0v750h85v-750h-85zM111 874q70 15 70 63q0 19 -13.5 32t-35.5 13q-27 0 -52 -17l-32 45q38 30 82 30q46 0 78 -29t32 -74q0 -32 -19.5 -57.5t-56.5 -36.5v-44h-53v75z" />
    <glyph glyph-name="Imacron" unicode="&#x12a;" horiz-adv-x="276" 
d="M96 0v750h85v-750h-85zM-17 852v56h310v-56h-310z" />
    <glyph glyph-name="Iogonek" unicode="&#x12e;" horiz-adv-x="276" 
d="M241 -208q-51 -51 -126 -51q-55 0 -88 27t-33 76q0 83 105 156h-3v750h85v-750q-56 -23 -92.5 -59.5t-36.5 -77.5q0 -27 16 -40.5t42 -13.5q23 0 48 10.5t43 28.5z" />
    <glyph glyph-name="Itilde" unicode="&#x128;" horiz-adv-x="276" 
d="M96 0v750h85v-750h-85zM112 856q-18 27 -40 27q-23 0 -35.5 -22t-12.5 -56h-61q0 60 29 99t78 39q54 0 92 -55q9 -13 18 -20t24 -7q23 0 35 19.5t12 58.5h60q0 -60 -28 -99t-79 -39q-55 0 -92 55z" />
    <glyph glyph-name="J" unicode="J" horiz-adv-x="471" 
d="M-15 30l39 76q23 -16 56.5 -24.5t63.5 -8.5q72 0 114 48t42 119v510h85v-524q0 -68 -31.5 -121.5t-87.5 -84t-128 -30.5q-85 0 -153 40z" />
    <glyph glyph-name="K" unicode="K" horiz-adv-x="601" 
d="M603 0h-108l-320 372v-372h-85v750h85v-358l308 358h108l-317 -368z" />
    <glyph glyph-name="Kcommaaccent" unicode="&#x136;" horiz-adv-x="601" 
d="M603 0h-108l-320 372v-372h-85v750h85v-358l308 358h108l-317 -368zM238 -274l-45 18l92 215l70 -29z" />
    <glyph glyph-name="L" unicode="L" horiz-adv-x="468" 
d="M181 85h277v-85h-362v750h85v-665z" />
    <glyph glyph-name="Lacute" unicode="&#x139;" horiz-adv-x="468" 
d="M181 85h277v-85h-362v750h85v-665zM118 808l-32 35l148 159l47 -53z" />
    <glyph glyph-name="Lcaron" unicode="&#x13d;" horiz-adv-x="462" 
d="M297 474l54 181q-14 7 -22 20t-8 29q0 23 17 39.5t39 16.5q23 0 39.5 -16.5t16.5 -39.5q0 -5 -2 -15l-2 -6l-71 -209h-61zM181 85h277v-85h-362v750h85v-665z" />
    <glyph glyph-name="Lcommaaccent" unicode="&#x13b;" horiz-adv-x="468" 
d="M181 85h277v-85h-362v750h85v-665zM220 -274l-45 18l92 215l70 -29z" />
    <glyph glyph-name="Lslash" unicode="&#x141;" horiz-adv-x="468" 
d="M181 85h277v-85h-362v281l-53 -40v75l53 40v394h85v-331l145 108v-75l-145 -108v-259z" />
    <glyph glyph-name="M" unicode="M" horiz-adv-x="888" 
d="M777 766h16v-766h-84v513l-266 -417l-262 415v-511h-85v766h16l332 -519z" />
    <glyph glyph-name="N" unicode="N" horiz-adv-x="748" 
d="M569 750h84v-766h-27l-445 578v-562h-85v766h27l446 -577v561z" />
    <glyph glyph-name="Nacute" unicode="&#x143;" horiz-adv-x="748" 
d="M569 750h84v-766h-27l-445 578v-562h-85v766h27l446 -577v561zM354 808l-32 35l148 159l47 -53z" />
    <glyph glyph-name="Ncaron" unicode="&#x147;" horiz-adv-x="748" 
d="M569 750h84v-766h-27l-445 578v-562h-85v766h27l446 -577v561zM331 829l-98 145l43 26l98 -117l97 117l43 -26l-99 -145h-84z" />
    <glyph glyph-name="Ncommaaccent" unicode="&#x145;" horiz-adv-x="748" 
d="M569 750h84v-766h-27l-445 578v-562h-85v766h27l446 -577v561zM319 -274l-45 18l92 215l70 -29z" />
    <glyph glyph-name="Eng" unicode="&#x14a;" horiz-adv-x="802" 
d="M712 750v-783q0 -87 -35.5 -135t-126.5 -48h-22v60q40 -1 62 8.5t32 35t10 74.5v38l-457 609v-609h-85v750h80l458 -608v608h84z" />
    <glyph glyph-name="Ntilde" unicode="&#xd1;" horiz-adv-x="748" 
d="M569 750h84v-766h-27l-445 578v-562h-85v766h27l446 -577v561zM348 856q-18 27 -40 27q-23 0 -35.5 -22t-12.5 -56h-61q0 60 29 99t78 39q54 0 92 -55q9 -13 18 -20t24 -7q23 0 35 19.5t12 58.5h60q0 -60 -28 -99t-79 -39q-55 0 -92 55z" />
    <glyph glyph-name="O" unicode="O" horiz-adv-x="870" 
d="M241.5 41.5q-88.5 51.5 -140 140t-51.5 193.5t51.5 193.5t140 140t193.5 51.5t193.5 -51.5t140 -140t51.5 -193.5t-51.5 -193.5t-140 -140t-193.5 -51.5t-193.5 51.5zM586 115q69 40 109 109t40 151t-40 151t-109 109t-151 40t-150.5 -40t-109 -109t-40.5 -151t40.5 -151
t109 -109t150.5 -40t151 40z" />
    <glyph glyph-name="Oacute" unicode="&#xd3;" horiz-adv-x="870" 
d="M241.5 41.5q-88.5 51.5 -140 140t-51.5 193.5t51.5 193.5t140 140t193.5 51.5t193.5 -51.5t140 -140t51.5 -193.5t-51.5 -193.5t-140 -140t-193.5 -51.5t-193.5 51.5zM586 115q69 40 109 109t40 151t-40 151t-109 109t-151 40t-150.5 -40t-109 -109t-40.5 -151t40.5 -151
t109 -109t150.5 -40t151 40zM415 808l-32 35l148 159l47 -53z" />
    <glyph glyph-name="uni01D1" unicode="&#x1d1;" horiz-adv-x="870" 
d="M241.5 41.5q-88.5 51.5 -140 140t-51.5 193.5t51.5 193.5t140 140t193.5 51.5t193.5 -51.5t140 -140t51.5 -193.5t-51.5 -193.5t-140 -140t-193.5 -51.5t-193.5 51.5zM586 115q69 40 109 109t40 151t-40 151t-109 109t-151 40t-150.5 -40t-109 -109t-40.5 -151t40.5 -151
t109 -109t150.5 -40t151 40zM392 829l-98 145l43 26l98 -117l97 117l43 -26l-99 -145h-84z" />
    <glyph glyph-name="Ocircumflex" unicode="&#xd4;" horiz-adv-x="870" 
d="M241.5 41.5q-88.5 51.5 -140 140t-51.5 193.5t51.5 193.5t140 140t193.5 51.5t193.5 -51.5t140 -140t51.5 -193.5t-51.5 -193.5t-140 -140t-193.5 -51.5t-193.5 51.5zM586 115q69 40 109 109t40 151t-40 151t-109 109t-151 40t-150.5 -40t-109 -109t-40.5 -151t40.5 -151
t109 -109t150.5 -40t151 40zM335 810l-41 25l98 145h84l99 -145l-42 -25l-98 116z" />
    <glyph glyph-name="uni1ED0" unicode="&#x1ed0;" horiz-adv-x="870" 
d="M241.5 41.5q-88.5 51.5 -140 140t-51.5 193.5t51.5 193.5t140 140t193.5 51.5t193.5 -51.5t140 -140t51.5 -193.5t-51.5 -193.5t-140 -140t-193.5 -51.5t-193.5 51.5zM586 115q69 40 109 109t40 151t-40 151t-109 109t-151 40t-150.5 -40t-109 -109t-40.5 -151t40.5 -151
t109 -109t150.5 -40t151 40zM335 810l-41 25l98 145h84l99 -145l-42 -25l-98 116zM414 1038l-32 35l148 159l47 -53z" />
    <glyph glyph-name="uni1ED8" unicode="&#x1ed8;" horiz-adv-x="870" 
d="M241.5 41.5q-88.5 51.5 -140 140t-51.5 193.5t51.5 193.5t140 140t193.5 51.5t193.5 -51.5t140 -140t51.5 -193.5t-51.5 -193.5t-140 -140t-193.5 -51.5t-193.5 51.5zM586 115q69 40 109 109t40 151t-40 151t-109 109t-151 40t-150.5 -40t-109 -109t-40.5 -151t40.5 -151
t109 -109t150.5 -40t151 40zM395.5 -164.5q-16.5 16.5 -16.5 39.5q0 22 16.5 39t39.5 17q22 0 39 -17t17 -39q0 -23 -16.5 -39.5t-39.5 -16.5t-39.5 16.5zM335 810l-41 25l98 145h84l99 -145l-42 -25l-98 116z" />
    <glyph glyph-name="uni1ED2" unicode="&#x1ed2;" horiz-adv-x="870" 
d="M241.5 41.5q-88.5 51.5 -140 140t-51.5 193.5t51.5 193.5t140 140t193.5 51.5t193.5 -51.5t140 -140t51.5 -193.5t-51.5 -193.5t-140 -140t-193.5 -51.5t-193.5 51.5zM586 115q69 40 109 109t40 151t-40 151t-109 109t-151 40t-150.5 -40t-109 -109t-40.5 -151t40.5 -151
t109 -109t150.5 -40t151 40zM335 810l-41 25l98 145h84l99 -145l-42 -25l-98 116zM435 1038l-164 141l48 53l147 -159z" />
    <glyph glyph-name="uni1ED4" unicode="&#x1ed4;" horiz-adv-x="870" 
d="M241.5 41.5q-88.5 51.5 -140 140t-51.5 193.5t51.5 193.5t140 140t193.5 51.5t193.5 -51.5t140 -140t51.5 -193.5t-51.5 -193.5t-140 -140t-193.5 -51.5t-193.5 51.5zM586 115q69 40 109 109t40 151t-40 151t-109 109t-151 40t-150.5 -40t-109 -109t-40.5 -151t40.5 -151
t109 -109t150.5 -40t151 40zM335 810l-41 25l98 145h84l99 -145l-42 -25l-98 116zM407 1104q70 15 70 63q0 19 -13.5 32t-35.5 13q-27 0 -52 -17l-32 45q38 30 82 30q46 0 78 -29t32 -74q0 -32 -19.5 -57.5t-56.5 -36.5v-44h-53v75z" />
    <glyph glyph-name="uni1ED6" unicode="&#x1ed6;" horiz-adv-x="870" 
d="M241.5 41.5q-88.5 51.5 -140 140t-51.5 193.5t51.5 193.5t140 140t193.5 51.5t193.5 -51.5t140 -140t51.5 -193.5t-51.5 -193.5t-140 -140t-193.5 -51.5t-193.5 51.5zM586 115q69 40 109 109t40 151t-40 151t-109 109t-151 40t-150.5 -40t-109 -109t-40.5 -151t40.5 -151
t109 -109t150.5 -40t151 40zM335 810l-41 25l98 145h84l99 -145l-42 -25l-98 116zM408 1086q-18 27 -40 27q-23 0 -35.5 -22t-12.5 -56h-61q0 60 29 99t78 39q54 0 92 -55q9 -13 18 -20t24 -7q23 0 35 19.5t12 58.5h60q0 -60 -28 -99t-79 -39q-55 0 -92 55z" />
    <glyph glyph-name="Odieresis" unicode="&#xd6;" horiz-adv-x="870" 
d="M241.5 41.5q-88.5 51.5 -140 140t-51.5 193.5t51.5 193.5t140 140t193.5 51.5t193.5 -51.5t140 -140t51.5 -193.5t-51.5 -193.5t-140 -140t-193.5 -51.5t-193.5 51.5zM586 115q69 40 109 109t40 151t-40 151t-109 109t-151 40t-150.5 -40t-109 -109t-40.5 -151t40.5 -151
t109 -109t150.5 -40t151 40zM303.5 853.5q-16.5 16.5 -16.5 38.5q0 24 16.5 40t39.5 16t39.5 -16t16.5 -40q0 -22 -16.5 -38.5t-39.5 -16.5t-39.5 16.5zM487.5 853.5q-16.5 16.5 -16.5 38.5q0 24 16.5 40t39.5 16t39.5 -16t16.5 -40q0 -23 -16.5 -39t-39.5 -16t-39.5 16.5z
" />
    <glyph glyph-name="uni1ECC" unicode="&#x1ecc;" horiz-adv-x="870" 
d="M241.5 41.5q-88.5 51.5 -140 140t-51.5 193.5t51.5 193.5t140 140t193.5 51.5t193.5 -51.5t140 -140t51.5 -193.5t-51.5 -193.5t-140 -140t-193.5 -51.5t-193.5 51.5zM586 115q69 40 109 109t40 151t-40 151t-109 109t-151 40t-150.5 -40t-109 -109t-40.5 -151t40.5 -151
t109 -109t150.5 -40t151 40zM395.5 -164.5q-16.5 16.5 -16.5 39.5q0 22 16.5 39t39.5 17q22 0 39 -17t17 -39q0 -23 -16.5 -39.5t-39.5 -16.5t-39.5 16.5z" />
    <glyph glyph-name="Ograve" unicode="&#xd2;" horiz-adv-x="870" 
d="M241.5 41.5q-88.5 51.5 -140 140t-51.5 193.5t51.5 193.5t140 140t193.5 51.5t193.5 -51.5t140 -140t51.5 -193.5t-51.5 -193.5t-140 -140t-193.5 -51.5t-193.5 51.5zM586 115q69 40 109 109t40 151t-40 151t-109 109t-151 40t-150.5 -40t-109 -109t-40.5 -151t40.5 -151
t109 -109t150.5 -40t151 40zM436 808l-164 141l48 53l147 -159z" />
    <glyph glyph-name="uni1ECE" unicode="&#x1ece;" horiz-adv-x="870" 
d="M241.5 41.5q-88.5 51.5 -140 140t-51.5 193.5t51.5 193.5t140 140t193.5 51.5t193.5 -51.5t140 -140t51.5 -193.5t-51.5 -193.5t-140 -140t-193.5 -51.5t-193.5 51.5zM586 115q69 40 109 109t40 151t-40 151t-109 109t-151 40t-150.5 -40t-109 -109t-40.5 -151t40.5 -151
t109 -109t150.5 -40t151 40zM408 874q70 15 70 63q0 19 -13.5 32t-35.5 13q-27 0 -52 -17l-32 45q38 30 82 30q46 0 78 -29t32 -74q0 -32 -19.5 -57.5t-56.5 -36.5v-44h-53v75z" />
    <glyph glyph-name="Ohorn" unicode="&#x1a0;" horiz-adv-x="870" 
d="M868 734v-61q0 -61 -25.5 -90t-64.5 -32q42 -82 42 -176q0 -105 -51.5 -193.5t-140 -140t-193.5 -51.5t-193.5 51.5t-140 140t-51.5 193.5t51.5 193.5t140 140t193.5 51.5q99 0 183 -46t137 -125q23 2 33.5 22t10.5 43v80h69zM586 115q69 40 109 109t40 151t-40 151
t-109 109t-151 40t-150.5 -40t-109 -109t-40.5 -151t40.5 -151t109 -109t150.5 -40t151 40z" />
    <glyph glyph-name="uni1EDA" unicode="&#x1eda;" horiz-adv-x="870" 
d="M868 734v-61q0 -61 -25.5 -90t-64.5 -32q42 -82 42 -176q0 -105 -51.5 -193.5t-140 -140t-193.5 -51.5t-193.5 51.5t-140 140t-51.5 193.5t51.5 193.5t140 140t193.5 51.5q99 0 183 -46t137 -125q23 2 33.5 22t10.5 43v80h69zM586 115q69 40 109 109t40 151t-40 151
t-109 109t-151 40t-150.5 -40t-109 -109t-40.5 -151t40.5 -151t109 -109t150.5 -40t151 40zM415 808l-32 35l148 159l47 -53z" />
    <glyph glyph-name="uni1EE2" unicode="&#x1ee2;" horiz-adv-x="870" 
d="M868 734v-61q0 -61 -25.5 -90t-64.5 -32q42 -82 42 -176q0 -105 -51.5 -193.5t-140 -140t-193.5 -51.5t-193.5 51.5t-140 140t-51.5 193.5t51.5 193.5t140 140t193.5 51.5q99 0 183 -46t137 -125q23 2 33.5 22t10.5 43v80h69zM586 115q69 40 109 109t40 151t-40 151
t-109 109t-151 40t-150.5 -40t-109 -109t-40.5 -151t40.5 -151t109 -109t150.5 -40t151 40zM395.5 -164.5q-16.5 16.5 -16.5 39.5q0 22 16.5 39t39.5 17q22 0 39 -17t17 -39q0 -23 -16.5 -39.5t-39.5 -16.5t-39.5 16.5z" />
    <glyph glyph-name="uni1EDC" unicode="&#x1edc;" horiz-adv-x="870" 
d="M868 734v-61q0 -61 -25.5 -90t-64.5 -32q42 -82 42 -176q0 -105 -51.5 -193.5t-140 -140t-193.5 -51.5t-193.5 51.5t-140 140t-51.5 193.5t51.5 193.5t140 140t193.5 51.5q99 0 183 -46t137 -125q23 2 33.5 22t10.5 43v80h69zM586 115q69 40 109 109t40 151t-40 151
t-109 109t-151 40t-150.5 -40t-109 -109t-40.5 -151t40.5 -151t109 -109t150.5 -40t151 40zM436 808l-164 141l48 53l147 -159z" />
    <glyph glyph-name="uni1EDE" unicode="&#x1ede;" horiz-adv-x="870" 
d="M868 734v-61q0 -61 -25.5 -90t-64.5 -32q42 -82 42 -176q0 -105 -51.5 -193.5t-140 -140t-193.5 -51.5t-193.5 51.5t-140 140t-51.5 193.5t51.5 193.5t140 140t193.5 51.5q99 0 183 -46t137 -125q23 2 33.5 22t10.5 43v80h69zM586 115q69 40 109 109t40 151t-40 151
t-109 109t-151 40t-150.5 -40t-109 -109t-40.5 -151t40.5 -151t109 -109t150.5 -40t151 40zM408 874q70 15 70 63q0 19 -13.5 32t-35.5 13q-27 0 -52 -17l-32 45q38 30 82 30q46 0 78 -29t32 -74q0 -32 -19.5 -57.5t-56.5 -36.5v-44h-53v75z" />
    <glyph glyph-name="uni1EE0" unicode="&#x1ee0;" horiz-adv-x="870" 
d="M868 734v-61q0 -61 -25.5 -90t-64.5 -32q42 -82 42 -176q0 -105 -51.5 -193.5t-140 -140t-193.5 -51.5t-193.5 51.5t-140 140t-51.5 193.5t51.5 193.5t140 140t193.5 51.5q99 0 183 -46t137 -125q23 2 33.5 22t10.5 43v80h69zM586 115q69 40 109 109t40 151t-40 151
t-109 109t-151 40t-150.5 -40t-109 -109t-40.5 -151t40.5 -151t109 -109t150.5 -40t151 40zM409 856q-18 27 -40 27q-23 0 -35.5 -22t-12.5 -56h-61q0 60 29 99t78 39q54 0 92 -55q9 -13 18 -20t24 -7q23 0 35 19.5t12 58.5h60q0 -60 -28 -99t-79 -39q-55 0 -92 55z" />
    <glyph glyph-name="Ohungarumlaut" unicode="&#x150;" horiz-adv-x="870" 
d="M241.5 41.5q-88.5 51.5 -140 140t-51.5 193.5t51.5 193.5t140 140t193.5 51.5t193.5 -51.5t140 -140t51.5 -193.5t-51.5 -193.5t-140 -140t-193.5 -51.5t-193.5 51.5zM586 115q69 40 109 109t40 151t-40 151t-109 109t-151 40t-150.5 -40t-109 -109t-40.5 -151t40.5 -151
t109 -109t150.5 -40t151 40zM344 832l-41 46l160 138l42 -46zM525 832l-41 46l160 138l42 -46z" />
    <glyph glyph-name="Omacron" unicode="&#x14c;" horiz-adv-x="870" 
d="M241.5 41.5q-88.5 51.5 -140 140t-51.5 193.5t51.5 193.5t140 140t193.5 51.5t193.5 -51.5t140 -140t51.5 -193.5t-51.5 -193.5t-140 -140t-193.5 -51.5t-193.5 51.5zM586 115q69 40 109 109t40 151t-40 151t-109 109t-151 40t-150.5 -40t-109 -109t-40.5 -151t40.5 -151
t109 -109t150.5 -40t151 40zM280 852v56h310v-56h-310z" />
    <glyph glyph-name="Oslash" unicode="&#xd8;" horiz-adv-x="870" 
d="M784 538q36 -76 36 -163q0 -105 -51.5 -193.5t-140 -140t-193.5 -51.5q-100 0 -189 49l-61 -87l-63 38l64 91q-64 54 -100 130.5t-36 163.5q0 105 51.5 193.5t140 140t193.5 51.5q103 0 190 -50l60 87l62 -39l-62 -90q63 -54 99 -130zM161.5 251q26.5 -58 73.5 -100
l341 490q-65 34 -141 34q-82 0 -150.5 -40t-109 -109t-40.5 -151q0 -66 26.5 -124zM586 115q69 40 109 109t40 151q0 66 -26 124t-73 100l-341 -490q65 -34 140 -34q82 0 151 40z" />
    <glyph glyph-name="Otilde" unicode="&#xd5;" horiz-adv-x="870" 
d="M241.5 41.5q-88.5 51.5 -140 140t-51.5 193.5t51.5 193.5t140 140t193.5 51.5t193.5 -51.5t140 -140t51.5 -193.5t-51.5 -193.5t-140 -140t-193.5 -51.5t-193.5 51.5zM586 115q69 40 109 109t40 151t-40 151t-109 109t-151 40t-150.5 -40t-109 -109t-40.5 -151t40.5 -151
t109 -109t150.5 -40t151 40zM409 856q-18 27 -40 27q-23 0 -35.5 -22t-12.5 -56h-61q0 60 29 99t78 39q54 0 92 -55q9 -13 18 -20t24 -7q23 0 35 19.5t12 58.5h60q0 -60 -28 -99t-79 -39q-55 0 -92 55z" />
    <glyph glyph-name="OE" unicode="&#x152;" horiz-adv-x="1194" 
d="M820 668v-252h287v-82h-287v-252h329v-82h-399v153q-53 -76 -136 -119.5t-179 -43.5q-105 0 -193.5 51.5t-140 140t-51.5 193.5t51.5 193.5t140 140t193.5 51.5q96 0 179 -43.5t136 -119.5v153h399v-82h-329zM587.5 112.5q69.5 40.5 110 110t40.5 152.5t-40.5 152.5
t-110 110t-151.5 40.5q-83 0 -153 -40.5t-110.5 -110t-40.5 -152.5t40.5 -152.5t110.5 -110t153 -40.5q82 0 151.5 40.5z" />
    <glyph glyph-name="P" unicode="P" horiz-adv-x="631" 
d="M507 722q48 -28 76 -76.5t28 -105.5q0 -58 -28 -105.5t-76 -75t-106 -27.5h-226v-332h-85v750h311q58 0 106 -28zM488.5 446.5q37.5 33.5 37.5 92.5q0 57 -38 93t-95 36h-218v-255h218q58 0 95.5 33.5z" />
    <glyph glyph-name="Thorn" unicode="&#xde;" horiz-adv-x="615" 
d="M472 617.5q48 -28.5 76 -77t28 -105.5q0 -56 -28 -104t-76 -75.5t-105 -27.5h-188v-228h-82v746h82v-100h188q57 0 105 -28.5zM454 345.5q37 35.5 37 91.5t-37 91.5t-94 35.5h-181v-254h181q57 0 94 35.5z" />
    <glyph glyph-name="Q" unicode="Q" horiz-adv-x="892" 
d="M787 -11l-97 97q-52 -46 -117.5 -71t-137.5 -25q-105 0 -193.5 51.5t-140 140t-51.5 193.5t51.5 193.5t140 140t193.5 51.5t193.5 -51.5t140 -140t51.5 -193.5q0 -128 -76 -231l100 -98zM540 93.5q50 18.5 90 52.5l-83 84l54 54l81 -80q53 76 53 171q0 82 -40 151
t-109 109t-151 40t-150.5 -40t-109 -109t-40.5 -151t40.5 -151t109 -109t150.5 -40q55 0 105 18.5z" />
    <glyph glyph-name="R" unicode="R" horiz-adv-x="645" 
d="M355 332h-200v-332h-85v750h311q58 0 106 -28t76 -76.5t28 -105.5q0 -70 -41 -124.5t-106 -74.5l181 -341h-92zM155 413h218q58 0 95.5 33.5t37.5 92.5q0 57 -38 93t-95 36h-218v-255z" />
    <glyph glyph-name="Racute" unicode="&#x154;" horiz-adv-x="645" 
d="M355 332h-200v-332h-85v750h311q58 0 106 -28t76 -76.5t28 -105.5q0 -70 -41 -124.5t-106 -74.5l181 -341h-92zM155 413h218q58 0 95.5 33.5t37.5 92.5q0 57 -38 93t-95 36h-218v-255zM275 808l-32 35l148 159l47 -53z" />
    <glyph glyph-name="Rcaron" unicode="&#x158;" horiz-adv-x="645" 
d="M355 332h-200v-332h-85v750h311q58 0 106 -28t76 -76.5t28 -105.5q0 -70 -41 -124.5t-106 -74.5l181 -341h-92zM155 413h218q58 0 95.5 33.5t37.5 92.5q0 57 -38 93t-95 36h-218v-255zM252 829l-98 145l43 26l98 -117l97 117l43 -26l-99 -145h-84z" />
    <glyph glyph-name="Rcommaaccent" unicode="&#x156;" horiz-adv-x="645" 
d="M355 332h-200v-332h-85v750h311q58 0 106 -28t76 -76.5t28 -105.5q0 -70 -41 -124.5t-106 -74.5l181 -341h-92zM155 413h218q58 0 95.5 33.5t37.5 92.5q0 57 -38 93t-95 36h-218v-255zM238 -274l-45 18l92 215l70 -29z" />
    <glyph glyph-name="S" unicode="S" horiz-adv-x="545" 
d="M139 23q-67 33 -109 85l61 61q72 -103 186 -103q66 0 109.5 35.5t43.5 93.5q0 40 -21.5 68t-53.5 45.5t-88 41.5q-67 28 -107 51.5t-67 63t-27 98.5t27.5 104t74.5 69t106 24q69 0 123 -27.5t93 -74.5l-51 -53q-43 45 -80 62t-83 17q-55 0 -92.5 -31t-37.5 -84
q0 -40 22 -67t54 -43.5t91 -40.5q62 -25 102 -49.5t67.5 -66t27.5 -104.5q0 -66 -30.5 -113t-82.5 -71t-115 -24q-76 0 -143 33z" />
    <glyph glyph-name="Sacute" unicode="&#x15a;" horiz-adv-x="545" 
d="M139 23q-67 33 -109 85l61 61q72 -103 186 -103q66 0 109.5 35.5t43.5 93.5q0 40 -21.5 68t-53.5 45.5t-88 41.5q-67 28 -107 51.5t-67 63t-27 98.5t27.5 104t74.5 69t106 24q69 0 123 -27.5t93 -74.5l-51 -53q-43 45 -80 62t-83 17q-55 0 -92.5 -31t-37.5 -84
q0 -40 22 -67t54 -43.5t91 -40.5q62 -25 102 -49.5t67.5 -66t27.5 -104.5q0 -66 -30.5 -113t-82.5 -71t-115 -24q-76 0 -143 33zM258 808l-32 35l148 159l47 -53z" />
    <glyph glyph-name="Scaron" unicode="&#x160;" horiz-adv-x="545" 
d="M139 23q-67 33 -109 85l61 61q72 -103 186 -103q66 0 109.5 35.5t43.5 93.5q0 40 -21.5 68t-53.5 45.5t-88 41.5q-67 28 -107 51.5t-67 63t-27 98.5t27.5 104t74.5 69t106 24q69 0 123 -27.5t93 -74.5l-51 -53q-43 45 -80 62t-83 17q-55 0 -92.5 -31t-37.5 -84
q0 -40 22 -67t54 -43.5t91 -40.5q62 -25 102 -49.5t67.5 -66t27.5 -104.5q0 -66 -30.5 -113t-82.5 -71t-115 -24q-76 0 -143 33zM235 829l-98 145l43 26l98 -117l97 117l43 -26l-99 -145h-84z" />
    <glyph glyph-name="Scedilla" unicode="&#x15e;" horiz-adv-x="545" 
d="M480.5 86.5q-29.5 -46.5 -80 -71t-112.5 -25.5l-26 -56q14 3 26 3q42 0 69.5 -26t27.5 -67q0 -44 -30 -74t-73 -30q-35 0 -68.5 19t-47.5 47l45 18q10 -15 31 -25t40 -10q23 0 38.5 16t15.5 39q0 24 -15.5 38t-40.5 14q-18 0 -41 -9l-39 25l40 81q-64 8 -119 39t-91 76
l61 61q72 -103 186 -103q66 0 109.5 35.5t43.5 93.5q0 40 -21.5 68t-53.5 45.5t-88 41.5q-67 28 -107 51.5t-67 63t-27 98.5t27.5 104t74.5 69t106 24q69 0 123 -27.5t93 -74.5l-51 -53q-43 45 -80 62t-83 17q-55 0 -92.5 -31t-37.5 -84q0 -40 22 -67t54 -43.5t91 -40.5
q62 -25 102 -49.5t67.5 -66t27.5 -104.5q0 -65 -29.5 -111.5z" />
    <glyph glyph-name="Scommaaccent" unicode="&#x218;" horiz-adv-x="545" 
d="M139 23q-67 33 -109 85l61 61q72 -103 186 -103q66 0 109.5 35.5t43.5 93.5q0 40 -21.5 68t-53.5 45.5t-88 41.5q-67 28 -107 51.5t-67 63t-27 98.5t27.5 104t74.5 69t106 24q69 0 123 -27.5t93 -74.5l-51 -53q-43 45 -80 62t-83 17q-55 0 -92.5 -31t-37.5 -84
q0 -40 22 -67t54 -43.5t91 -40.5q62 -25 102 -49.5t67.5 -66t27.5 -104.5q0 -66 -30.5 -113t-82.5 -71t-115 -24q-76 0 -143 33zM212 -274l-45 18l92 215l70 -29z" />
    <glyph glyph-name="T" unicode="T" horiz-adv-x="517" 
d="M507 750v-85h-206v-665h-85v665h-206v85h497z" />
    <glyph glyph-name="Tbar" unicode="&#x166;" horiz-adv-x="517" 
d="M507 665h-206v-266h103v-58h-103v-341h-85v341h-106v58h106v266h-206v85h497v-85z" />
    <glyph glyph-name="Tcaron" unicode="&#x164;" horiz-adv-x="517" 
d="M507 750v-85h-206v-665h-85v665h-206v85h497zM215 829l-98 145l43 26l98 -117l97 117l43 -26l-99 -145h-84z" />
    <glyph glyph-name="uni0162" unicode="&#x162;" horiz-adv-x="517" 
d="M282 0l-31 -66q14 3 26 3q42 0 69.5 -26t27.5 -67q0 -44 -30 -74t-73 -30q-35 0 -68.5 19t-47.5 47l45 18q10 -15 31 -25t40 -10q23 0 38.5 16t15.5 39q0 24 -15.5 38t-40.5 14q-19 0 -41 -9l-39 25l44 88h-17v665h-206v85h497v-85h-206v-665h-19z" />
    <glyph glyph-name="uni021A" unicode="&#x21a;" horiz-adv-x="517" 
d="M507 750v-85h-206v-665h-85v665h-206v85h497zM201 -274l-45 18l92 215l70 -29z" />
    <glyph glyph-name="U" unicode="U" horiz-adv-x="739" 
d="M223.5 23q-64.5 33 -101 91.5t-36.5 131.5v504h85v-490q0 -53 25.5 -95t70.5 -66t102 -24t102.5 24t71 66t25.5 95v490h85v-504q0 -73 -36.5 -131.5t-101.5 -91.5t-146 -33t-145.5 33z" />
    <glyph glyph-name="Uacute" unicode="&#xda;" horiz-adv-x="739" 
d="M223.5 23q-64.5 33 -101 91.5t-36.5 131.5v504h85v-490q0 -53 25.5 -95t70.5 -66t102 -24t102.5 24t71 66t25.5 95v490h85v-504q0 -73 -36.5 -131.5t-101.5 -91.5t-146 -33t-145.5 33zM349 808l-32 35l148 159l47 -53z" />
    <glyph glyph-name="uni01D3" unicode="&#x1d3;" horiz-adv-x="739" 
d="M223.5 23q-64.5 33 -101 91.5t-36.5 131.5v504h85v-490q0 -53 25.5 -95t70.5 -66t102 -24t102.5 24t71 66t25.5 95v490h85v-504q0 -73 -36.5 -131.5t-101.5 -91.5t-146 -33t-145.5 33zM326 829l-98 145l43 26l98 -117l97 117l43 -26l-99 -145h-84z" />
    <glyph glyph-name="Ucircumflex" unicode="&#xdb;" horiz-adv-x="739" 
d="M223.5 23q-64.5 33 -101 91.5t-36.5 131.5v504h85v-490q0 -53 25.5 -95t70.5 -66t102 -24t102.5 24t71 66t25.5 95v490h85v-504q0 -73 -36.5 -131.5t-101.5 -91.5t-146 -33t-145.5 33zM269 810l-41 25l98 145h84l99 -145l-42 -25l-98 116z" />
    <glyph glyph-name="Udieresis" unicode="&#xdc;" horiz-adv-x="739" 
d="M223.5 23q-64.5 33 -101 91.5t-36.5 131.5v504h85v-490q0 -53 25.5 -95t70.5 -66t102 -24t102.5 24t71 66t25.5 95v490h85v-504q0 -73 -36.5 -131.5t-101.5 -91.5t-146 -33t-145.5 33zM237.5 853.5q-16.5 16.5 -16.5 38.5q0 24 16.5 40t39.5 16t39.5 -16t16.5 -40
q0 -22 -16.5 -38.5t-39.5 -16.5t-39.5 16.5zM421.5 853.5q-16.5 16.5 -16.5 38.5q0 24 16.5 40t39.5 16t39.5 -16t16.5 -40q0 -23 -16.5 -39t-39.5 -16t-39.5 16.5z" />
    <glyph glyph-name="uni01D7" unicode="&#x1d7;" horiz-adv-x="739" 
d="M223.5 23q-64.5 33 -101 91.5t-36.5 131.5v504h85v-490q0 -53 25.5 -95t70.5 -66t102 -24t102.5 24t71 66t25.5 95v490h85v-504q0 -73 -36.5 -131.5t-101.5 -91.5t-146 -33t-145.5 33zM237.5 853.5q-16.5 16.5 -16.5 38.5q0 24 16.5 40t39.5 16t39.5 -16t16.5 -40
q0 -22 -16.5 -38.5t-39.5 -16.5t-39.5 16.5zM421.5 853.5q-16.5 16.5 -16.5 38.5q0 24 16.5 40t39.5 16t39.5 -16t16.5 -40q0 -23 -16.5 -39t-39.5 -16t-39.5 16.5zM349 1006l-32 35l148 159l47 -53z" />
    <glyph glyph-name="uni01D9" unicode="&#x1d9;" horiz-adv-x="739" 
d="M223.5 23q-64.5 33 -101 91.5t-36.5 131.5v504h85v-490q0 -53 25.5 -95t70.5 -66t102 -24t102.5 24t71 66t25.5 95v490h85v-504q0 -73 -36.5 -131.5t-101.5 -91.5t-146 -33t-145.5 33zM237.5 853.5q-16.5 16.5 -16.5 38.5q0 24 16.5 40t39.5 16t39.5 -16t16.5 -40
q0 -22 -16.5 -38.5t-39.5 -16.5t-39.5 16.5zM421.5 853.5q-16.5 16.5 -16.5 38.5q0 24 16.5 40t39.5 16t39.5 -16t16.5 -40q0 -23 -16.5 -39t-39.5 -16t-39.5 16.5zM326 1027l-98 145l43 26l98 -117l97 117l43 -26l-99 -145h-84z" />
    <glyph glyph-name="uni01DB" unicode="&#x1db;" horiz-adv-x="739" 
d="M223.5 23q-64.5 33 -101 91.5t-36.5 131.5v504h85v-490q0 -53 25.5 -95t70.5 -66t102 -24t102.5 24t71 66t25.5 95v490h85v-504q0 -73 -36.5 -131.5t-101.5 -91.5t-146 -33t-145.5 33zM237.5 853.5q-16.5 16.5 -16.5 38.5q0 24 16.5 40t39.5 16t39.5 -16t16.5 -40
q0 -22 -16.5 -38.5t-39.5 -16.5t-39.5 16.5zM421.5 853.5q-16.5 16.5 -16.5 38.5q0 24 16.5 40t39.5 16t39.5 -16t16.5 -40q0 -23 -16.5 -39t-39.5 -16t-39.5 16.5zM370 1006l-164 141l48 53l147 -159z" />
    <glyph glyph-name="uni01D5" unicode="&#x1d5;" horiz-adv-x="739" 
d="M223.5 23q-64.5 33 -101 91.5t-36.5 131.5v504h85v-490q0 -53 25.5 -95t70.5 -66t102 -24t102.5 24t71 66t25.5 95v490h85v-504q0 -73 -36.5 -131.5t-101.5 -91.5t-146 -33t-145.5 33zM237.5 853.5q-16.5 16.5 -16.5 38.5q0 24 16.5 40t39.5 16t39.5 -16t16.5 -40
q0 -22 -16.5 -38.5t-39.5 -16.5t-39.5 16.5zM421.5 853.5q-16.5 16.5 -16.5 38.5q0 24 16.5 40t39.5 16t39.5 -16t16.5 -40q0 -23 -16.5 -39t-39.5 -16t-39.5 16.5zM214 1050v56h310v-56h-310z" />
    <glyph glyph-name="uni1EE4" unicode="&#x1ee4;" horiz-adv-x="739" 
d="M223.5 23q-64.5 33 -101 91.5t-36.5 131.5v504h85v-490q0 -53 25.5 -95t70.5 -66t102 -24t102.5 24t71 66t25.5 95v490h85v-504q0 -73 -36.5 -131.5t-101.5 -91.5t-146 -33t-145.5 33zM329.5 -164.5q-16.5 16.5 -16.5 39.5q0 22 16.5 39t39.5 17q22 0 39 -17t17 -39
q0 -23 -16.5 -39.5t-39.5 -16.5t-39.5 16.5z" />
    <glyph glyph-name="Ugrave" unicode="&#xd9;" horiz-adv-x="739" 
d="M223.5 23q-64.5 33 -101 91.5t-36.5 131.5v504h85v-490q0 -53 25.5 -95t70.5 -66t102 -24t102.5 24t71 66t25.5 95v490h85v-504q0 -73 -36.5 -131.5t-101.5 -91.5t-146 -33t-145.5 33zM370 808l-164 141l48 53l147 -159z" />
    <glyph glyph-name="uni1EE6" unicode="&#x1ee6;" horiz-adv-x="739" 
d="M223.5 23q-64.5 33 -101 91.5t-36.5 131.5v504h85v-490q0 -53 25.5 -95t70.5 -66t102 -24t102.5 24t71 66t25.5 95v490h85v-504q0 -73 -36.5 -131.5t-101.5 -91.5t-146 -33t-145.5 33zM342 874q70 15 70 63q0 19 -13.5 32t-35.5 13q-27 0 -52 -17l-32 45q38 30 82 30
q46 0 78 -29t32 -74q0 -32 -19.5 -57.5t-56.5 -36.5v-44h-53v75z" />
    <glyph glyph-name="Uhorn" unicode="&#x1af;" horiz-adv-x="739" 
d="M802 751v-61q0 -63 -27.5 -92.5t-68.5 -29.5q-24 0 -53 9v-331q0 -73 -36.5 -131.5t-101.5 -91.5t-146 -33t-145.5 33t-101 91.5t-36.5 131.5v504h85v-490q0 -53 25.5 -95t70.5 -66t102 -24t102.5 24t71 66t25.5 95v490h85v-137q18 -7 32 -7q25 0 36.5 20.5t11.5 44.5v80
h69z" />
    <glyph glyph-name="uni1EE8" unicode="&#x1ee8;" horiz-adv-x="739" 
d="M802 751v-61q0 -63 -27.5 -92.5t-68.5 -29.5q-24 0 -53 9v-331q0 -73 -36.5 -131.5t-101.5 -91.5t-146 -33t-145.5 33t-101 91.5t-36.5 131.5v504h85v-490q0 -53 25.5 -95t70.5 -66t102 -24t102.5 24t71 66t25.5 95v490h85v-137q18 -7 32 -7q25 0 36.5 20.5t11.5 44.5v80
h69zM349 808l-32 35l148 159l47 -53z" />
    <glyph glyph-name="uni1EF0" unicode="&#x1ef0;" horiz-adv-x="739" 
d="M802 751v-61q0 -63 -27.5 -92.5t-68.5 -29.5q-24 0 -53 9v-331q0 -73 -36.5 -131.5t-101.5 -91.5t-146 -33t-145.5 33t-101 91.5t-36.5 131.5v504h85v-490q0 -53 25.5 -95t70.5 -66t102 -24t102.5 24t71 66t25.5 95v490h85v-137q18 -7 32 -7q25 0 36.5 20.5t11.5 44.5v80
h69zM329.5 -164.5q-16.5 16.5 -16.5 39.5q0 22 16.5 39t39.5 17q22 0 39 -17t17 -39q0 -23 -16.5 -39.5t-39.5 -16.5t-39.5 16.5z" />
    <glyph glyph-name="uni1EEA" unicode="&#x1eea;" horiz-adv-x="739" 
d="M802 751v-61q0 -63 -27.5 -92.5t-68.5 -29.5q-24 0 -53 9v-331q0 -73 -36.5 -131.5t-101.5 -91.5t-146 -33t-145.5 33t-101 91.5t-36.5 131.5v504h85v-490q0 -53 25.5 -95t70.5 -66t102 -24t102.5 24t71 66t25.5 95v490h85v-137q18 -7 32 -7q25 0 36.5 20.5t11.5 44.5v80
h69zM370 808l-164 141l48 53l147 -159z" />
    <glyph glyph-name="uni1EEC" unicode="&#x1eec;" horiz-adv-x="739" 
d="M802 751v-61q0 -63 -27.5 -92.5t-68.5 -29.5q-24 0 -53 9v-331q0 -73 -36.5 -131.5t-101.5 -91.5t-146 -33t-145.5 33t-101 91.5t-36.5 131.5v504h85v-490q0 -53 25.5 -95t70.5 -66t102 -24t102.5 24t71 66t25.5 95v490h85v-137q18 -7 32 -7q25 0 36.5 20.5t11.5 44.5v80
h69zM342 874q70 15 70 63q0 19 -13.5 32t-35.5 13q-27 0 -52 -17l-32 45q38 30 82 30q46 0 78 -29t32 -74q0 -32 -19.5 -57.5t-56.5 -36.5v-44h-53v75z" />
    <glyph glyph-name="uni1EEE" unicode="&#x1eee;" horiz-adv-x="739" 
d="M802 751v-61q0 -63 -27.5 -92.5t-68.5 -29.5q-24 0 -53 9v-331q0 -73 -36.5 -131.5t-101.5 -91.5t-146 -33t-145.5 33t-101 91.5t-36.5 131.5v504h85v-490q0 -53 25.5 -95t70.5 -66t102 -24t102.5 24t71 66t25.5 95v490h85v-137q18 -7 32 -7q25 0 36.5 20.5t11.5 44.5v80
h69zM343 856q-18 27 -40 27q-23 0 -35.5 -22t-12.5 -56h-61q0 60 29 99t78 39q54 0 92 -55q9 -13 18 -20t24 -7q23 0 35 19.5t12 58.5h60q0 -60 -28 -99t-79 -39q-55 0 -92 55z" />
    <glyph glyph-name="Uhungarumlaut" unicode="&#x170;" horiz-adv-x="739" 
d="M223.5 23q-64.5 33 -101 91.5t-36.5 131.5v504h85v-490q0 -53 25.5 -95t70.5 -66t102 -24t102.5 24t71 66t25.5 95v490h85v-504q0 -73 -36.5 -131.5t-101.5 -91.5t-146 -33t-145.5 33zM278 832l-41 46l160 138l42 -46zM459 832l-41 46l160 138l42 -46z" />
    <glyph glyph-name="Umacron" unicode="&#x16a;" horiz-adv-x="739" 
d="M223.5 23q-64.5 33 -101 91.5t-36.5 131.5v504h85v-490q0 -53 25.5 -95t70.5 -66t102 -24t102.5 24t71 66t25.5 95v490h85v-504q0 -73 -36.5 -131.5t-101.5 -91.5t-146 -33t-145.5 33zM214 852v56h310v-56h-310z" />
    <glyph glyph-name="Uogonek" unicode="&#x172;" horiz-adv-x="739" 
d="M653 750v-504q0 -94 -58.5 -161.5t-155.5 -87.5q-48 -24 -78.5 -57.5t-30.5 -70.5q0 -27 16 -40.5t42 -13.5q23 0 48 10.5t43 28.5l40 -56q-51 -51 -126 -51q-55 0 -88 27t-33 76q0 75 83 140q-78 3 -139 36.5t-95.5 91t-34.5 128.5v504h85v-490q0 -53 25.5 -95t70.5 -66
t102 -24t102.5 24t71 66t25.5 95v490h85z" />
    <glyph glyph-name="Uring" unicode="&#x16e;" horiz-adv-x="739" 
d="M223.5 23q-64.5 33 -101 91.5t-36.5 131.5v504h85v-490q0 -53 25.5 -95t70.5 -66t102 -24t102.5 24t71 66t25.5 95v490h85v-504q0 -73 -36.5 -131.5t-101.5 -91.5t-146 -33t-145.5 33zM294.5 848q-31.5 31 -31.5 74t31 74t75 31q43 0 73.5 -31t30.5 -74t-30.5 -74
t-73.5 -31t-74.5 31zM411.5 878.5q17.5 17.5 17.5 43.5q0 25 -17.5 43.5t-42.5 18.5t-42.5 -18.5t-17.5 -43.5q0 -26 17 -43.5t43 -17.5q25 0 42.5 17.5z" />
    <glyph glyph-name="Utilde" unicode="&#x168;" horiz-adv-x="739" 
d="M223.5 23q-64.5 33 -101 91.5t-36.5 131.5v504h85v-490q0 -53 25.5 -95t70.5 -66t102 -24t102.5 24t71 66t25.5 95v490h85v-504q0 -73 -36.5 -131.5t-101.5 -91.5t-146 -33t-145.5 33zM343 856q-18 27 -40 27q-23 0 -35.5 -22t-12.5 -56h-61q0 60 29 99t78 39
q54 0 92 -55q9 -13 18 -20t24 -7q23 0 35 19.5t12 58.5h60q0 -60 -28 -99t-79 -39q-55 0 -92 55z" />
    <glyph glyph-name="V" unicode="V" horiz-adv-x="634" 
d="M541 750h94l-316 -766h-4l-316 766h94l224 -555z" />
    <glyph glyph-name="W" unicode="W" horiz-adv-x="920" 
d="M829 750h92l-316 -766h-4l-141 342l-141 -342h-4l-316 766h92l229 -558l97 239l-132 319h89l86 -212l86 212h89l-131 -319l97 -239z" />
    <glyph glyph-name="Wacute" unicode="&#x1e82;" horiz-adv-x="920" 
d="M829 750h92l-316 -766h-4l-141 342l-141 -342h-4l-316 766h92l229 -558l97 239l-132 319h89l86 -212l86 212h89l-131 -319l97 -239zM440 808l-32 35l148 159l47 -53z" />
    <glyph glyph-name="Wcircumflex" unicode="&#x174;" horiz-adv-x="920" 
d="M829 750h92l-316 -766h-4l-141 342l-141 -342h-4l-316 766h92l229 -558l97 239l-132 319h89l86 -212l86 212h89l-131 -319l97 -239zM360 810l-41 25l98 145h84l99 -145l-42 -25l-98 116z" />
    <glyph glyph-name="Wdieresis" unicode="&#x1e84;" horiz-adv-x="920" 
d="M829 750h92l-316 -766h-4l-141 342l-141 -342h-4l-316 766h92l229 -558l97 239l-132 319h89l86 -212l86 212h89l-131 -319l97 -239zM328.5 853.5q-16.5 16.5 -16.5 38.5q0 24 16.5 40t39.5 16t39.5 -16t16.5 -40q0 -22 -16.5 -38.5t-39.5 -16.5t-39.5 16.5zM512.5 853.5
q-16.5 16.5 -16.5 38.5q0 24 16.5 40t39.5 16t39.5 -16t16.5 -40q0 -23 -16.5 -39t-39.5 -16t-39.5 16.5z" />
    <glyph glyph-name="Wgrave" unicode="&#x1e80;" horiz-adv-x="920" 
d="M829 750h92l-316 -766h-4l-141 342l-141 -342h-4l-316 766h92l229 -558l97 239l-132 319h89l86 -212l86 212h89l-131 -319l97 -239zM461 808l-164 141l48 53l147 -159z" />
    <glyph glyph-name="X" unicode="X" horiz-adv-x="604" 
d="M604 0h-103l-199 310l-199 -310h-103l256 380l-249 370h102l193 -299l193 299h102l-249 -369z" />
    <glyph glyph-name="Y" unicode="Y" horiz-adv-x="608" 
d="M608 750l-261 -395v-355h-85v354l-262 396h106l199 -307l199 307h104z" />
    <glyph glyph-name="Yacute" unicode="&#xdd;" horiz-adv-x="608" 
d="M608 750l-261 -395v-355h-85v354l-262 396h106l199 -307l199 307h104zM285 808l-32 35l148 159l47 -53z" />
    <glyph glyph-name="Ycircumflex" unicode="&#x176;" horiz-adv-x="608" 
d="M608 750l-261 -395v-355h-85v354l-262 396h106l199 -307l199 307h104zM205 810l-41 25l98 145h84l99 -145l-42 -25l-98 116z" />
    <glyph glyph-name="Ydieresis" unicode="&#x178;" horiz-adv-x="608" 
d="M608 750l-261 -395v-355h-85v354l-262 396h106l199 -307l199 307h104zM173.5 853.5q-16.5 16.5 -16.5 38.5q0 24 16.5 40t39.5 16t39.5 -16t16.5 -40q0 -22 -16.5 -38.5t-39.5 -16.5t-39.5 16.5zM357.5 853.5q-16.5 16.5 -16.5 38.5q0 24 16.5 40t39.5 16t39.5 -16
t16.5 -40q0 -23 -16.5 -39t-39.5 -16t-39.5 16.5z" />
    <glyph glyph-name="uni1EF4" unicode="&#x1ef4;" horiz-adv-x="608" 
d="M608 750l-261 -395v-355h-85v354l-262 396h106l199 -307l199 307h104zM265.5 -164.5q-16.5 16.5 -16.5 39.5q0 22 16.5 39t39.5 17q22 0 39 -17t17 -39q0 -23 -16.5 -39.5t-39.5 -16.5t-39.5 16.5z" />
    <glyph glyph-name="Ygrave" unicode="&#x1ef2;" horiz-adv-x="608" 
d="M608 750l-261 -395v-355h-85v354l-262 396h106l199 -307l199 307h104zM306 808l-164 141l48 53l147 -159z" />
    <glyph glyph-name="uni1EF6" unicode="&#x1ef6;" horiz-adv-x="608" 
d="M608 750l-261 -395v-355h-85v354l-262 396h106l199 -307l199 307h104zM278 874q70 15 70 63q0 19 -13.5 32t-35.5 13q-27 0 -52 -17l-32 45q38 30 82 30q46 0 78 -29t32 -74q0 -32 -19.5 -57.5t-56.5 -36.5v-44h-53v75z" />
    <glyph glyph-name="uni1EF8" unicode="&#x1ef8;" horiz-adv-x="608" 
d="M608 750l-261 -395v-355h-85v354l-262 396h106l199 -307l199 307h104zM279 856q-18 27 -40 27q-23 0 -35.5 -22t-12.5 -56h-61q0 60 29 99t78 39q54 0 92 -55q9 -13 18 -20t24 -7q23 0 35 19.5t12 58.5h60q0 -60 -28 -99t-79 -39q-55 0 -92 55z" />
    <glyph glyph-name="Z" unicode="Z" horiz-adv-x="676" 
d="M184 85h447v-85h-598v15l443 650h-412v85h563v-15z" />
    <glyph glyph-name="Zacute" unicode="&#x179;" horiz-adv-x="676" 
d="M184 85h447v-85h-598v15l443 650h-412v85h563v-15zM321 808l-32 35l148 159l47 -53z" />
    <glyph glyph-name="Zcaron" unicode="&#x17d;" horiz-adv-x="676" 
d="M184 85h447v-85h-598v15l443 650h-412v85h563v-15zM298 829l-98 145l43 26l98 -117l97 117l43 -26l-99 -145h-84z" />
    <glyph glyph-name="Zdotaccent" unicode="&#x17b;" horiz-adv-x="676" 
d="M184 85h447v-85h-598v15l443 650h-412v85h563v-15zM301.5 849.5q-16.5 16.5 -16.5 38.5q0 24 16.5 40t39.5 16t39.5 -16t16.5 -40q0 -22 -16.5 -38.5t-39.5 -16.5t-39.5 16.5z" />
    <glyph glyph-name="Lcaron.ss01" horiz-adv-x="468" 
d="M181 85h277v-85h-362v750h85v-665zM376 444h-61l49 306h94z" />
    <glyph glyph-name="Lcaron.ss02" horiz-adv-x="468" 
d="M181 85h277v-85h-362v750h85v-665zM376 444h-61l49 306h94z" />
    <glyph glyph-name="a" unicode="a" 
d="M536 470v-470h-82v67q-31 -36 -75.5 -56t-98.5 -20q-62 0 -116 33t-86.5 89t-32.5 122t32.5 122t86.5 89t116 33q54 0 98.5 -20t75.5 -56v67h82zM373.5 93q37.5 22 59 59.5t21.5 82.5t-21.5 82.5t-59 59.5t-82.5 22t-82.5 -22t-59.5 -59.5t-22 -82.5t22 -82.5t59.5 -59.5
t82.5 -22t82.5 22z" />
    <glyph glyph-name="aacute" unicode="&#xe1;" 
d="M536 470v-470h-82v67q-31 -36 -75.5 -56t-98.5 -20q-62 0 -116 33t-86.5 89t-32.5 122t32.5 122t86.5 89t116 33q54 0 98.5 -20t75.5 -56v67h82zM373.5 93q37.5 22 59 59.5t21.5 82.5t-21.5 82.5t-59 59.5t-82.5 22t-82.5 -22t-59.5 -59.5t-22 -82.5t22 -82.5t59.5 -59.5
t82.5 -22t82.5 22zM270 528l-32 35l148 159l47 -53z" />
    <glyph glyph-name="abreve" unicode="&#x103;" 
d="M536 470v-470h-82v67q-31 -36 -75.5 -56t-98.5 -20q-62 0 -116 33t-86.5 89t-32.5 122t32.5 122t86.5 89t116 33q54 0 98.5 -20t75.5 -56v67h82zM373.5 93q37.5 22 59 59.5t21.5 82.5t-21.5 82.5t-59 59.5t-82.5 22t-82.5 -22t-59.5 -59.5t-22 -82.5t22 -82.5t59.5 -59.5
t82.5 -22t82.5 22zM170.5 598q-46.5 42 -46.5 112h51q0 -43 32.5 -72.5t81.5 -29.5q50 0 82.5 29.5t32.5 72.5h51q0 -70 -46.5 -112t-119.5 -42q-72 0 -118.5 42z" />
    <glyph glyph-name="uni1EAF" unicode="&#x1eaf;" 
d="M536 470v-470h-82v67q-31 -36 -75.5 -56t-98.5 -20q-62 0 -116 33t-86.5 89t-32.5 122t32.5 122t86.5 89t116 33q54 0 98.5 -20t75.5 -56v67h82zM373.5 93q37.5 22 59 59.5t21.5 82.5t-21.5 82.5t-59 59.5t-82.5 22t-82.5 -22t-59.5 -59.5t-22 -82.5t22 -82.5t59.5 -59.5
t82.5 -22t82.5 22zM170.5 598q-46.5 42 -46.5 112h51q0 -43 32.5 -72.5t81.5 -29.5q50 0 82.5 29.5t32.5 72.5h51q0 -70 -46.5 -112t-119.5 -42q-72 0 -118.5 42zM270 753l-32 35l148 159l47 -53z" />
    <glyph glyph-name="uni1EB7" unicode="&#x1eb7;" 
d="M536 470v-470h-82v67q-31 -36 -75.5 -56t-98.5 -20q-62 0 -116 33t-86.5 89t-32.5 122t32.5 122t86.5 89t116 33q54 0 98.5 -20t75.5 -56v67h82zM373.5 93q37.5 22 59 59.5t21.5 82.5t-21.5 82.5t-59 59.5t-82.5 22t-82.5 -22t-59.5 -59.5t-22 -82.5t22 -82.5t59.5 -59.5
t82.5 -22t82.5 22zM273.5 -164.5q-16.5 16.5 -16.5 39.5q0 22 16.5 39t39.5 17q22 0 39 -17t17 -39q0 -23 -16.5 -39.5t-39.5 -16.5t-39.5 16.5zM170.5 598q-46.5 42 -46.5 112h51q0 -43 32.5 -72.5t81.5 -29.5q50 0 82.5 29.5t32.5 72.5h51q0 -70 -46.5 -112t-119.5 -42
q-72 0 -118.5 42z" />
    <glyph glyph-name="uni1EB1" unicode="&#x1eb1;" 
d="M536 470v-470h-82v67q-31 -36 -75.5 -56t-98.5 -20q-62 0 -116 33t-86.5 89t-32.5 122t32.5 122t86.5 89t116 33q54 0 98.5 -20t75.5 -56v67h82zM373.5 93q37.5 22 59 59.5t21.5 82.5t-21.5 82.5t-59 59.5t-82.5 22t-82.5 -22t-59.5 -59.5t-22 -82.5t22 -82.5t59.5 -59.5
t82.5 -22t82.5 22zM170.5 598q-46.5 42 -46.5 112h51q0 -43 32.5 -72.5t81.5 -29.5q50 0 82.5 29.5t32.5 72.5h51q0 -70 -46.5 -112t-119.5 -42q-72 0 -118.5 42zM291 753l-164 141l48 53l147 -159z" />
    <glyph glyph-name="uni1EB3" unicode="&#x1eb3;" 
d="M536 470v-470h-82v67q-31 -36 -75.5 -56t-98.5 -20q-62 0 -116 33t-86.5 89t-32.5 122t32.5 122t86.5 89t116 33q54 0 98.5 -20t75.5 -56v67h82zM373.5 93q37.5 22 59 59.5t21.5 82.5t-21.5 82.5t-59 59.5t-82.5 22t-82.5 -22t-59.5 -59.5t-22 -82.5t22 -82.5t59.5 -59.5
t82.5 -22t82.5 22zM170.5 598q-46.5 42 -46.5 112h51q0 -43 32.5 -72.5t81.5 -29.5q50 0 82.5 29.5t32.5 72.5h51q0 -70 -46.5 -112t-119.5 -42q-72 0 -118.5 42zM263 819q70 15 70 63q0 19 -13.5 32t-35.5 13q-27 0 -52 -17l-32 45q38 30 82 30q46 0 78 -29t32 -74
q0 -32 -19.5 -57.5t-56.5 -36.5v-44h-53v75z" />
    <glyph glyph-name="uni1EB5" unicode="&#x1eb5;" 
d="M536 470v-470h-82v67q-31 -36 -75.5 -56t-98.5 -20q-62 0 -116 33t-86.5 89t-32.5 122t32.5 122t86.5 89t116 33q54 0 98.5 -20t75.5 -56v67h82zM373.5 93q37.5 22 59 59.5t21.5 82.5t-21.5 82.5t-59 59.5t-82.5 22t-82.5 -22t-59.5 -59.5t-22 -82.5t22 -82.5t59.5 -59.5
t82.5 -22t82.5 22zM170.5 598q-46.5 42 -46.5 112h51q0 -43 32.5 -72.5t81.5 -29.5q50 0 82.5 29.5t32.5 72.5h51q0 -70 -46.5 -112t-119.5 -42q-72 0 -118.5 42zM264 801q-18 27 -40 27q-23 0 -35.5 -22t-12.5 -56h-61q0 60 29 99t78 39q54 0 92 -55q9 -13 18 -20t24 -7
q23 0 35 19.5t12 58.5h60q0 -60 -28 -99t-79 -39q-55 0 -92 55z" />
    <glyph glyph-name="uni01CE" unicode="&#x1ce;" 
d="M536 470v-470h-82v67q-31 -36 -75.5 -56t-98.5 -20q-62 0 -116 33t-86.5 89t-32.5 122t32.5 122t86.5 89t116 33q54 0 98.5 -20t75.5 -56v67h82zM373.5 93q37.5 22 59 59.5t21.5 82.5t-21.5 82.5t-59 59.5t-82.5 22t-82.5 -22t-59.5 -59.5t-22 -82.5t22 -82.5t59.5 -59.5
t82.5 -22t82.5 22zM247 549l-98 145l43 26l98 -117l97 117l43 -26l-99 -145h-84z" />
    <glyph glyph-name="acircumflex" unicode="&#xe2;" 
d="M536 470v-470h-82v67q-31 -36 -75.5 -56t-98.5 -20q-62 0 -116 33t-86.5 89t-32.5 122t32.5 122t86.5 89t116 33q54 0 98.5 -20t75.5 -56v67h82zM373.5 93q37.5 22 59 59.5t21.5 82.5t-21.5 82.5t-59 59.5t-82.5 22t-82.5 -22t-59.5 -59.5t-22 -82.5t22 -82.5t59.5 -59.5
t82.5 -22t82.5 22zM190 530l-41 25l98 145h84l99 -145l-42 -25l-98 116z" />
    <glyph glyph-name="uni1EA5" unicode="&#x1ea5;" 
d="M536 470v-470h-82v67q-31 -36 -75.5 -56t-98.5 -20q-62 0 -116 33t-86.5 89t-32.5 122t32.5 122t86.5 89t116 33q54 0 98.5 -20t75.5 -56v67h82zM373.5 93q37.5 22 59 59.5t21.5 82.5t-21.5 82.5t-59 59.5t-82.5 22t-82.5 -22t-59.5 -59.5t-22 -82.5t22 -82.5t59.5 -59.5
t82.5 -22t82.5 22zM190 530l-41 25l98 145h84l99 -145l-42 -25l-98 116zM269 758l-32 35l148 159l47 -53z" />
    <glyph glyph-name="uni1EAD" unicode="&#x1ead;" 
d="M536 470v-470h-82v67q-31 -36 -75.5 -56t-98.5 -20q-62 0 -116 33t-86.5 89t-32.5 122t32.5 122t86.5 89t116 33q54 0 98.5 -20t75.5 -56v67h82zM373.5 93q37.5 22 59 59.5t21.5 82.5t-21.5 82.5t-59 59.5t-82.5 22t-82.5 -22t-59.5 -59.5t-22 -82.5t22 -82.5t59.5 -59.5
t82.5 -22t82.5 22zM273.5 -164.5q-16.5 16.5 -16.5 39.5q0 22 16.5 39t39.5 17q22 0 39 -17t17 -39q0 -23 -16.5 -39.5t-39.5 -16.5t-39.5 16.5zM190 530l-41 25l98 145h84l99 -145l-42 -25l-98 116z" />
    <glyph glyph-name="uni1EA7" unicode="&#x1ea7;" 
d="M536 470v-470h-82v67q-31 -36 -75.5 -56t-98.5 -20q-62 0 -116 33t-86.5 89t-32.5 122t32.5 122t86.5 89t116 33q54 0 98.5 -20t75.5 -56v67h82zM373.5 93q37.5 22 59 59.5t21.5 82.5t-21.5 82.5t-59 59.5t-82.5 22t-82.5 -22t-59.5 -59.5t-22 -82.5t22 -82.5t59.5 -59.5
t82.5 -22t82.5 22zM190 530l-41 25l98 145h84l99 -145l-42 -25l-98 116zM290 758l-164 141l48 53l147 -159z" />
    <glyph glyph-name="uni1EA9" unicode="&#x1ea9;" 
d="M536 470v-470h-82v67q-31 -36 -75.5 -56t-98.5 -20q-62 0 -116 33t-86.5 89t-32.5 122t32.5 122t86.5 89t116 33q54 0 98.5 -20t75.5 -56v67h82zM373.5 93q37.5 22 59 59.5t21.5 82.5t-21.5 82.5t-59 59.5t-82.5 22t-82.5 -22t-59.5 -59.5t-22 -82.5t22 -82.5t59.5 -59.5
t82.5 -22t82.5 22zM190 530l-41 25l98 145h84l99 -145l-42 -25l-98 116zM262 824q70 15 70 63q0 19 -13.5 32t-35.5 13q-27 0 -52 -17l-32 45q38 30 82 30q46 0 78 -29t32 -74q0 -32 -19.5 -57.5t-56.5 -36.5v-44h-53v75z" />
    <glyph glyph-name="uni1EAB" unicode="&#x1eab;" 
d="M536 470v-470h-82v67q-31 -36 -75.5 -56t-98.5 -20q-62 0 -116 33t-86.5 89t-32.5 122t32.5 122t86.5 89t116 33q54 0 98.5 -20t75.5 -56v67h82zM373.5 93q37.5 22 59 59.5t21.5 82.5t-21.5 82.5t-59 59.5t-82.5 22t-82.5 -22t-59.5 -59.5t-22 -82.5t22 -82.5t59.5 -59.5
t82.5 -22t82.5 22zM190 530l-41 25l98 145h84l99 -145l-42 -25l-98 116zM263 806q-18 27 -40 27q-23 0 -35.5 -22t-12.5 -56h-61q0 60 29 99t78 39q54 0 92 -55q9 -13 18 -20t24 -7q23 0 35 19.5t12 58.5h60q0 -60 -28 -99t-79 -39q-55 0 -92 55z" />
    <glyph glyph-name="adieresis" unicode="&#xe4;" 
d="M536 470v-470h-82v67q-31 -36 -75.5 -56t-98.5 -20q-62 0 -116 33t-86.5 89t-32.5 122t32.5 122t86.5 89t116 33q54 0 98.5 -20t75.5 -56v67h82zM373.5 93q37.5 22 59 59.5t21.5 82.5t-21.5 82.5t-59 59.5t-82.5 22t-82.5 -22t-59.5 -59.5t-22 -82.5t22 -82.5t59.5 -59.5
t82.5 -22t82.5 22zM158.5 573.5q-16.5 16.5 -16.5 38.5q0 24 16.5 40t39.5 16t39.5 -16t16.5 -40q0 -22 -16.5 -38.5t-39.5 -16.5t-39.5 16.5zM342.5 573.5q-16.5 16.5 -16.5 38.5q0 24 16.5 40t39.5 16t39.5 -16t16.5 -40q0 -23 -16.5 -39t-39.5 -16t-39.5 16.5z" />
    <glyph glyph-name="uni1EA1" unicode="&#x1ea1;" 
d="M536 470v-470h-82v67q-31 -36 -75.5 -56t-98.5 -20q-62 0 -116 33t-86.5 89t-32.5 122t32.5 122t86.5 89t116 33q54 0 98.5 -20t75.5 -56v67h82zM373.5 93q37.5 22 59 59.5t21.5 82.5t-21.5 82.5t-59 59.5t-82.5 22t-82.5 -22t-59.5 -59.5t-22 -82.5t22 -82.5t59.5 -59.5
t82.5 -22t82.5 22zM273.5 -164.5q-16.5 16.5 -16.5 39.5q0 22 16.5 39t39.5 17q22 0 39 -17t17 -39q0 -23 -16.5 -39.5t-39.5 -16.5t-39.5 16.5z" />
    <glyph glyph-name="agrave" unicode="&#xe0;" 
d="M536 470v-470h-82v67q-31 -36 -75.5 -56t-98.5 -20q-62 0 -116 33t-86.5 89t-32.5 122t32.5 122t86.5 89t116 33q54 0 98.5 -20t75.5 -56v67h82zM373.5 93q37.5 22 59 59.5t21.5 82.5t-21.5 82.5t-59 59.5t-82.5 22t-82.5 -22t-59.5 -59.5t-22 -82.5t22 -82.5t59.5 -59.5
t82.5 -22t82.5 22zM291 528l-164 141l48 53l147 -159z" />
    <glyph glyph-name="uni1EA3" unicode="&#x1ea3;" 
d="M536 470v-470h-82v67q-31 -36 -75.5 -56t-98.5 -20q-62 0 -116 33t-86.5 89t-32.5 122t32.5 122t86.5 89t116 33q54 0 98.5 -20t75.5 -56v67h82zM373.5 93q37.5 22 59 59.5t21.5 82.5t-21.5 82.5t-59 59.5t-82.5 22t-82.5 -22t-59.5 -59.5t-22 -82.5t22 -82.5t59.5 -59.5
t82.5 -22t82.5 22zM263 594q70 15 70 63q0 19 -13.5 32t-35.5 13q-27 0 -52 -17l-32 45q38 30 82 30q46 0 78 -29t32 -74q0 -32 -19.5 -57.5t-56.5 -36.5v-44h-53v75z" />
    <glyph glyph-name="amacron" unicode="&#x101;" 
d="M536 470v-470h-82v67q-31 -36 -75.5 -56t-98.5 -20q-62 0 -116 33t-86.5 89t-32.5 122t32.5 122t86.5 89t116 33q54 0 98.5 -20t75.5 -56v67h82zM373.5 93q37.5 22 59 59.5t21.5 82.5t-21.5 82.5t-59 59.5t-82.5 22t-82.5 -22t-59.5 -59.5t-22 -82.5t22 -82.5t59.5 -59.5
t82.5 -22t82.5 22zM135 572v56h310v-56h-310z" />
    <glyph glyph-name="aogonek" unicode="&#x105;" 
d="M596 -208q-51 -51 -126 -51q-55 0 -88 27t-33 76q0 85 105 156v67q-31 -36 -75.5 -56t-98.5 -20q-62 0 -116 33t-86.5 89t-32.5 122t32.5 122t86.5 89t116 33q54 0 98.5 -20t75.5 -56v67h82v-470q-56 -23 -92.5 -59.5t-36.5 -77.5q0 -27 16 -40.5t42 -13.5q23 0 48 10.5
t43 28.5zM373.5 93q37.5 22 59 59.5t21.5 82.5t-21.5 82.5t-59 59.5t-82.5 22t-82.5 -22t-59.5 -59.5t-22 -82.5t22 -82.5t59.5 -59.5t82.5 -22t82.5 22z" />
    <glyph glyph-name="aring" unicode="&#xe5;" 
d="M536 470v-470h-82v67q-31 -36 -75.5 -56t-98.5 -20q-62 0 -116 33t-86.5 89t-32.5 122t32.5 122t86.5 89t116 33q54 0 98.5 -20t75.5 -56v67h82zM373.5 93q37.5 22 59 59.5t21.5 82.5t-21.5 82.5t-59 59.5t-82.5 22t-82.5 -22t-59.5 -59.5t-22 -82.5t22 -82.5t59.5 -59.5
t82.5 -22t82.5 22zM215.5 568q-31.5 31 -31.5 74t31 74t75 31q43 0 73.5 -31t30.5 -74t-30.5 -74t-73.5 -31t-74.5 31zM332.5 598.5q17.5 17.5 17.5 43.5q0 25 -17.5 43.5t-42.5 18.5t-42.5 -18.5t-17.5 -43.5q0 -26 17 -43.5t43 -17.5q25 0 42.5 17.5z" />
    <glyph glyph-name="atilde" unicode="&#xe3;" 
d="M536 470v-470h-82v67q-31 -36 -75.5 -56t-98.5 -20q-62 0 -116 33t-86.5 89t-32.5 122t32.5 122t86.5 89t116 33q54 0 98.5 -20t75.5 -56v67h82zM373.5 93q37.5 22 59 59.5t21.5 82.5t-21.5 82.5t-59 59.5t-82.5 22t-82.5 -22t-59.5 -59.5t-22 -82.5t22 -82.5t59.5 -59.5
t82.5 -22t82.5 22zM264 576q-18 27 -40 27q-23 0 -35.5 -22t-12.5 -56h-61q0 60 29 99t78 39q54 0 92 -55q9 -13 18 -20t24 -7q23 0 35 19.5t12 58.5h60q0 -60 -28 -99t-79 -39q-55 0 -92 55z" />
    <glyph glyph-name="ae" unicode="&#xe6;" horiz-adv-x="905" 
d="M859 224h-411q2 -44 25.5 -80.5t61 -57.5t81.5 -21t82 21t61 58l69 -28q-31 -58 -87 -91.5t-124 -33.5q-60 0 -111 25.5t-85 69.5q-47 -45 -101 -70t-105 -25q-75 0 -122.5 41.5t-47.5 108.5q0 69 50.5 108.5t136.5 39.5h131v18q0 46 -31 76t-79 30q-38 0 -68 -19
t-39 -49l-80 26q18 48 70 78t118 30q58 0 103.5 -24t68.5 -65q35 41 84 65t106 24q66 0 121.5 -31.5t88 -86t34.5 -121.5zM517 373.5q-43 -31.5 -60 -83.5h316q-16 51 -59 83t-98 32q-56 0 -99 -31.5zM302.5 88q44.5 25 81.5 67q-11 30 -12 62h-137q-51 0 -79.5 -20
t-28.5 -58q0 -35 24.5 -55.5t66.5 -20.5q40 0 84.5 25z" />
    <glyph glyph-name="b" unicode="b" 
d="M442 446q54 -33 86.5 -89t32.5 -122t-32.5 -122t-86.5 -89t-116 -33q-54 0 -98.5 20t-75.5 56v-67h-82v750h82v-347q31 36 75.5 56t98.5 20q62 0 116 -33zM397.5 93q37.5 22 59.5 59.5t22 82.5t-22 82.5t-59.5 59.5t-82.5 22t-82.5 -22t-59 -59.5t-21.5 -82.5t21.5 -82.5
t59 -59.5t82.5 -22t82.5 22z" />
    <glyph glyph-name="c" unicode="c" horiz-adv-x="546" 
d="M167.5 23.5q-56.5 32.5 -89.5 88.5t-33 123t33 123t89.5 88.5t123.5 32.5q74 0 134 -39t89 -103l-75 -34q-20 44 -59 70t-89 26q-46 0 -83.5 -21.5t-59 -59t-21.5 -83.5t21.5 -83.5t59 -59t83.5 -21.5q50 0 89 26t59 70l75 -34q-29 -64 -89 -103t-134 -39
q-67 0 -123.5 32.5z" />
    <glyph glyph-name="cacute" unicode="&#x107;" horiz-adv-x="546" 
d="M167.5 23.5q-56.5 32.5 -89.5 88.5t-33 123t33 123t89.5 88.5t123.5 32.5q74 0 134 -39t89 -103l-75 -34q-20 44 -59 70t-89 26q-46 0 -83.5 -21.5t-59 -59t-21.5 -83.5t21.5 -83.5t59 -59t83.5 -21.5q50 0 89 26t59 70l75 -34q-29 -64 -89 -103t-134 -39
q-67 0 -123.5 32.5zM271 528l-32 35l148 159l47 -53z" />
    <glyph glyph-name="ccaron" unicode="&#x10d;" horiz-adv-x="546" 
d="M167.5 23.5q-56.5 32.5 -89.5 88.5t-33 123t33 123t89.5 88.5t123.5 32.5q74 0 134 -39t89 -103l-75 -34q-20 44 -59 70t-89 26q-46 0 -83.5 -21.5t-59 -59t-21.5 -83.5t21.5 -83.5t59 -59t83.5 -21.5q50 0 89 26t59 70l75 -34q-29 -64 -89 -103t-134 -39
q-67 0 -123.5 32.5zM248 549l-98 145l43 26l98 -117l97 117l43 -26l-99 -145h-84z" />
    <glyph glyph-name="ccedilla" unicode="&#xe7;" horiz-adv-x="546" 
d="M380 97q39 26 59 70l75 -34q-26 -60 -79.5 -97.5t-121.5 -43.5l-27 -58q13 3 26 3q42 0 69.5 -26t27.5 -67q0 -44 -30 -74t-73 -30q-35 0 -68.5 19t-47.5 47l45 18q10 -15 31 -25t40 -10q23 0 38.5 16t15.5 39q0 24 -15.5 38t-40.5 14q-19 0 -41 -9l-39 25l40 80
q-61 6 -111 40t-79 87.5t-29 115.5q0 67 33 123t89.5 88.5t123.5 32.5q74 0 134 -39t89 -103l-75 -34q-20 44 -59 70t-89 26q-46 0 -83.5 -21.5t-59 -59t-21.5 -83.5t21.5 -83.5t59 -59t83.5 -21.5q50 0 89 26z" />
    <glyph glyph-name="cdotaccent" unicode="&#x10b;" horiz-adv-x="546" 
d="M167.5 23.5q-56.5 32.5 -89.5 88.5t-33 123t33 123t89.5 88.5t123.5 32.5q74 0 134 -39t89 -103l-75 -34q-20 44 -59 70t-89 26q-46 0 -83.5 -21.5t-59 -59t-21.5 -83.5t21.5 -83.5t59 -59t83.5 -21.5q50 0 89 26t59 70l75 -34q-29 -64 -89 -103t-134 -39
q-67 0 -123.5 32.5zM251.5 569.5q-16.5 16.5 -16.5 38.5q0 24 16.5 40t39.5 16t39.5 -16t16.5 -40q0 -22 -16.5 -38.5t-39.5 -16.5t-39.5 16.5z" />
    <glyph glyph-name="d" unicode="d" 
d="M536 750v-750h-82v67q-31 -36 -75.5 -56t-98.5 -20q-62 0 -116 33t-86.5 89t-32.5 122t32.5 122t86.5 89t116 33q54 0 98.5 -20t75.5 -56v347h82zM373.5 93q37.5 22 59 59.5t21.5 82.5t-21.5 82.5t-59 59.5t-82.5 22t-82.5 -22t-59.5 -59.5t-22 -82.5t22 -82.5
t59.5 -59.5t82.5 -22t82.5 22z" />
    <glyph glyph-name="eth" unicode="&#xf0;" horiz-adv-x="594" 
d="M550 226q0 -70 -33.5 -123.5t-91 -82.5t-127.5 -29q-69 0 -127 33t-92 89t-34 122t34 122t92 89t127 33q41 0 80 -13.5t71 -38.5q-35 107 -109 167l-52 -66l-38 29l51 64q-64 35 -141 37l13 60q90 0 167 -48l43 54l36 -28l-42 -53q80 -66 126.5 -175t46.5 -241v-1z
M384 85q39 23 62 63t23 87t-23 87t-62 63t-86 23q-48 0 -87.5 -23t-62.5 -63t-23 -87t23 -87t62.5 -63t87.5 -23q47 0 86 23z" />
    <glyph glyph-name="dcaron" unicode="&#x10f;" horiz-adv-x="708" 
d="M713 683l-71 -209h-61l54 181q-14 7 -22 20t-8 29q0 23 17 39.5t39 16.5q23 0 39.5 -16.5t16.5 -39.5q0 -5 -2 -15zM454 750h82v-750h-82v67q-31 -36 -75.5 -56t-98.5 -20q-62 0 -116 33t-86.5 89t-32.5 122t32.5 122t86.5 89t116 33q54 0 98.5 -20t75.5 -56v347z
M373.5 93q37.5 22 59 59.5t21.5 82.5t-21.5 82.5t-59 59.5t-82.5 22t-82.5 -22t-59.5 -59.5t-22 -82.5t22 -82.5t59.5 -59.5t82.5 -22t82.5 22z" />
    <glyph glyph-name="dcroat" unicode="&#x111;" 
d="M603 579h-67v-579h-82v67q-31 -36 -75.5 -56t-98.5 -20q-62 0 -116 33t-86.5 89t-32.5 122t32.5 122t86.5 89t116 33q54 0 98.5 -20t75.5 -56v176h-145v58h145v113h82v-113h67v-58zM373.5 93q37.5 22 59 59.5t21.5 82.5t-21.5 82.5t-59 59.5t-82.5 22t-82.5 -22
t-59.5 -59.5t-22 -82.5t22 -82.5t59.5 -59.5t82.5 -22t82.5 22z" />
    <glyph glyph-name="e" unicode="e" horiz-adv-x="579" 
d="M533 224h-411q2 -44 25.5 -80.5t61 -57.5t81.5 -21t82 21t61 58l69 -28q-31 -58 -87 -91.5t-124 -33.5t-124.5 32.5t-89 88.5t-32.5 123t32.5 123t89 88.5t123.5 32.5q66 0 121.5 -31.5t88 -86t34.5 -121.5zM191 373.5q-43 -31.5 -60 -83.5h316q-16 51 -59 83t-98 32
q-56 0 -99 -31.5z" />
    <glyph glyph-name="eacute" unicode="&#xe9;" horiz-adv-x="579" 
d="M533 224h-411q2 -44 25.5 -80.5t61 -57.5t81.5 -21t82 21t61 58l69 -28q-31 -58 -87 -91.5t-124 -33.5t-124.5 32.5t-89 88.5t-32.5 123t32.5 123t89 88.5t123.5 32.5q66 0 121.5 -31.5t88 -86t34.5 -121.5zM191 373.5q-43 -31.5 -60 -83.5h316q-16 51 -59 83t-98 32
q-56 0 -99 -31.5zM275 533l-32 35l148 159l47 -53z" />
    <glyph glyph-name="ecaron" unicode="&#x11b;" horiz-adv-x="579" 
d="M533 224h-411q2 -44 25.5 -80.5t61 -57.5t81.5 -21t82 21t61 58l69 -28q-31 -58 -87 -91.5t-124 -33.5t-124.5 32.5t-89 88.5t-32.5 123t32.5 123t89 88.5t123.5 32.5q66 0 121.5 -31.5t88 -86t34.5 -121.5zM191 373.5q-43 -31.5 -60 -83.5h316q-16 51 -59 83t-98 32
q-56 0 -99 -31.5zM252 554l-98 145l43 26l98 -117l97 117l43 -26l-99 -145h-84z" />
    <glyph glyph-name="ecircumflex" unicode="&#xea;" horiz-adv-x="579" 
d="M533 224h-411q2 -44 25.5 -80.5t61 -57.5t81.5 -21t82 21t61 58l69 -28q-31 -58 -87 -91.5t-124 -33.5t-124.5 32.5t-89 88.5t-32.5 123t32.5 123t89 88.5t123.5 32.5q66 0 121.5 -31.5t88 -86t34.5 -121.5zM191 373.5q-43 -31.5 -60 -83.5h316q-16 51 -59 83t-98 32
q-56 0 -99 -31.5zM195 535l-41 25l98 145h84l99 -145l-42 -25l-98 116z" />
    <glyph glyph-name="uni1EBF" unicode="&#x1ebf;" horiz-adv-x="579" 
d="M533 224h-411q2 -44 25.5 -80.5t61 -57.5t81.5 -21t82 21t61 58l69 -28q-31 -58 -87 -91.5t-124 -33.5t-124.5 32.5t-89 88.5t-32.5 123t32.5 123t89 88.5t123.5 32.5q66 0 121.5 -31.5t88 -86t34.5 -121.5zM191 373.5q-43 -31.5 -60 -83.5h316q-16 51 -59 83t-98 32
q-56 0 -99 -31.5zM195 535l-41 25l98 145h84l99 -145l-42 -25l-98 116zM274 763l-32 35l148 159l47 -53z" />
    <glyph glyph-name="uni1EC7" unicode="&#x1ec7;" horiz-adv-x="579" 
d="M533 224h-411q2 -44 25.5 -80.5t61 -57.5t81.5 -21t82 21t61 58l69 -28q-31 -58 -87 -91.5t-124 -33.5t-124.5 32.5t-89 88.5t-32.5 123t32.5 123t89 88.5t123.5 32.5q66 0 121.5 -31.5t88 -86t34.5 -121.5zM191 373.5q-43 -31.5 -60 -83.5h316q-16 51 -59 83t-98 32
q-56 0 -99 -31.5zM256.5 -164.5q-16.5 16.5 -16.5 39.5q0 22 16.5 39t39.5 17q22 0 39 -17t17 -39q0 -23 -16.5 -39.5t-39.5 -16.5t-39.5 16.5zM195 535l-41 25l98 145h84l99 -145l-42 -25l-98 116z" />
    <glyph glyph-name="uni1EC1" unicode="&#x1ec1;" horiz-adv-x="579" 
d="M533 224h-411q2 -44 25.5 -80.5t61 -57.5t81.5 -21t82 21t61 58l69 -28q-31 -58 -87 -91.5t-124 -33.5t-124.5 32.5t-89 88.5t-32.5 123t32.5 123t89 88.5t123.5 32.5q66 0 121.5 -31.5t88 -86t34.5 -121.5zM191 373.5q-43 -31.5 -60 -83.5h316q-16 51 -59 83t-98 32
q-56 0 -99 -31.5zM195 535l-41 25l98 145h84l99 -145l-42 -25l-98 116zM295 763l-164 141l48 53l147 -159z" />
    <glyph glyph-name="uni1EC3" unicode="&#x1ec3;" horiz-adv-x="579" 
d="M533 224h-411q2 -44 25.5 -80.5t61 -57.5t81.5 -21t82 21t61 58l69 -28q-31 -58 -87 -91.5t-124 -33.5t-124.5 32.5t-89 88.5t-32.5 123t32.5 123t89 88.5t123.5 32.5q66 0 121.5 -31.5t88 -86t34.5 -121.5zM191 373.5q-43 -31.5 -60 -83.5h316q-16 51 -59 83t-98 32
q-56 0 -99 -31.5zM195 535l-41 25l98 145h84l99 -145l-42 -25l-98 116zM267 829q70 15 70 63q0 19 -13.5 32t-35.5 13q-27 0 -52 -17l-32 45q38 30 82 30q46 0 78 -29t32 -74q0 -32 -19.5 -57.5t-56.5 -36.5v-44h-53v75z" />
    <glyph glyph-name="uni1EC5" unicode="&#x1ec5;" horiz-adv-x="579" 
d="M533 224h-411q2 -44 25.5 -80.5t61 -57.5t81.5 -21t82 21t61 58l69 -28q-31 -58 -87 -91.5t-124 -33.5t-124.5 32.5t-89 88.5t-32.5 123t32.5 123t89 88.5t123.5 32.5q66 0 121.5 -31.5t88 -86t34.5 -121.5zM191 373.5q-43 -31.5 -60 -83.5h316q-16 51 -59 83t-98 32
q-56 0 -99 -31.5zM195 535l-41 25l98 145h84l99 -145l-42 -25l-98 116zM268 811q-18 27 -40 27q-23 0 -35.5 -22t-12.5 -56h-61q0 60 29 99t78 39q54 0 92 -55q9 -13 18 -20t24 -7q23 0 35 19.5t12 58.5h60q0 -60 -28 -99t-79 -39q-55 0 -92 55z" />
    <glyph glyph-name="edieresis" unicode="&#xeb;" horiz-adv-x="579" 
d="M533 224h-411q2 -44 25.5 -80.5t61 -57.5t81.5 -21t82 21t61 58l69 -28q-31 -58 -87 -91.5t-124 -33.5t-124.5 32.5t-89 88.5t-32.5 123t32.5 123t89 88.5t123.5 32.5q66 0 121.5 -31.5t88 -86t34.5 -121.5zM191 373.5q-43 -31.5 -60 -83.5h316q-16 51 -59 83t-98 32
q-56 0 -99 -31.5zM163.5 578.5q-16.5 16.5 -16.5 38.5q0 24 16.5 40t39.5 16t39.5 -16t16.5 -40q0 -22 -16.5 -38.5t-39.5 -16.5t-39.5 16.5zM347.5 578.5q-16.5 16.5 -16.5 38.5q0 24 16.5 40t39.5 16t39.5 -16t16.5 -40q0 -23 -16.5 -39t-39.5 -16t-39.5 16.5z" />
    <glyph glyph-name="edotaccent" unicode="&#x117;" horiz-adv-x="579" 
d="M533 224h-411q2 -44 25.5 -80.5t61 -57.5t81.5 -21t82 21t61 58l69 -28q-31 -58 -87 -91.5t-124 -33.5t-124.5 32.5t-89 88.5t-32.5 123t32.5 123t89 88.5t123.5 32.5q66 0 121.5 -31.5t88 -86t34.5 -121.5zM191 373.5q-43 -31.5 -60 -83.5h316q-16 51 -59 83t-98 32
q-56 0 -99 -31.5zM255.5 574.5q-16.5 16.5 -16.5 38.5q0 24 16.5 40t39.5 16t39.5 -16t16.5 -40q0 -22 -16.5 -38.5t-39.5 -16.5t-39.5 16.5z" />
    <glyph glyph-name="uni1EB9" unicode="&#x1eb9;" horiz-adv-x="579" 
d="M533 224h-411q2 -44 25.5 -80.5t61 -57.5t81.5 -21t82 21t61 58l69 -28q-31 -58 -87 -91.5t-124 -33.5t-124.5 32.5t-89 88.5t-32.5 123t32.5 123t89 88.5t123.5 32.5q66 0 121.5 -31.5t88 -86t34.5 -121.5zM191 373.5q-43 -31.5 -60 -83.5h316q-16 51 -59 83t-98 32
q-56 0 -99 -31.5zM256.5 -164.5q-16.5 16.5 -16.5 39.5q0 22 16.5 39t39.5 17q22 0 39 -17t17 -39q0 -23 -16.5 -39.5t-39.5 -16.5t-39.5 16.5z" />
    <glyph glyph-name="egrave" unicode="&#xe8;" horiz-adv-x="579" 
d="M533 224h-411q2 -44 25.5 -80.5t61 -57.5t81.5 -21t82 21t61 58l69 -28q-31 -58 -87 -91.5t-124 -33.5t-124.5 32.5t-89 88.5t-32.5 123t32.5 123t89 88.5t123.5 32.5q66 0 121.5 -31.5t88 -86t34.5 -121.5zM191 373.5q-43 -31.5 -60 -83.5h316q-16 51 -59 83t-98 32
q-56 0 -99 -31.5zM296 533l-164 141l48 53l147 -159z" />
    <glyph glyph-name="uni1EBB" unicode="&#x1ebb;" horiz-adv-x="579" 
d="M533 224h-411q2 -44 25.5 -80.5t61 -57.5t81.5 -21t82 21t61 58l69 -28q-31 -58 -87 -91.5t-124 -33.5t-124.5 32.5t-89 88.5t-32.5 123t32.5 123t89 88.5t123.5 32.5q66 0 121.5 -31.5t88 -86t34.5 -121.5zM191 373.5q-43 -31.5 -60 -83.5h316q-16 51 -59 83t-98 32
q-56 0 -99 -31.5zM268 599q70 15 70 63q0 19 -13.5 32t-35.5 13q-27 0 -52 -17l-32 45q38 30 82 30q46 0 78 -29t32 -74q0 -32 -19.5 -57.5t-56.5 -36.5v-44h-53v75z" />
    <glyph glyph-name="emacron" unicode="&#x113;" horiz-adv-x="579" 
d="M533 224h-411q2 -44 25.5 -80.5t61 -57.5t81.5 -21t82 21t61 58l69 -28q-31 -58 -87 -91.5t-124 -33.5t-124.5 32.5t-89 88.5t-32.5 123t32.5 123t89 88.5t123.5 32.5q66 0 121.5 -31.5t88 -86t34.5 -121.5zM191 373.5q-43 -31.5 -60 -83.5h316q-16 51 -59 83t-98 32
q-56 0 -99 -31.5zM140 577v56h310v-56h-310z" />
    <glyph glyph-name="eogonek" unicode="&#x119;" horiz-adv-x="579" 
d="M533 224h-411q2 -44 25.5 -80.5t61 -57.5t81.5 -21t82 21t61 58l69 -28q-22 -40 -56.5 -69.5t-77.5 -43.5q-38 -23 -61 -52.5t-23 -61.5q0 -27 16 -40.5t42 -13.5q23 0 48 10.5t43 28.5l40 -56q-51 -51 -126 -51q-55 0 -88 27t-33 76q0 65 61 121q-67 1 -122.5 34
t-87.5 88.5t-32 121.5q0 67 32.5 123t89 88.5t123.5 32.5q66 0 121.5 -31.5t88 -86t34.5 -121.5zM191 373.5q-43 -31.5 -60 -83.5h316q-16 51 -59 83t-98 32q-56 0 -99 -31.5z" />
    <glyph glyph-name="uni1EBD" unicode="&#x1ebd;" horiz-adv-x="579" 
d="M533 224h-411q2 -44 25.5 -80.5t61 -57.5t81.5 -21t82 21t61 58l69 -28q-31 -58 -87 -91.5t-124 -33.5t-124.5 32.5t-89 88.5t-32.5 123t32.5 123t89 88.5t123.5 32.5q66 0 121.5 -31.5t88 -86t34.5 -121.5zM191 373.5q-43 -31.5 -60 -83.5h316q-16 51 -59 83t-98 32
q-56 0 -99 -31.5zM269 581q-18 27 -40 27q-23 0 -35.5 -22t-12.5 -56h-61q0 60 29 99t78 39q54 0 92 -55q9 -13 18 -20t24 -7q23 0 35 19.5t12 58.5h60q0 -60 -28 -99t-79 -39q-55 0 -92 55z" />
    <glyph glyph-name="f" unicode="f" horiz-adv-x="326" 
d="M317 395h-124v-395h-82v395h-79v75h79v145q0 67 38 106.5t102 39.5q45 0 64 -14v-81q-10 8 -25 13t-29 5q-31 0 -49.5 -21.5t-18.5 -57.5v-135h124v-75z" />
    <glyph glyph-name="g" unicode="g" 
d="M536 470v-470q0 -67 -33 -123t-89.5 -88.5t-123.5 -32.5q-71 0 -130.5 37t-90.5 98l66 46q21 -45 62.5 -73t92.5 -28q44 0 81.5 22t59.5 59.5t22 82.5v61q-29 -33 -70 -51.5t-94 -18.5q-66 0 -122 33t-89 89t-33 122q0 67 33 123t89 88.5t122 32.5q53 0 94 -18.5
t70 -51.5v61h83zM372.5 93q37.5 22 59.5 60t22 82q0 45 -22 82.5t-59.5 59.5t-81.5 22q-45 0 -82.5 -22t-59.5 -59.5t-22 -82.5q0 -44 22 -82t59.5 -60t82.5 -22q44 0 81.5 22z" />
    <glyph glyph-name="gbreve" unicode="&#x11f;" 
d="M536 470v-470q0 -67 -33 -123t-89.5 -88.5t-123.5 -32.5q-71 0 -130.5 37t-90.5 98l66 46q21 -45 62.5 -73t92.5 -28q44 0 81.5 22t59.5 59.5t22 82.5v61q-29 -33 -70 -51.5t-94 -18.5q-66 0 -122 33t-89 89t-33 122q0 67 33 123t89 88.5t122 32.5q53 0 94 -18.5
t70 -51.5v61h83zM372.5 93q37.5 22 59.5 60t22 82q0 45 -22 82.5t-59.5 59.5t-81.5 22q-45 0 -82.5 -22t-59.5 -59.5t-22 -82.5q0 -44 22 -82t59.5 -60t82.5 -22q44 0 81.5 22zM171.5 598q-46.5 42 -46.5 112h51q0 -43 32.5 -72.5t81.5 -29.5q50 0 82.5 29.5t32.5 72.5h51
q0 -70 -46.5 -112t-119.5 -42q-72 0 -118.5 42z" />
    <glyph glyph-name="gcommaaccent" unicode="&#x123;" 
d="M536 470v-470q0 -67 -33 -123t-89.5 -88.5t-123.5 -32.5q-71 0 -130.5 37t-90.5 98l66 46q21 -45 62.5 -73t92.5 -28q44 0 81.5 22t59.5 59.5t22 82.5v61q-29 -33 -70 -51.5t-94 -18.5q-66 0 -122 33t-89 89t-33 122q0 67 33 123t89 88.5t122 32.5q53 0 94 -18.5
t70 -51.5v61h83zM372.5 93q37.5 22 59.5 60t22 82q0 45 -22 82.5t-59.5 59.5t-81.5 22q-45 0 -82.5 -22t-59.5 -59.5t-22 -82.5q0 -44 22 -82t59.5 -60t82.5 -22q44 0 81.5 22zM327 614q8 -13 8 -29q0 -22 -17 -39t-39 -17q-23 0 -39.5 17t-16.5 39q0 5 2 15l2 6l71 209h61
l-54 -181q14 -7 22 -20z" />
    <glyph glyph-name="gdotaccent" unicode="&#x121;" 
d="M536 470v-470q0 -67 -33 -123t-89.5 -88.5t-123.5 -32.5q-71 0 -130.5 37t-90.5 98l66 46q21 -45 62.5 -73t92.5 -28q44 0 81.5 22t59.5 59.5t22 82.5v61q-29 -33 -70 -51.5t-94 -18.5q-66 0 -122 33t-89 89t-33 122q0 67 33 123t89 88.5t122 32.5q53 0 94 -18.5
t70 -51.5v61h83zM372.5 93q37.5 22 59.5 60t22 82q0 45 -22 82.5t-59.5 59.5t-81.5 22q-45 0 -82.5 -22t-59.5 -59.5t-22 -82.5q0 -44 22 -82t59.5 -60t82.5 -22q44 0 81.5 22zM251.5 569.5q-16.5 16.5 -16.5 38.5q0 24 16.5 40t39.5 16t39.5 -16t16.5 -40
q0 -22 -16.5 -38.5t-39.5 -16.5t-39.5 16.5z" />
    <glyph glyph-name="h" unicode="h" horiz-adv-x="501" 
d="M351 456q39 -23 62 -62t23 -85v-309h-82v303q0 42 -29.5 71t-70.5 29q-43 0 -72 -27.5t-30 -68.5v-307h-82v750h82v-314q48 43 114 43q46 0 85 -23z" />
    <glyph glyph-name="hbar" unicode="&#x127;" horiz-adv-x="501" 
d="M351 456q39 -23 62 -62t23 -85v-309h-82v303q0 42 -29.5 71t-70.5 29q-43 0 -72 -27.5t-30 -68.5v-307h-82v580h-69v58h69v112h82v-112h143v-58h-143v-144q48 43 114 43q46 0 85 -23z" />
    <glyph glyph-name="i" unicode="i" horiz-adv-x="249" 
d="M86 573q-16 16 -16 38q0 23 16 38.5t39 15.5q22 0 38 -15.5t16 -38.5q0 -22 -16 -38t-38 -16q-23 0 -39 16zM84 0v470h81v-470h-81z" />
    <glyph glyph-name="dotlessi" unicode="&#x131;" horiz-adv-x="275" 
d="M97 0v470h82v-470h-82z" />
    <glyph glyph-name="iacute" unicode="&#xed;" horiz-adv-x="275" 
d="M97 0v470h82v-470h-82zM118 528l-32 35l148 159l47 -53z" />
    <glyph glyph-name="uni01D0" unicode="&#x1d0;" horiz-adv-x="275" 
d="M97 0v470h82v-470h-82zM95 549l-98 145l43 26l98 -117l97 117l43 -26l-99 -145h-84z" />
    <glyph glyph-name="icircumflex" unicode="&#xee;" horiz-adv-x="275" 
d="M97 0v470h82v-470h-82zM38 530l-41 25l98 145h84l99 -145l-42 -25l-98 116z" />
    <glyph glyph-name="idieresis" unicode="&#xef;" horiz-adv-x="275" 
d="M97 0v470h82v-470h-82zM6.5 573.5q-16.5 16.5 -16.5 38.5q0 24 16.5 40t39.5 16t39.5 -16t16.5 -40q0 -22 -16.5 -38.5t-39.5 -16.5t-39.5 16.5zM190.5 573.5q-16.5 16.5 -16.5 38.5q0 24 16.5 40t39.5 16t39.5 -16t16.5 -40q0 -23 -16.5 -39t-39.5 -16t-39.5 16.5z" />
    <glyph glyph-name="i.loclTRK" horiz-adv-x="275" 
d="M97 0v470h82v-470h-82zM98.5 569.5q-16.5 16.5 -16.5 38.5q0 24 16.5 40t39.5 16t39.5 -16t16.5 -40q0 -22 -16.5 -38.5t-39.5 -16.5t-39.5 16.5z" />
    <glyph glyph-name="uni1ECB" unicode="&#x1ecb;" horiz-adv-x="600" 
d="M86 573q-16 16 -16 38q0 23 16 38.5t39 15.5q22 0 38 -15.5t16 -38.5q0 -22 -16 -38t-38 -16q-23 0 -39 16zM84 0v470h81v-470h-81zM61.5 -233.5q-16.5 16.5 -16.5 39.5q0 22 16.5 39t39.5 17q22 0 39 -17t17 -39q0 -23 -16.5 -39.5t-39.5 -16.5t-39.5 16.5z" />
    <glyph glyph-name="igrave" unicode="&#xec;" horiz-adv-x="275" 
d="M97 0v470h82v-470h-82zM139 528l-164 141l48 53l147 -159z" />
    <glyph glyph-name="uni1EC9" unicode="&#x1ec9;" horiz-adv-x="275" 
d="M97 0v470h82v-470h-82zM111 594q70 15 70 63q0 19 -13.5 32t-35.5 13q-27 0 -52 -17l-32 45q38 30 82 30q46 0 78 -29t32 -74q0 -32 -19.5 -57.5t-56.5 -36.5v-44h-53v75z" />
    <glyph glyph-name="imacron" unicode="&#x12b;" horiz-adv-x="275" 
d="M97 0v470h82v-470h-82zM-17 572v56h310v-56h-310z" />
    <glyph glyph-name="iogonek" unicode="&#x12f;" horiz-adv-x="275" 
d="M98.5 569.5q-16.5 16.5 -16.5 38.5q0 24 16.5 40t39.5 16t39.5 -16t16.5 -40q0 -22 -16.5 -38.5t-39.5 -16.5t-39.5 16.5zM239 -208q-51 -51 -126 -51q-55 0 -88 27t-33 76q0 85 105 156v470h82v-470q-56 -23 -92.5 -59.5t-36.5 -77.5q0 -27 16 -40.5t42 -13.5
q23 0 48 10.5t43 28.5z" />
    <glyph glyph-name="itilde" unicode="&#x129;" horiz-adv-x="275" 
d="M97 0v470h82v-470h-82zM112 576q-18 27 -40 27q-23 0 -35.5 -22t-12.5 -56h-61q0 60 29 99t78 39q54 0 92 -55q9 -13 18 -20t24 -7q23 0 35 19.5t12 58.5h60q0 -60 -28 -99t-79 -39q-55 0 -92 55z" />
    <glyph glyph-name="j" unicode="j" horiz-adv-x="249" 
d="M86 573q-16 16 -16 38q0 23 16 38.5t39 15.5q22 0 38 -15.5t16 -38.5q0 -22 -16 -38t-38 -16q-23 0 -39 16zM84 -235v705h81v-705h-81z" />
    <glyph glyph-name="uni0237" unicode="&#x237;" horiz-adv-x="222" 
d="M70 -250v750h82v-750h-82z" />
    <glyph glyph-name="k" unicode="k" horiz-adv-x="473" 
d="M484 0h-111l-221 245v-245h-82v750h82v-483l182 203h111l-199 -211z" />
    <glyph glyph-name="kcommaaccent" unicode="&#x137;" horiz-adv-x="473" 
d="M484 0h-111l-221 245v-245h-82v750h82v-483l182 203h111l-199 -211zM182 -274l-45 18l92 215l70 -29z" />
    <glyph glyph-name="l" unicode="l" horiz-adv-x="222" 
d="M70 0v750h82v-750h-82z" />
    <glyph glyph-name="lacute" unicode="&#x13a;" horiz-adv-x="222" 
d="M70 0v750h82v-750h-82zM91 808l-32 35l148 159l47 -53z" />
    <glyph glyph-name="lcaron" unicode="&#x13e;" horiz-adv-x="366" 
d="M371 683l-71 -209h-61l54 181q-14 7 -22 20t-8 29q0 23 17 39.5t39 16.5q23 0 39.5 -16.5t16.5 -39.5q0 -5 -2 -15zM90 0v750h82v-750h-82z" />
    <glyph glyph-name="lcommaaccent" unicode="&#x13c;" horiz-adv-x="222" 
d="M70 0v750h82v-750h-82zM54 -274l-45 18l92 215l70 -29z" />
    <glyph glyph-name="ldot" unicode="&#x140;" horiz-adv-x="262" 
d="M70 0v750h82v-750h-82zM223.5 368q-13.5 13 -13.5 32q0 18 13.5 31.5t31.5 13.5t32 -13.5t14 -31.5q0 -19 -14 -32t-32 -13t-31.5 13z" />
    <glyph glyph-name="lslash" unicode="&#x142;" horiz-adv-x="242" 
d="M226 456v-75l-74 -55v-326h-82v265l-58 -43v75l58 43v410h82v-349z" />
    <glyph glyph-name="m" unicode="m" horiz-adv-x="767" 
d="M615 455q40 -24 63.5 -65.5t23.5 -90.5v-299h-82v298q0 42 -28 71.5t-68 29.5q-41 0 -69 -29.5t-28 -72.5v-297h-82v298q0 42 -28.5 71.5t-68.5 29.5t-68 -29.5t-28 -72.5v-297h-82v470h82v-42q22 24 49.5 37.5t58.5 13.5q36 0 70.5 -18.5t58.5 -50.5q24 32 60.5 50.5
t77.5 18.5q48 0 88 -24z" />
    <glyph glyph-name="n" unicode="n" horiz-adv-x="501" 
d="M351 456q39 -23 62 -62t23 -85v-309h-82v303q0 42 -29.5 71t-70.5 29q-43 0 -72 -27.5t-30 -68.5v-307h-82v470h82v-34q48 43 114 43q46 0 85 -23z" />
    <glyph glyph-name="nacute" unicode="&#x144;" horiz-adv-x="501" 
d="M351 456q39 -23 62 -62t23 -85v-309h-82v303q0 42 -29.5 71t-70.5 29q-43 0 -72 -27.5t-30 -68.5v-307h-82v470h82v-34q48 43 114 43q46 0 85 -23zM234 528l-32 35l148 159l47 -53z" />
    <glyph glyph-name="ncaron" unicode="&#x148;" horiz-adv-x="501" 
d="M351 456q39 -23 62 -62t23 -85v-309h-82v303q0 42 -29.5 71t-70.5 29q-43 0 -72 -27.5t-30 -68.5v-307h-82v470h82v-34q48 43 114 43q46 0 85 -23zM211 549l-98 145l43 26l98 -117l97 117l43 -26l-99 -145h-84z" />
    <glyph glyph-name="ncommaaccent" unicode="&#x146;" horiz-adv-x="501" 
d="M351 456q39 -23 62 -62t23 -85v-309h-82v303q0 42 -29.5 71t-70.5 29q-43 0 -72 -27.5t-30 -68.5v-307h-82v470h82v-34q48 43 114 43q46 0 85 -23zM198 -274l-45 18l92 215l70 -29z" />
    <glyph glyph-name="eng" unicode="&#x14b;" horiz-adv-x="538" 
d="M360.5 484q42.5 -26 68.5 -70t26 -96v-397q0 -79 -34.5 -111t-111.5 -31v75q31 -1 47.5 14t16.5 60v390q0 46 -32 78t-78 32q-47 0 -79 -32t-32 -78v-318h-82v500h82v-38q51 48 118 48q48 0 90.5 -26z" />
    <glyph glyph-name="ntilde" unicode="&#xf1;" horiz-adv-x="501" 
d="M351 456q39 -23 62 -62t23 -85v-309h-82v303q0 42 -29.5 71t-70.5 29q-43 0 -72 -27.5t-30 -68.5v-307h-82v470h82v-34q48 43 114 43q46 0 85 -23zM228 576q-18 27 -40 27q-23 0 -35.5 -22t-12.5 -56h-61q0 60 29 99t78 39q54 0 92 -55q9 -13 18 -20t24 -7q23 0 35 19.5
t12 58.5h60q0 -60 -28 -99t-79 -39q-55 0 -92 55z" />
    <glyph glyph-name="o" unicode="o" horiz-adv-x="581" 
d="M167.5 24q-56.5 33 -89.5 89t-33 122t33 122t89.5 89t123.5 33t123 -33t89 -89t33 -122t-33 -122t-89 -89t-123 -33t-123.5 33zM372.5 93q37.5 22 59.5 59.5t22 82.5t-22 82.5t-59.5 59.5t-81.5 22q-45 0 -82.5 -22t-59.5 -59.5t-22 -82.5t22 -82.5t59.5 -59.5t82.5 -22
q44 0 81.5 22z" />
    <glyph glyph-name="oacute" unicode="&#xf3;" horiz-adv-x="581" 
d="M167.5 24q-56.5 33 -89.5 89t-33 122t33 122t89.5 89t123.5 33t123 -33t89 -89t33 -122t-33 -122t-89 -89t-123 -33t-123.5 33zM372.5 93q37.5 22 59.5 59.5t22 82.5t-22 82.5t-59.5 59.5t-81.5 22q-45 0 -82.5 -22t-59.5 -59.5t-22 -82.5t22 -82.5t59.5 -59.5t82.5 -22
q44 0 81.5 22zM271 528l-32 35l148 159l47 -53z" />
    <glyph glyph-name="uni01D2" unicode="&#x1d2;" horiz-adv-x="581" 
d="M167.5 24q-56.5 33 -89.5 89t-33 122t33 122t89.5 89t123.5 33t123 -33t89 -89t33 -122t-33 -122t-89 -89t-123 -33t-123.5 33zM372.5 93q37.5 22 59.5 59.5t22 82.5t-22 82.5t-59.5 59.5t-81.5 22q-45 0 -82.5 -22t-59.5 -59.5t-22 -82.5t22 -82.5t59.5 -59.5t82.5 -22
q44 0 81.5 22zM248 549l-98 145l43 26l98 -117l97 117l43 -26l-99 -145h-84z" />
    <glyph glyph-name="ocircumflex" unicode="&#xf4;" horiz-adv-x="581" 
d="M167.5 24q-56.5 33 -89.5 89t-33 122t33 122t89.5 89t123.5 33t123 -33t89 -89t33 -122t-33 -122t-89 -89t-123 -33t-123.5 33zM372.5 93q37.5 22 59.5 59.5t22 82.5t-22 82.5t-59.5 59.5t-81.5 22q-45 0 -82.5 -22t-59.5 -59.5t-22 -82.5t22 -82.5t59.5 -59.5t82.5 -22
q44 0 81.5 22zM191 530l-41 25l98 145h84l99 -145l-42 -25l-98 116z" />
    <glyph glyph-name="uni1ED1" unicode="&#x1ed1;" horiz-adv-x="581" 
d="M167.5 24q-56.5 33 -89.5 89t-33 122t33 122t89.5 89t123.5 33t123 -33t89 -89t33 -122t-33 -122t-89 -89t-123 -33t-123.5 33zM372.5 93q37.5 22 59.5 59.5t22 82.5t-22 82.5t-59.5 59.5t-81.5 22q-45 0 -82.5 -22t-59.5 -59.5t-22 -82.5t22 -82.5t59.5 -59.5t82.5 -22
q44 0 81.5 22zM191 530l-41 25l98 145h84l99 -145l-42 -25l-98 116zM270 758l-32 35l148 159l47 -53z" />
    <glyph glyph-name="uni1ED9" unicode="&#x1ed9;" horiz-adv-x="581" 
d="M167.5 24q-56.5 33 -89.5 89t-33 122t33 122t89.5 89t123.5 33t123 -33t89 -89t33 -122t-33 -122t-89 -89t-123 -33t-123.5 33zM372.5 93q37.5 22 59.5 59.5t22 82.5t-22 82.5t-59.5 59.5t-81.5 22q-45 0 -82.5 -22t-59.5 -59.5t-22 -82.5t22 -82.5t59.5 -59.5t82.5 -22
q44 0 81.5 22zM251.5 -164.5q-16.5 16.5 -16.5 39.5q0 22 16.5 39t39.5 17q22 0 39 -17t17 -39q0 -23 -16.5 -39.5t-39.5 -16.5t-39.5 16.5zM191 530l-41 25l98 145h84l99 -145l-42 -25l-98 116z" />
    <glyph glyph-name="uni1ED3" unicode="&#x1ed3;" horiz-adv-x="581" 
d="M167.5 24q-56.5 33 -89.5 89t-33 122t33 122t89.5 89t123.5 33t123 -33t89 -89t33 -122t-33 -122t-89 -89t-123 -33t-123.5 33zM372.5 93q37.5 22 59.5 59.5t22 82.5t-22 82.5t-59.5 59.5t-81.5 22q-45 0 -82.5 -22t-59.5 -59.5t-22 -82.5t22 -82.5t59.5 -59.5t82.5 -22
q44 0 81.5 22zM191 530l-41 25l98 145h84l99 -145l-42 -25l-98 116zM291 758l-164 141l48 53l147 -159z" />
    <glyph glyph-name="uni1ED5" unicode="&#x1ed5;" horiz-adv-x="581" 
d="M167.5 24q-56.5 33 -89.5 89t-33 122t33 122t89.5 89t123.5 33t123 -33t89 -89t33 -122t-33 -122t-89 -89t-123 -33t-123.5 33zM372.5 93q37.5 22 59.5 59.5t22 82.5t-22 82.5t-59.5 59.5t-81.5 22q-45 0 -82.5 -22t-59.5 -59.5t-22 -82.5t22 -82.5t59.5 -59.5t82.5 -22
q44 0 81.5 22zM191 530l-41 25l98 145h84l99 -145l-42 -25l-98 116zM263 824q70 15 70 63q0 19 -13.5 32t-35.5 13q-27 0 -52 -17l-32 45q38 30 82 30q46 0 78 -29t32 -74q0 -32 -19.5 -57.5t-56.5 -36.5v-44h-53v75z" />
    <glyph glyph-name="uni1ED7" unicode="&#x1ed7;" horiz-adv-x="581" 
d="M167.5 24q-56.5 33 -89.5 89t-33 122t33 122t89.5 89t123.5 33t123 -33t89 -89t33 -122t-33 -122t-89 -89t-123 -33t-123.5 33zM372.5 93q37.5 22 59.5 59.5t22 82.5t-22 82.5t-59.5 59.5t-81.5 22q-45 0 -82.5 -22t-59.5 -59.5t-22 -82.5t22 -82.5t59.5 -59.5t82.5 -22
q44 0 81.5 22zM191 530l-41 25l98 145h84l99 -145l-42 -25l-98 116zM264 806q-18 27 -40 27q-23 0 -35.5 -22t-12.5 -56h-61q0 60 29 99t78 39q54 0 92 -55q9 -13 18 -20t24 -7q23 0 35 19.5t12 58.5h60q0 -60 -28 -99t-79 -39q-55 0 -92 55z" />
    <glyph glyph-name="odieresis" unicode="&#xf6;" horiz-adv-x="581" 
d="M167.5 24q-56.5 33 -89.5 89t-33 122t33 122t89.5 89t123.5 33t123 -33t89 -89t33 -122t-33 -122t-89 -89t-123 -33t-123.5 33zM372.5 93q37.5 22 59.5 59.5t22 82.5t-22 82.5t-59.5 59.5t-81.5 22q-45 0 -82.5 -22t-59.5 -59.5t-22 -82.5t22 -82.5t59.5 -59.5t82.5 -22
q44 0 81.5 22zM159.5 573.5q-16.5 16.5 -16.5 38.5q0 24 16.5 40t39.5 16t39.5 -16t16.5 -40q0 -22 -16.5 -38.5t-39.5 -16.5t-39.5 16.5zM343.5 573.5q-16.5 16.5 -16.5 38.5q0 24 16.5 40t39.5 16t39.5 -16t16.5 -40q0 -23 -16.5 -39t-39.5 -16t-39.5 16.5z" />
    <glyph glyph-name="uni1ECD" unicode="&#x1ecd;" horiz-adv-x="581" 
d="M167.5 24q-56.5 33 -89.5 89t-33 122t33 122t89.5 89t123.5 33t123 -33t89 -89t33 -122t-33 -122t-89 -89t-123 -33t-123.5 33zM372.5 93q37.5 22 59.5 59.5t22 82.5t-22 82.5t-59.5 59.5t-81.5 22q-45 0 -82.5 -22t-59.5 -59.5t-22 -82.5t22 -82.5t59.5 -59.5t82.5 -22
q44 0 81.5 22zM251.5 -164.5q-16.5 16.5 -16.5 39.5q0 22 16.5 39t39.5 17q22 0 39 -17t17 -39q0 -23 -16.5 -39.5t-39.5 -16.5t-39.5 16.5z" />
    <glyph glyph-name="ograve" unicode="&#xf2;" horiz-adv-x="581" 
d="M167.5 24q-56.5 33 -89.5 89t-33 122t33 122t89.5 89t123.5 33t123 -33t89 -89t33 -122t-33 -122t-89 -89t-123 -33t-123.5 33zM372.5 93q37.5 22 59.5 59.5t22 82.5t-22 82.5t-59.5 59.5t-81.5 22q-45 0 -82.5 -22t-59.5 -59.5t-22 -82.5t22 -82.5t59.5 -59.5t82.5 -22
q44 0 81.5 22zM292 528l-164 141l48 53l147 -159z" />
    <glyph glyph-name="uni1ECF" unicode="&#x1ecf;" horiz-adv-x="581" 
d="M167.5 24q-56.5 33 -89.5 89t-33 122t33 122t89.5 89t123.5 33t123 -33t89 -89t33 -122t-33 -122t-89 -89t-123 -33t-123.5 33zM372.5 93q37.5 22 59.5 59.5t22 82.5t-22 82.5t-59.5 59.5t-81.5 22q-45 0 -82.5 -22t-59.5 -59.5t-22 -82.5t22 -82.5t59.5 -59.5t82.5 -22
q44 0 81.5 22zM264 594q70 15 70 63q0 19 -13.5 32t-35.5 13q-27 0 -52 -17l-32 45q38 30 82 30q46 0 78 -29t32 -74q0 -32 -19.5 -57.5t-56.5 -36.5v-44h-53v75z" />
    <glyph glyph-name="ohorn" unicode="&#x1a1;" horiz-adv-x="581" 
d="M631 495v-61q0 -63 -27.5 -92.5t-68.5 -29.5q-8 0 -12 1q13 -36 13 -78q0 -66 -33 -122t-89 -89t-123 -33t-123.5 33t-89.5 89t-33 122t33 122t89.5 89t123.5 33q69 0 127 -35t89 -94h7q25 0 36.5 20.5t11.5 44.5v80h69zM372.5 93q37.5 22 59.5 59.5t22 82.5t-22 82.5
t-59.5 59.5t-81.5 22q-45 0 -82.5 -22t-59.5 -59.5t-22 -82.5t22 -82.5t59.5 -59.5t82.5 -22q44 0 81.5 22z" />
    <glyph glyph-name="uni1EDB" unicode="&#x1edb;" horiz-adv-x="581" 
d="M631 495v-61q0 -63 -27.5 -92.5t-68.5 -29.5q-8 0 -12 1q13 -36 13 -78q0 -66 -33 -122t-89 -89t-123 -33t-123.5 33t-89.5 89t-33 122t33 122t89.5 89t123.5 33q69 0 127 -35t89 -94h7q25 0 36.5 20.5t11.5 44.5v80h69zM372.5 93q37.5 22 59.5 59.5t22 82.5t-22 82.5
t-59.5 59.5t-81.5 22q-45 0 -82.5 -22t-59.5 -59.5t-22 -82.5t22 -82.5t59.5 -59.5t82.5 -22q44 0 81.5 22zM271 528l-32 35l148 159l47 -53z" />
    <glyph glyph-name="uni1EE3" unicode="&#x1ee3;" horiz-adv-x="581" 
d="M631 495v-61q0 -63 -27.5 -92.5t-68.5 -29.5q-8 0 -12 1q13 -36 13 -78q0 -66 -33 -122t-89 -89t-123 -33t-123.5 33t-89.5 89t-33 122t33 122t89.5 89t123.5 33q69 0 127 -35t89 -94h7q25 0 36.5 20.5t11.5 44.5v80h69zM372.5 93q37.5 22 59.5 59.5t22 82.5t-22 82.5
t-59.5 59.5t-81.5 22q-45 0 -82.5 -22t-59.5 -59.5t-22 -82.5t22 -82.5t59.5 -59.5t82.5 -22q44 0 81.5 22zM251.5 -164.5q-16.5 16.5 -16.5 39.5q0 22 16.5 39t39.5 17q22 0 39 -17t17 -39q0 -23 -16.5 -39.5t-39.5 -16.5t-39.5 16.5z" />
    <glyph glyph-name="uni1EDD" unicode="&#x1edd;" horiz-adv-x="581" 
d="M631 495v-61q0 -63 -27.5 -92.5t-68.5 -29.5q-8 0 -12 1q13 -36 13 -78q0 -66 -33 -122t-89 -89t-123 -33t-123.5 33t-89.5 89t-33 122t33 122t89.5 89t123.5 33q69 0 127 -35t89 -94h7q25 0 36.5 20.5t11.5 44.5v80h69zM372.5 93q37.5 22 59.5 59.5t22 82.5t-22 82.5
t-59.5 59.5t-81.5 22q-45 0 -82.5 -22t-59.5 -59.5t-22 -82.5t22 -82.5t59.5 -59.5t82.5 -22q44 0 81.5 22zM292 528l-164 141l48 53l147 -159z" />
    <glyph glyph-name="uni1EDF" unicode="&#x1edf;" horiz-adv-x="581" 
d="M631 495v-61q0 -63 -27.5 -92.5t-68.5 -29.5q-8 0 -12 1q13 -36 13 -78q0 -66 -33 -122t-89 -89t-123 -33t-123.5 33t-89.5 89t-33 122t33 122t89.5 89t123.5 33q69 0 127 -35t89 -94h7q25 0 36.5 20.5t11.5 44.5v80h69zM372.5 93q37.5 22 59.5 59.5t22 82.5t-22 82.5
t-59.5 59.5t-81.5 22q-45 0 -82.5 -22t-59.5 -59.5t-22 -82.5t22 -82.5t59.5 -59.5t82.5 -22q44 0 81.5 22zM264 594q70 15 70 63q0 19 -13.5 32t-35.5 13q-27 0 -52 -17l-32 45q38 30 82 30q46 0 78 -29t32 -74q0 -32 -19.5 -57.5t-56.5 -36.5v-44h-53v75z" />
    <glyph glyph-name="uni1EE1" unicode="&#x1ee1;" horiz-adv-x="581" 
d="M631 495v-61q0 -63 -27.5 -92.5t-68.5 -29.5q-8 0 -12 1q13 -36 13 -78q0 -66 -33 -122t-89 -89t-123 -33t-123.5 33t-89.5 89t-33 122t33 122t89.5 89t123.5 33q69 0 127 -35t89 -94h7q25 0 36.5 20.5t11.5 44.5v80h69zM372.5 93q37.5 22 59.5 59.5t22 82.5t-22 82.5
t-59.5 59.5t-81.5 22q-45 0 -82.5 -22t-59.5 -59.5t-22 -82.5t22 -82.5t59.5 -59.5t82.5 -22q44 0 81.5 22zM265 576q-18 27 -40 27q-23 0 -35.5 -22t-12.5 -56h-61q0 60 29 99t78 39q54 0 92 -55q9 -13 18 -20t24 -7q23 0 35 19.5t12 58.5h60q0 -60 -28 -99t-79 -39
q-55 0 -92 55z" />
    <glyph glyph-name="ohungarumlaut" unicode="&#x151;" horiz-adv-x="581" 
d="M167.5 24q-56.5 33 -89.5 89t-33 122t33 122t89.5 89t123.5 33t123 -33t89 -89t33 -122t-33 -122t-89 -89t-123 -33t-123.5 33zM372.5 93q37.5 22 59.5 59.5t22 82.5t-22 82.5t-59.5 59.5t-81.5 22q-45 0 -82.5 -22t-59.5 -59.5t-22 -82.5t22 -82.5t59.5 -59.5t82.5 -22
q44 0 81.5 22zM200 552l-41 46l160 138l42 -46zM381 552l-41 46l160 138l42 -46z" />
    <glyph glyph-name="omacron" unicode="&#x14d;" horiz-adv-x="581" 
d="M167.5 24q-56.5 33 -89.5 89t-33 122t33 122t89.5 89t123.5 33t123 -33t89 -89t33 -122t-33 -122t-89 -89t-123 -33t-123.5 33zM372.5 93q37.5 22 59.5 59.5t22 82.5t-22 82.5t-59.5 59.5t-81.5 22q-45 0 -82.5 -22t-59.5 -59.5t-22 -82.5t22 -82.5t59.5 -59.5t82.5 -22
q44 0 81.5 22zM136 572v56h310v-56h-310z" />
    <glyph glyph-name="oslash" unicode="&#xf8;" horiz-adv-x="581" 
d="M513.5 337.5q22.5 -48.5 22.5 -102.5q0 -66 -33 -122t-89 -89t-123 -33q-63 0 -118 30l-52 -74l-42 26l53 76q-41 33 -64 81.5t-23 104.5q0 66 33 122t89.5 89t123.5 33q64 0 119 -30l51 73l43 -27l-53 -75q40 -34 62.5 -82.5zM140.5 169q13.5 -31 37.5 -54l186 267
q-34 17 -73 17q-45 0 -82.5 -22t-59.5 -59.5t-22 -82.5q0 -35 13.5 -66zM372.5 93q37.5 22 59.5 59.5t22 82.5q0 34 -13 64.5t-36 53.5l-186 -266q35 -16 72 -16q44 0 81.5 22z" />
    <glyph glyph-name="otilde" unicode="&#xf5;" horiz-adv-x="581" 
d="M167.5 24q-56.5 33 -89.5 89t-33 122t33 122t89.5 89t123.5 33t123 -33t89 -89t33 -122t-33 -122t-89 -89t-123 -33t-123.5 33zM372.5 93q37.5 22 59.5 59.5t22 82.5t-22 82.5t-59.5 59.5t-81.5 22q-45 0 -82.5 -22t-59.5 -59.5t-22 -82.5t22 -82.5t59.5 -59.5t82.5 -22
q44 0 81.5 22zM265 576q-18 27 -40 27q-23 0 -35.5 -22t-12.5 -56h-61q0 60 29 99t78 39q54 0 92 -55q9 -13 18 -20t24 -7q23 0 35 19.5t12 58.5h60q0 -60 -28 -99t-79 -39q-55 0 -92 55z" />
    <glyph glyph-name="oe" unicode="&#x153;" horiz-adv-x="1004" 
d="M958 224h-411q2 -44 25.5 -80.5t61 -57.5t81.5 -21t82 21t61 58l69 -28q-31 -58 -87 -91.5t-124 -33.5t-124.5 33t-88.5 88q-33 -55 -89 -88t-123 -33t-123.5 33t-89.5 89t-33 122t33 122t89.5 89t123.5 33t123.5 -33t88.5 -88q32 55 88.5 88t123.5 33q66 0 121.5 -31.5
t88 -86t34.5 -121.5zM616 373.5q-43 -31.5 -60 -83.5h316q-16 51 -59 83t-98 32q-56 0 -99 -31.5zM374.5 89.5q38.5 22.5 61 61t22.5 84.5t-22.5 84.5t-61 61t-83.5 22.5q-46 0 -85 -22.5t-61.5 -61t-22.5 -84.5t22.5 -84.5t61.5 -61t85 -22.5q45 0 83.5 22.5z" />
    <glyph glyph-name="p" unicode="p" 
d="M442 446q54 -33 86.5 -89t32.5 -122t-32.5 -122t-86.5 -89t-116 -33q-54 0 -98.5 20t-75.5 56v-307h-82v710h82v-67q31 36 75.5 56t98.5 20q62 0 116 -33zM397.5 93q37.5 22 59.5 59.5t22 82.5t-22 82.5t-59.5 59.5t-82.5 22t-82.5 -22t-59 -59.5t-21.5 -82.5t21.5 -82.5
t59 -59.5t82.5 -22t82.5 22z" />
    <glyph glyph-name="thorn" unicode="&#xfe;" horiz-adv-x="621" 
d="M457 446q54 -33 86.5 -89t32.5 -122t-32.5 -122t-86.5 -89t-116 -33q-52 0 -95 18.5t-74 51.5v-296h-82v985h82v-341q31 33 74 51.5t95 18.5q62 0 116 -33zM412.5 93q37.5 22 59.5 59.5t22 82.5t-22 82.5t-59.5 59.5t-81.5 22q-45 0 -82.5 -22t-59.5 -59.5t-22 -82.5
t22 -82.5t59.5 -59.5t82.5 -22q44 0 81.5 22z" />
    <glyph glyph-name="q" unicode="q" 
d="M536 470v-710h-82v307q-31 -36 -75.5 -56t-98.5 -20q-62 0 -116 33t-86.5 89t-32.5 122t32.5 122t86.5 89t116 33q54 0 98.5 -20t75.5 -56v67h82zM373.5 93q37.5 22 59 59.5t21.5 82.5t-21.5 82.5t-59 59.5t-82.5 22t-82.5 -22t-59.5 -59.5t-22 -82.5t22 -82.5
t59.5 -59.5t82.5 -22t82.5 22z" />
    <glyph glyph-name="r" unicode="r" horiz-adv-x="333" 
d="M341 461l-28 -70q-19 8 -38 8q-53 0 -88 -43t-35 -107v-249h-82v470h82v-73q19 39 49.5 60.5t71.5 21.5q39 0 68 -18z" />
    <glyph glyph-name="racute" unicode="&#x155;" horiz-adv-x="333" 
d="M341 461l-28 -70q-19 8 -38 8q-53 0 -88 -43t-35 -107v-249h-82v470h82v-73q19 39 49.5 60.5t71.5 21.5q39 0 68 -18zM175 528l-32 35l148 159l47 -53z" />
    <glyph glyph-name="rcaron" unicode="&#x159;" horiz-adv-x="333" 
d="M341 461l-28 -70q-19 8 -38 8q-53 0 -88 -43t-35 -107v-249h-82v470h82v-73q19 39 49.5 60.5t71.5 21.5q39 0 68 -18zM152 549l-98 145l43 26l98 -117l97 117l43 -26l-99 -145h-84z" />
    <glyph glyph-name="rcommaaccent" unicode="&#x157;" horiz-adv-x="333" 
d="M341 461l-28 -70q-19 8 -38 8q-53 0 -88 -43t-35 -107v-249h-82v470h82v-73q19 39 49.5 60.5t71.5 21.5q39 0 68 -18zM54 -274l-45 18l92 215l70 -29z" />
    <glyph glyph-name="s" unicode="s" horiz-adv-x="424" 
d="M110 8q-43 17 -80 44l46 67q26 -23 61 -38.5t74 -15.5q42 0 66.5 18.5t24.5 50.5q0 22 -13.5 36t-32.5 21.5t-56 17.5q-49 14 -78 26t-50.5 37.5t-21.5 68.5q0 64 48.5 101t120.5 37q41 0 80 -12.5t70 -33.5l-47 -63q-52 37 -110 37q-39 0 -62 -15.5t-23 -42.5
q0 -21 15.5 -34.5t35 -19.5t66.5 -19q64 -17 100.5 -45.5t36.5 -90.5q0 -70 -47 -109.5t-127 -39.5q-54 0 -97 17z" />
    <glyph glyph-name="sacute" unicode="&#x15b;" horiz-adv-x="424" 
d="M110 8q-43 17 -80 44l46 67q26 -23 61 -38.5t74 -15.5q42 0 66.5 18.5t24.5 50.5q0 22 -13.5 36t-32.5 21.5t-56 17.5q-49 14 -78 26t-50.5 37.5t-21.5 68.5q0 64 48.5 101t120.5 37q41 0 80 -12.5t70 -33.5l-47 -63q-52 37 -110 37q-39 0 -62 -15.5t-23 -42.5
q0 -21 15.5 -34.5t35 -19.5t66.5 -19q64 -17 100.5 -45.5t36.5 -90.5q0 -70 -47 -109.5t-127 -39.5q-54 0 -97 17zM191 528l-32 35l148 159l47 -53z" />
    <glyph glyph-name="scaron" unicode="&#x161;" horiz-adv-x="424" 
d="M110 8q-43 17 -80 44l46 67q26 -23 61 -38.5t74 -15.5q42 0 66.5 18.5t24.5 50.5q0 22 -13.5 36t-32.5 21.5t-56 17.5q-49 14 -78 26t-50.5 37.5t-21.5 68.5q0 64 48.5 101t120.5 37q41 0 80 -12.5t70 -33.5l-47 -63q-52 37 -110 37q-39 0 -62 -15.5t-23 -42.5
q0 -21 15.5 -34.5t35 -19.5t66.5 -19q64 -17 100.5 -45.5t36.5 -90.5q0 -70 -47 -109.5t-127 -39.5q-54 0 -97 17zM168 549l-98 145l43 26l98 -117l97 117l43 -26l-99 -145h-84z" />
    <glyph glyph-name="scedilla" unicode="&#x15f;" horiz-adv-x="424" 
d="M341.5 37.5q-39.5 -38.5 -108.5 -45.5l-27 -58q13 3 26 3q42 0 69.5 -26t27.5 -67q0 -44 -30 -74t-73 -30q-35 0 -68.5 19t-47.5 47l45 18q10 -15 31 -25t40 -10q23 0 38.5 16t15.5 39q0 24 -15.5 38t-40.5 14q-19 0 -41 -9l-39 25l40 80q-80 6 -154 60l46 67
q26 -23 61 -38.5t74 -15.5q42 0 66.5 18.5t24.5 50.5q0 22 -13.5 36t-32.5 21.5t-56 17.5q-49 14 -78 26t-50.5 37.5t-21.5 68.5q0 64 48.5 101t120.5 37q41 0 80 -12.5t70 -33.5l-47 -63q-52 37 -110 37q-39 0 -62 -15.5t-23 -42.5q0 -21 15.5 -34.5t35 -19.5t66.5 -19
q64 -17 100.5 -45.5t36.5 -90.5q0 -64 -39.5 -102.5z" />
    <glyph glyph-name="scommaaccent" unicode="&#x219;" horiz-adv-x="424" 
d="M110 8q-43 17 -80 44l46 67q26 -23 61 -38.5t74 -15.5q42 0 66.5 18.5t24.5 50.5q0 22 -13.5 36t-32.5 21.5t-56 17.5q-49 14 -78 26t-50.5 37.5t-21.5 68.5q0 64 48.5 101t120.5 37q41 0 80 -12.5t70 -33.5l-47 -63q-52 37 -110 37q-39 0 -62 -15.5t-23 -42.5
q0 -21 15.5 -34.5t35 -19.5t66.5 -19q64 -17 100.5 -45.5t36.5 -90.5q0 -70 -47 -109.5t-127 -39.5q-54 0 -97 17zM156 -274l-45 18l92 215l70 -29z" />
    <glyph glyph-name="germandbls" unicode="&#xdf;" horiz-adv-x="680" 
d="M570 307q33 -50 33 -112q0 -56 -26 -100.5t-71 -69.5t-99 -25h-84v85h70q53 0 90 30t37 84q0 38 -19 69.5t-51.5 50t-71.5 18.5h-57v69h24q37 0 68.5 18.5t50 50t18.5 69.5q0 58 -41.5 95.5t-105.5 37.5q-44 0 -79.5 -18.5t-56 -50.5t-20.5 -72v-536h-82v536q0 61 31 110
t85 76.5t121 27.5q65 0 116.5 -26.5t80.5 -73t29 -104.5q0 -50 -21 -92t-58 -71q56 -26 89 -76z" />
    <glyph glyph-name="t" unicode="t" horiz-adv-x="326" 
d="M303 470v-75h-98v-395h-83v395h-99v75h99v169h83v-169h98z" />
    <glyph glyph-name="tbar" unicode="&#x167;" horiz-adv-x="326" 
d="M303 395h-98v-138h75v-58h-75v-199h-83v199h-74v58h74v138h-99v75h99v169h83v-169h98v-75z" />
    <glyph glyph-name="tcaron" unicode="&#x165;" horiz-adv-x="326" 
d="M397 756l-71 -209h-61l54 181q-14 7 -22 20t-8 29q0 23 17 39.5t39 16.5q23 0 39.5 -16.5t16.5 -39.5q0 -5 -2 -15zM205 639v-169h98v-75h-98v-395h-83v395h-99v75h99v169h83z" />
    <glyph glyph-name="uni0163" unicode="&#x163;" horiz-adv-x="326" 
d="M188 0l-31 -66q14 3 26 3q42 0 69.5 -26t27.5 -67q0 -44 -30 -74t-73 -30q-35 0 -68.5 19t-47.5 47l45 18q10 -15 31 -25t40 -10q23 0 38.5 16t15.5 39q0 24 -15.5 38t-40.5 14q-19 0 -41 -9l-39 25l44 88h-17v395h-99v75h99v169h83v-169h98v-75h-98v-395h-17z" />
    <glyph glyph-name="uni021B" unicode="&#x21b;" horiz-adv-x="326" 
d="M303 470v-75h-98v-395h-83v395h-99v75h99v169h83v-169h98zM107 -274l-45 18l92 215l70 -29z" />
    <glyph glyph-name="u" unicode="u" horiz-adv-x="496" 
d="M117 39.5q-49 48.5 -49 130.5v300h82v-291q0 -50 27.5 -79t70.5 -29q44 0 71 29t27 79v291h82v-300q0 -82 -49 -130.5t-131 -48.5t-131 48.5z" />
    <glyph glyph-name="uacute" unicode="&#xfa;" horiz-adv-x="496" 
d="M117 39.5q-49 48.5 -49 130.5v300h82v-291q0 -50 27.5 -79t70.5 -29q44 0 71 29t27 79v291h82v-300q0 -82 -49 -130.5t-131 -48.5t-131 48.5zM228 528l-32 35l148 159l47 -53z" />
    <glyph glyph-name="uni01D4" unicode="&#x1d4;" horiz-adv-x="496" 
d="M117 39.5q-49 48.5 -49 130.5v300h82v-291q0 -50 27.5 -79t70.5 -29q44 0 71 29t27 79v291h82v-300q0 -82 -49 -130.5t-131 -48.5t-131 48.5zM205 549l-98 145l43 26l98 -117l97 117l43 -26l-99 -145h-84z" />
    <glyph glyph-name="ucircumflex" unicode="&#xfb;" horiz-adv-x="496" 
d="M117 39.5q-49 48.5 -49 130.5v300h82v-291q0 -50 27.5 -79t70.5 -29q44 0 71 29t27 79v291h82v-300q0 -82 -49 -130.5t-131 -48.5t-131 48.5zM148 530l-41 25l98 145h84l99 -145l-42 -25l-98 116z" />
    <glyph glyph-name="udieresis" unicode="&#xfc;" horiz-adv-x="496" 
d="M117 39.5q-49 48.5 -49 130.5v300h82v-291q0 -50 27.5 -79t70.5 -29q44 0 71 29t27 79v291h82v-300q0 -82 -49 -130.5t-131 -48.5t-131 48.5zM116.5 573.5q-16.5 16.5 -16.5 38.5q0 24 16.5 40t39.5 16t39.5 -16t16.5 -40q0 -22 -16.5 -38.5t-39.5 -16.5t-39.5 16.5z
M300.5 573.5q-16.5 16.5 -16.5 38.5q0 24 16.5 40t39.5 16t39.5 -16t16.5 -40q0 -23 -16.5 -39t-39.5 -16t-39.5 16.5z" />
    <glyph glyph-name="uni01D8" unicode="&#x1d8;" horiz-adv-x="496" 
d="M117 39.5q-49 48.5 -49 130.5v300h82v-291q0 -50 27.5 -79t70.5 -29q44 0 71 29t27 79v291h82v-300q0 -82 -49 -130.5t-131 -48.5t-131 48.5zM116.5 573.5q-16.5 16.5 -16.5 38.5q0 24 16.5 40t39.5 16t39.5 -16t16.5 -40q0 -22 -16.5 -38.5t-39.5 -16.5t-39.5 16.5z
M300.5 573.5q-16.5 16.5 -16.5 38.5q0 24 16.5 40t39.5 16t39.5 -16t16.5 -40q0 -23 -16.5 -39t-39.5 -16t-39.5 16.5zM228 726l-32 35l148 159l47 -53z" />
    <glyph glyph-name="uni01DA" unicode="&#x1da;" horiz-adv-x="496" 
d="M117 39.5q-49 48.5 -49 130.5v300h82v-291q0 -50 27.5 -79t70.5 -29q44 0 71 29t27 79v291h82v-300q0 -82 -49 -130.5t-131 -48.5t-131 48.5zM116.5 573.5q-16.5 16.5 -16.5 38.5q0 24 16.5 40t39.5 16t39.5 -16t16.5 -40q0 -22 -16.5 -38.5t-39.5 -16.5t-39.5 16.5z
M300.5 573.5q-16.5 16.5 -16.5 38.5q0 24 16.5 40t39.5 16t39.5 -16t16.5 -40q0 -23 -16.5 -39t-39.5 -16t-39.5 16.5zM205 747l-98 145l43 26l98 -117l97 117l43 -26l-99 -145h-84z" />
    <glyph glyph-name="uni01DC" unicode="&#x1dc;" horiz-adv-x="496" 
d="M117 39.5q-49 48.5 -49 130.5v300h82v-291q0 -50 27.5 -79t70.5 -29q44 0 71 29t27 79v291h82v-300q0 -82 -49 -130.5t-131 -48.5t-131 48.5zM116.5 573.5q-16.5 16.5 -16.5 38.5q0 24 16.5 40t39.5 16t39.5 -16t16.5 -40q0 -22 -16.5 -38.5t-39.5 -16.5t-39.5 16.5z
M300.5 573.5q-16.5 16.5 -16.5 38.5q0 24 16.5 40t39.5 16t39.5 -16t16.5 -40q0 -23 -16.5 -39t-39.5 -16t-39.5 16.5zM249 726l-164 141l48 53l147 -159z" />
    <glyph glyph-name="uni01D6" unicode="&#x1d6;" horiz-adv-x="496" 
d="M117 39.5q-49 48.5 -49 130.5v300h82v-291q0 -50 27.5 -79t70.5 -29q44 0 71 29t27 79v291h82v-300q0 -82 -49 -130.5t-131 -48.5t-131 48.5zM116.5 573.5q-16.5 16.5 -16.5 38.5q0 24 16.5 40t39.5 16t39.5 -16t16.5 -40q0 -22 -16.5 -38.5t-39.5 -16.5t-39.5 16.5z
M300.5 573.5q-16.5 16.5 -16.5 38.5q0 24 16.5 40t39.5 16t39.5 -16t16.5 -40q0 -23 -16.5 -39t-39.5 -16t-39.5 16.5zM93 770v56h310v-56h-310z" />
    <glyph glyph-name="uni1EE5" unicode="&#x1ee5;" horiz-adv-x="496" 
d="M117 39.5q-49 48.5 -49 130.5v300h82v-291q0 -50 27.5 -79t70.5 -29q44 0 71 29t27 79v291h82v-300q0 -82 -49 -130.5t-131 -48.5t-131 48.5zM208.5 -164.5q-16.5 16.5 -16.5 39.5q0 22 16.5 39t39.5 17q22 0 39 -17t17 -39q0 -23 -16.5 -39.5t-39.5 -16.5t-39.5 16.5z
" />
    <glyph glyph-name="ugrave" unicode="&#xf9;" horiz-adv-x="496" 
d="M117 39.5q-49 48.5 -49 130.5v300h82v-291q0 -50 27.5 -79t70.5 -29q44 0 71 29t27 79v291h82v-300q0 -82 -49 -130.5t-131 -48.5t-131 48.5zM249 528l-164 141l48 53l147 -159z" />
    <glyph glyph-name="uni1EE7" unicode="&#x1ee7;" horiz-adv-x="496" 
d="M117 39.5q-49 48.5 -49 130.5v300h82v-291q0 -50 27.5 -79t70.5 -29q44 0 71 29t27 79v291h82v-300q0 -82 -49 -130.5t-131 -48.5t-131 48.5zM221 594q70 15 70 63q0 19 -13.5 32t-35.5 13q-27 0 -52 -17l-32 45q38 30 82 30q46 0 78 -29t32 -74q0 -32 -19.5 -57.5
t-56.5 -36.5v-44h-53v75z" />
    <glyph glyph-name="uhorn" unicode="&#x1b0;" horiz-adv-x="496" 
d="M576 470v-61q0 -63 -27.5 -92.5t-68.5 -29.5q-24 0 -52 9v-126q0 -82 -49 -130.5t-131 -48.5t-131 48.5t-49 130.5v300h82v-291q0 -50 27.5 -79t70.5 -29q44 0 71 29t27 79v291h82v-139q20 -6 31 -6q25 0 36.5 20.5t11.5 44.5v80h69z" />
    <glyph glyph-name="uni1EE9" unicode="&#x1ee9;" horiz-adv-x="496" 
d="M576 470v-61q0 -63 -27.5 -92.5t-68.5 -29.5q-24 0 -52 9v-126q0 -82 -49 -130.5t-131 -48.5t-131 48.5t-49 130.5v300h82v-291q0 -50 27.5 -79t70.5 -29q44 0 71 29t27 79v291h82v-139q20 -6 31 -6q25 0 36.5 20.5t11.5 44.5v80h69zM228 528l-32 35l148 159l47 -53z" />
    <glyph glyph-name="uni1EF1" unicode="&#x1ef1;" horiz-adv-x="496" 
d="M576 470v-61q0 -63 -27.5 -92.5t-68.5 -29.5q-24 0 -52 9v-126q0 -82 -49 -130.5t-131 -48.5t-131 48.5t-49 130.5v300h82v-291q0 -50 27.5 -79t70.5 -29q44 0 71 29t27 79v291h82v-139q20 -6 31 -6q25 0 36.5 20.5t11.5 44.5v80h69zM208.5 -164.5q-16.5 16.5 -16.5 39.5
q0 22 16.5 39t39.5 17q22 0 39 -17t17 -39q0 -23 -16.5 -39.5t-39.5 -16.5t-39.5 16.5z" />
    <glyph glyph-name="uni1EEB" unicode="&#x1eeb;" horiz-adv-x="496" 
d="M576 470v-61q0 -63 -27.5 -92.5t-68.5 -29.5q-24 0 -52 9v-126q0 -82 -49 -130.5t-131 -48.5t-131 48.5t-49 130.5v300h82v-291q0 -50 27.5 -79t70.5 -29q44 0 71 29t27 79v291h82v-139q20 -6 31 -6q25 0 36.5 20.5t11.5 44.5v80h69zM249 528l-164 141l48 53l147 -159z
" />
    <glyph glyph-name="uni1EED" unicode="&#x1eed;" horiz-adv-x="496" 
d="M576 470v-61q0 -63 -27.5 -92.5t-68.5 -29.5q-24 0 -52 9v-126q0 -82 -49 -130.5t-131 -48.5t-131 48.5t-49 130.5v300h82v-291q0 -50 27.5 -79t70.5 -29q44 0 71 29t27 79v291h82v-139q20 -6 31 -6q25 0 36.5 20.5t11.5 44.5v80h69zM221 594q70 15 70 63q0 19 -13.5 32
t-35.5 13q-27 0 -52 -17l-32 45q38 30 82 30q46 0 78 -29t32 -74q0 -32 -19.5 -57.5t-56.5 -36.5v-44h-53v75z" />
    <glyph glyph-name="uni1EEF" unicode="&#x1eef;" horiz-adv-x="496" 
d="M576 470v-61q0 -63 -27.5 -92.5t-68.5 -29.5q-24 0 -52 9v-126q0 -82 -49 -130.5t-131 -48.5t-131 48.5t-49 130.5v300h82v-291q0 -50 27.5 -79t70.5 -29q44 0 71 29t27 79v291h82v-139q20 -6 31 -6q25 0 36.5 20.5t11.5 44.5v80h69zM222 576q-18 27 -40 27
q-23 0 -35.5 -22t-12.5 -56h-61q0 60 29 99t78 39q54 0 92 -55q9 -13 18 -20t24 -7q23 0 35 19.5t12 58.5h60q0 -60 -28 -99t-79 -39q-55 0 -92 55z" />
    <glyph glyph-name="uhungarumlaut" unicode="&#x171;" horiz-adv-x="496" 
d="M117 39.5q-49 48.5 -49 130.5v300h82v-291q0 -50 27.5 -79t70.5 -29q44 0 71 29t27 79v291h82v-300q0 -82 -49 -130.5t-131 -48.5t-131 48.5zM157 552l-41 46l160 138l42 -46zM338 552l-41 46l160 138l42 -46z" />
    <glyph glyph-name="umacron" unicode="&#x16b;" horiz-adv-x="496" 
d="M117 39.5q-49 48.5 -49 130.5v300h82v-291q0 -50 27.5 -79t70.5 -29q44 0 71 29t27 79v291h82v-300q0 -82 -49 -130.5t-131 -48.5t-131 48.5zM93 572v56h310v-56h-310z" />
    <glyph glyph-name="uogonek" unicode="&#x173;" horiz-adv-x="496" 
d="M428 470v-300q0 -70 -36 -116t-99 -59q-52 -23 -85 -58t-33 -74q0 -27 16 -40.5t42 -13.5q23 0 48 10.5t43 28.5l40 -56q-51 -51 -126 -51q-55 0 -88 27t-33 76q0 79 96 150q-67 10 -106 56.5t-39 119.5v300h82v-291q0 -50 27.5 -79t70.5 -29q44 0 71 29t27 79v291h82z
" />
    <glyph glyph-name="uring" unicode="&#x16f;" horiz-adv-x="496" 
d="M117 39.5q-49 48.5 -49 130.5v300h82v-291q0 -50 27.5 -79t70.5 -29q44 0 71 29t27 79v291h82v-300q0 -82 -49 -130.5t-131 -48.5t-131 48.5zM173.5 568q-31.5 31 -31.5 74t31 74t75 31q43 0 73.5 -31t30.5 -74t-30.5 -74t-73.5 -31t-74.5 31zM290.5 598.5
q17.5 17.5 17.5 43.5q0 25 -17.5 43.5t-42.5 18.5t-42.5 -18.5t-17.5 -43.5q0 -26 17 -43.5t43 -17.5q25 0 42.5 17.5z" />
    <glyph glyph-name="utilde" unicode="&#x169;" horiz-adv-x="496" 
d="M117 39.5q-49 48.5 -49 130.5v300h82v-291q0 -50 27.5 -79t70.5 -29q44 0 71 29t27 79v291h82v-300q0 -82 -49 -130.5t-131 -48.5t-131 48.5zM222 576q-18 27 -40 27q-23 0 -35.5 -22t-12.5 -56h-61q0 60 29 99t78 39q54 0 92 -55q9 -13 18 -20t24 -7q23 0 35 19.5
t12 58.5h60q0 -60 -28 -99t-79 -39q-55 0 -92 55z" />
    <glyph glyph-name="v" unicode="v" horiz-adv-x="472" 
d="M376 470h88l-226 -486h-5l-225 486h88l140 -321z" />
    <glyph glyph-name="w" unicode="w" horiz-adv-x="699" 
d="M602 470h89l-187 -486h-6l-149 347l-149 -347h-6l-186 486h89l108 -295l125 295h38l126 -298z" />
    <glyph glyph-name="wacute" unicode="&#x1e83;" horiz-adv-x="699" 
d="M602 470h89l-187 -486h-6l-149 347l-149 -347h-6l-186 486h89l108 -295l125 295h38l126 -298zM324 528l-32 35l148 159l47 -53z" />
    <glyph glyph-name="wcircumflex" unicode="&#x175;" horiz-adv-x="699" 
d="M602 470h89l-187 -486h-6l-149 347l-149 -347h-6l-186 486h89l108 -295l125 295h38l126 -298zM244 530l-41 25l98 145h84l99 -145l-42 -25l-98 116z" />
    <glyph glyph-name="wdieresis" unicode="&#x1e85;" horiz-adv-x="699" 
d="M602 470h89l-187 -486h-6l-149 347l-149 -347h-6l-186 486h89l108 -295l125 295h38l126 -298zM212.5 573.5q-16.5 16.5 -16.5 38.5q0 24 16.5 40t39.5 16t39.5 -16t16.5 -40q0 -22 -16.5 -38.5t-39.5 -16.5t-39.5 16.5zM396.5 573.5q-16.5 16.5 -16.5 38.5q0 24 16.5 40
t39.5 16t39.5 -16t16.5 -40q0 -23 -16.5 -39t-39.5 -16t-39.5 16.5z" />
    <glyph glyph-name="wgrave" unicode="&#x1e81;" horiz-adv-x="699" 
d="M602 470h89l-187 -486h-6l-149 347l-149 -347h-6l-186 486h89l108 -295l125 295h38l126 -298zM345 528l-164 141l48 53l147 -159z" />
    <glyph glyph-name="x" unicode="x" horiz-adv-x="507" 
d="M8 0l196 235l-196 235h99l146 -176l147 176h99l-196 -235l196 -235h-99l-146 176l-146 -176h-100z" />
    <glyph glyph-name="y" unicode="y" horiz-adv-x="484" 
d="M384 470h92l-285 -710h-87l95 241l-191 469h91l147 -377z" />
    <glyph glyph-name="yacute" unicode="&#xfd;" horiz-adv-x="484" 
d="M384 470h92l-285 -710h-87l95 241l-191 469h91l147 -377zM217 528l-32 35l148 159l47 -53z" />
    <glyph glyph-name="ycircumflex" unicode="&#x177;" horiz-adv-x="484" 
d="M384 470h92l-285 -710h-87l95 241l-191 469h91l147 -377zM137 530l-41 25l98 145h84l99 -145l-42 -25l-98 116z" />
    <glyph glyph-name="ydieresis" unicode="&#xff;" horiz-adv-x="484" 
d="M384 470h92l-285 -710h-87l95 241l-191 469h91l147 -377zM105.5 573.5q-16.5 16.5 -16.5 38.5q0 24 16.5 40t39.5 16t39.5 -16t16.5 -40q0 -22 -16.5 -38.5t-39.5 -16.5t-39.5 16.5zM289.5 573.5q-16.5 16.5 -16.5 38.5q0 24 16.5 40t39.5 16t39.5 -16t16.5 -40
q0 -23 -16.5 -39t-39.5 -16t-39.5 16.5z" />
    <glyph glyph-name="uni1EF5" unicode="&#x1ef5;" horiz-adv-x="484" 
d="M384 470h92l-285 -710h-87l95 241l-191 469h91l147 -377zM326.5 -226.5q-16.5 16.5 -16.5 39.5q0 22 16.5 39t39.5 17q22 0 39 -17t17 -39q0 -23 -16.5 -39.5t-39.5 -16.5t-39.5 16.5z" />
    <glyph glyph-name="ygrave" unicode="&#x1ef3;" horiz-adv-x="484" 
d="M384 470h92l-285 -710h-87l95 241l-191 469h91l147 -377zM238 528l-164 141l48 53l147 -159z" />
    <glyph glyph-name="uni1EF7" unicode="&#x1ef7;" horiz-adv-x="484" 
d="M384 470h92l-285 -710h-87l95 241l-191 469h91l147 -377zM210 594q70 15 70 63q0 19 -13.5 32t-35.5 13q-27 0 -52 -17l-32 45q38 30 82 30q46 0 78 -29t32 -74q0 -32 -19.5 -57.5t-56.5 -36.5v-44h-53v75z" />
    <glyph glyph-name="uni1EF9" unicode="&#x1ef9;" horiz-adv-x="484" 
d="M384 470h92l-285 -710h-87l95 241l-191 469h91l147 -377zM211 576q-18 27 -40 27q-23 0 -35.5 -22t-12.5 -56h-61q0 60 29 99t78 39q54 0 92 -55q9 -13 18 -20t24 -7q23 0 35 19.5t12 58.5h60q0 -60 -28 -99t-79 -39q-55 0 -92 55z" />
    <glyph glyph-name="z" unicode="z" horiz-adv-x="470" 
d="M436 470l-261 -395h258v-75h-406l260 395h-242v75h391z" />
    <glyph glyph-name="zacute" unicode="&#x17a;" horiz-adv-x="470" 
d="M436 470l-261 -395h258v-75h-406l260 395h-242v75h391zM221 528l-32 35l148 159l47 -53z" />
    <glyph glyph-name="zcaron" unicode="&#x17e;" horiz-adv-x="470" 
d="M436 470l-261 -395h258v-75h-406l260 395h-242v75h391zM198 549l-98 145l43 26l98 -117l97 117l43 -26l-99 -145h-84z" />
    <glyph glyph-name="zdotaccent" unicode="&#x17c;" horiz-adv-x="470" 
d="M436 470l-261 -395h258v-75h-406l260 395h-242v75h391zM201.5 569.5q-16.5 16.5 -16.5 38.5q0 24 16.5 40t39.5 16t39.5 -16t16.5 -40q0 -22 -16.5 -38.5t-39.5 -16.5t-39.5 16.5z" />
    <glyph glyph-name="a.ss01" horiz-adv-x="498" 
d="M381 429.5q52 -50.5 52 -134.5v-295h-77v53q-60 -62 -147 -62q-70 0 -117 37.5t-47 103.5q0 63 46 103.5t139 49.5l126 13q-1 52 -31 80.5t-81 28.5q-37 0 -70.5 -15t-68.5 -44l-41 64q85 68 181 68q84 0 136 -50.5zM295.5 83.5q36.5 22.5 60.5 64.5v84l-98 -10
q-76 -8 -104 -31t-28 -57q0 -36 23.5 -54.5t65.5 -18.5q44 0 80.5 22.5z" />
    <glyph glyph-name="aacute.ss01" horiz-adv-x="498" 
d="M381 429.5q52 -50.5 52 -134.5v-295h-77v53q-60 -62 -147 -62q-70 0 -117 37.5t-47 103.5q0 63 46 103.5t139 49.5l126 13q-1 52 -31 80.5t-81 28.5q-37 0 -70.5 -15t-68.5 -44l-41 64q85 68 181 68q84 0 136 -50.5zM295.5 83.5q36.5 22.5 60.5 64.5v84l-98 -10
q-76 -8 -104 -31t-28 -57q0 -36 23.5 -54.5t65.5 -18.5q44 0 80.5 22.5zM223 528l-32 35l148 159l47 -53z" />
    <glyph glyph-name="abreve.ss01" horiz-adv-x="498" 
d="M381 429.5q52 -50.5 52 -134.5v-295h-77v53q-60 -62 -147 -62q-70 0 -117 37.5t-47 103.5q0 63 46 103.5t139 49.5l126 13q-1 52 -31 80.5t-81 28.5q-37 0 -70.5 -15t-68.5 -44l-41 64q85 68 181 68q84 0 136 -50.5zM295.5 83.5q36.5 22.5 60.5 64.5v84l-98 -10
q-76 -8 -104 -31t-28 -57q0 -36 23.5 -54.5t65.5 -18.5q44 0 80.5 22.5zM123.5 598q-46.5 42 -46.5 112h51q0 -43 32.5 -72.5t81.5 -29.5q50 0 82.5 29.5t32.5 72.5h51q0 -70 -46.5 -112t-119.5 -42q-72 0 -118.5 42z" />
    <glyph glyph-name="uni01CE.ss01" horiz-adv-x="498" 
d="M381 429.5q52 -50.5 52 -134.5v-295h-77v53q-60 -62 -147 -62q-70 0 -117 37.5t-47 103.5q0 63 46 103.5t139 49.5l126 13q-1 52 -31 80.5t-81 28.5q-37 0 -70.5 -15t-68.5 -44l-41 64q85 68 181 68q84 0 136 -50.5zM295.5 83.5q36.5 22.5 60.5 64.5v84l-98 -10
q-76 -8 -104 -31t-28 -57q0 -36 23.5 -54.5t65.5 -18.5q44 0 80.5 22.5zM200 549l-98 145l43 26l98 -117l97 117l43 -26l-99 -145h-84z" />
    <glyph glyph-name="acircumflex.ss01" horiz-adv-x="498" 
d="M381 429.5q52 -50.5 52 -134.5v-295h-77v53q-60 -62 -147 -62q-70 0 -117 37.5t-47 103.5q0 63 46 103.5t139 49.5l126 13q-1 52 -31 80.5t-81 28.5q-37 0 -70.5 -15t-68.5 -44l-41 64q85 68 181 68q84 0 136 -50.5zM295.5 83.5q36.5 22.5 60.5 64.5v84l-98 -10
q-76 -8 -104 -31t-28 -57q0 -36 23.5 -54.5t65.5 -18.5q44 0 80.5 22.5zM143 530l-41 25l98 145h84l99 -145l-42 -25l-98 116z" />
    <glyph glyph-name="adieresis.ss01" horiz-adv-x="498" 
d="M381 429.5q52 -50.5 52 -134.5v-295h-77v53q-60 -62 -147 -62q-70 0 -117 37.5t-47 103.5q0 63 46 103.5t139 49.5l126 13q-1 52 -31 80.5t-81 28.5q-37 0 -70.5 -15t-68.5 -44l-41 64q85 68 181 68q84 0 136 -50.5zM295.5 83.5q36.5 22.5 60.5 64.5v84l-98 -10
q-76 -8 -104 -31t-28 -57q0 -36 23.5 -54.5t65.5 -18.5q44 0 80.5 22.5zM111.5 573.5q-16.5 16.5 -16.5 38.5q0 24 16.5 40t39.5 16t39.5 -16t16.5 -40q0 -22 -16.5 -38.5t-39.5 -16.5t-39.5 16.5zM295.5 573.5q-16.5 16.5 -16.5 38.5q0 24 16.5 40t39.5 16t39.5 -16
t16.5 -40q0 -23 -16.5 -39t-39.5 -16t-39.5 16.5z" />
    <glyph glyph-name="agrave.ss01" horiz-adv-x="498" 
d="M381 429.5q52 -50.5 52 -134.5v-295h-77v53q-60 -62 -147 -62q-70 0 -117 37.5t-47 103.5q0 63 46 103.5t139 49.5l126 13q-1 52 -31 80.5t-81 28.5q-37 0 -70.5 -15t-68.5 -44l-41 64q85 68 181 68q84 0 136 -50.5zM295.5 83.5q36.5 22.5 60.5 64.5v84l-98 -10
q-76 -8 -104 -31t-28 -57q0 -36 23.5 -54.5t65.5 -18.5q44 0 80.5 22.5zM244 528l-164 141l48 53l147 -159z" />
    <glyph glyph-name="amacron.ss01" horiz-adv-x="498" 
d="M381 429.5q52 -50.5 52 -134.5v-295h-77v53q-60 -62 -147 -62q-70 0 -117 37.5t-47 103.5q0 63 46 103.5t139 49.5l126 13q-1 52 -31 80.5t-81 28.5q-37 0 -70.5 -15t-68.5 -44l-41 64q85 68 181 68q84 0 136 -50.5zM295.5 83.5q36.5 22.5 60.5 64.5v84l-98 -10
q-76 -8 -104 -31t-28 -57q0 -36 23.5 -54.5t65.5 -18.5q44 0 80.5 22.5zM88 572v56h310v-56h-310z" />
    <glyph glyph-name="aogonek.ss01" horiz-adv-x="498" 
d="M488 -208q-51 -51 -126 -51q-55 0 -88 27t-33 76q0 89 115 163v46q-60 -62 -147 -62q-70 0 -117 37.5t-47 103.5q0 63 46 103.5t139 49.5l126 13q-1 52 -31 80.5t-81 28.5q-37 0 -70.5 -15t-68.5 -44l-41 64q85 68 181 68q84 0 136 -50.5t52 -134.5v-295h-5
q-56 -23 -92.5 -59.5t-36.5 -77.5q0 -27 16 -40.5t42 -13.5q23 0 48 10.5t43 28.5zM295.5 83.5q36.5 22.5 60.5 64.5v84l-98 -10q-76 -8 -104 -31t-28 -57q0 -36 23.5 -54.5t65.5 -18.5q44 0 80.5 22.5z" />
    <glyph glyph-name="aring.ss01" horiz-adv-x="498" 
d="M381 429.5q52 -50.5 52 -134.5v-295h-77v53q-60 -62 -147 -62q-70 0 -117 37.5t-47 103.5q0 63 46 103.5t139 49.5l126 13q-1 52 -31 80.5t-81 28.5q-37 0 -70.5 -15t-68.5 -44l-41 64q85 68 181 68q84 0 136 -50.5zM295.5 83.5q36.5 22.5 60.5 64.5v84l-98 -10
q-76 -8 -104 -31t-28 -57q0 -36 23.5 -54.5t65.5 -18.5q44 0 80.5 22.5zM168.5 568q-31.5 31 -31.5 74t31 74t75 31q43 0 73.5 -31t30.5 -74t-30.5 -74t-73.5 -31t-74.5 31zM285.5 598.5q17.5 17.5 17.5 43.5q0 25 -17.5 43.5t-42.5 18.5t-42.5 -18.5t-17.5 -43.5
q0 -26 17 -43.5t43 -17.5q25 0 42.5 17.5z" />
    <glyph glyph-name="atilde.ss01" horiz-adv-x="498" 
d="M381 429.5q52 -50.5 52 -134.5v-295h-77v53q-60 -62 -147 -62q-70 0 -117 37.5t-47 103.5q0 63 46 103.5t139 49.5l126 13q-1 52 -31 80.5t-81 28.5q-37 0 -70.5 -15t-68.5 -44l-41 64q85 68 181 68q84 0 136 -50.5zM295.5 83.5q36.5 22.5 60.5 64.5v84l-98 -10
q-76 -8 -104 -31t-28 -57q0 -36 23.5 -54.5t65.5 -18.5q44 0 80.5 22.5zM217 576q-18 27 -40 27q-23 0 -35.5 -22t-12.5 -56h-61q0 60 29 99t78 39q54 0 92 -55q9 -13 18 -20t24 -7q23 0 35 19.5t12 58.5h60q0 -60 -28 -99t-79 -39q-55 0 -92 55z" />
    <glyph glyph-name="dcaron.ss01" horiz-adv-x="725" 
d="M536 750v-750h-82v67q-31 -36 -75.5 -56t-98.5 -20q-62 0 -116 33t-86.5 89t-32.5 122t32.5 122t86.5 89t116 33q54 0 98.5 -20t75.5 -56v347h82zM373.5 93q37.5 22 59 59.5t21.5 82.5t-21.5 82.5t-59 59.5t-82.5 22t-82.5 -22t-59.5 -59.5t-22 -82.5t22 -82.5
t59.5 -59.5t82.5 -22t82.5 22zM652 444h-61l49 306h94z" />
    <glyph glyph-name="gcommaaccent.ss01" 
d="M359 750l-49 -203h-94l82 203h61zM536 470v-470q0 -67 -33 -123t-89.5 -88.5t-123.5 -32.5q-71 0 -130.5 37t-90.5 98l66 46q21 -45 62.5 -73t92.5 -28q44 0 81.5 22t59.5 59.5t22 82.5v61q-29 -33 -70 -51.5t-94 -18.5q-66 0 -122 33t-89 89t-33 122q0 67 33 123
t89 88.5t122 32.5q53 0 94 -18.5t70 -51.5v61h83zM372.5 93q37.5 22 59.5 60t22 82q0 45 -22 82.5t-59.5 59.5t-81.5 22q-45 0 -82.5 -22t-59.5 -59.5t-22 -82.5q0 -44 22 -82t59.5 -60t82.5 -22q44 0 81.5 22z" />
    <glyph glyph-name="lcaron.ss01" horiz-adv-x="361" 
d="M90 0v750h82v-750h-82zM288 444h-61l49 306h94z" />
    <glyph glyph-name="tcaron.ss01" horiz-adv-x="326" 
d="M291 781h94l-82 -234h-61zM205 639v-169h98v-75h-98v-395h-83v395h-99v75h99v169h83z" />
    <glyph glyph-name="dcaron.ss02" horiz-adv-x="725" 
d="M536 750v-750h-82v67q-31 -36 -75.5 -56t-98.5 -20q-62 0 -116 33t-86.5 89t-32.5 122t32.5 122t86.5 89t116 33q54 0 98.5 -20t75.5 -56v347h82zM373.5 93q37.5 22 59 59.5t21.5 82.5t-21.5 82.5t-59 59.5t-82.5 22t-82.5 -22t-59.5 -59.5t-22 -82.5t22 -82.5
t59.5 -59.5t82.5 -22t82.5 22zM652 444h-61l49 306h94z" />
    <glyph glyph-name="gcommaaccent.ss02" 
d="M359 750l-49 -203h-94l82 203h61zM536 470v-470q0 -67 -33 -123t-89.5 -88.5t-123.5 -32.5q-71 0 -130.5 37t-90.5 98l66 46q21 -45 62.5 -73t92.5 -28q44 0 81.5 22t59.5 59.5t22 82.5v61q-29 -33 -70 -51.5t-94 -18.5q-66 0 -122 33t-89 89t-33 122q0 67 33 123
t89 88.5t122 32.5q53 0 94 -18.5t70 -51.5v61h83zM372.5 93q37.5 22 59.5 60t22 82q0 45 -22 82.5t-59.5 59.5t-81.5 22q-45 0 -82.5 -22t-59.5 -59.5t-22 -82.5q0 -44 22 -82t59.5 -60t82.5 -22q44 0 81.5 22z" />
    <glyph glyph-name="lcaron.ss02" horiz-adv-x="361" 
d="M90 0v750h82v-750h-82zM288 444h-61l49 306h94z" />
    <glyph glyph-name="tcaron.ss02" horiz-adv-x="326" 
d="M291 781h94l-82 -234h-61zM205 639v-169h98v-75h-98v-395h-83v395h-99v75h99v169h83z" />
    <glyph glyph-name="f_t" horiz-adv-x="612" 
d="M589 395h-98v-395h-83v395h-215v-395h-82v395h-79v75h79v145q0 67 38 106.5t102 39.5q45 0 64 -14v-81q-10 8 -25 13t-29 5q-31 0 -49.5 -21.5t-18.5 -57.5v-135h215v169h83v-169h98v-75z" />
    <glyph glyph-name="t_t" horiz-adv-x="602" 
d="M579 470v-75h-98v-395h-83v395h-193v-395h-83v395h-99v75h99v169h83v-169h193v169h83v-169h98z" />
    <glyph glyph-name="ordfeminine" unicode="&#xaa;" horiz-adv-x="420" 
d="M361 750v-300h-56v58q-19 -30 -49.5 -47t-68.5 -17q-41 0 -75.5 21t-55 56.5t-20.5 78.5q0 42 20.5 78t55 57t75.5 21q37 0 68 -17.5t50 -47.5v59h56zM273.5 524.5q31.5 31.5 31.5 75.5q0 43 -31.5 74t-75.5 31t-75 -30.5t-31 -74.5t31 -75.5t75 -31.5t75.5 31.5z" />
    <glyph glyph-name="ordmasculine" unicode="&#xba;" horiz-adv-x="397" 
d="M116.5 465q-37.5 21 -59 56.5t-21.5 78.5q0 42 21.5 78t59 57t81.5 21q45 0 82 -21t59 -57t22 -78q0 -43 -21.5 -78.5t-59 -56.5t-82.5 -21q-44 0 -81.5 21zM273.5 524.5q31.5 31.5 31.5 75.5q0 43 -31.5 74t-75.5 31t-75 -30.5t-31 -74.5t31 -75.5t75 -31.5t75.5 31.5z
" />
    <glyph glyph-name="uni0394" unicode="&#x394;" horiz-adv-x="748" 
d="M421 750l301 -750h-697l301 750h95zM147 75h453l-226 578z" />
    <glyph glyph-name="uni03A9" unicode="&#x3a9;" horiz-adv-x="896" 
d="M64 70h163v7q-62 49 -104 133t-42 184t47.5 181.5t131.5 128.5t190 47q108 0 191 -49t128 -131t45 -175q0 -100 -43.5 -186t-104.5 -133v-7h165v-70h-296v52q78 41 132 127.5t54 201.5q0 76 -32 145t-93.5 111.5t-144.5 42.5q-81 0 -144 -40t-98 -108.5t-35 -152.5
q0 -75 26.5 -141t69 -114t90.5 -72v-52h-296v70z" />
    <glyph glyph-name="uni03BC" unicode="&#x3bc;" horiz-adv-x="594" 
d="M495 470v-470h-81v68q-26 -36 -65.5 -56.5t-84.5 -20.5q-34 0 -65.5 12t-55.5 34v-272h-62v705h82v-284q0 -51 36 -87t88 -36q34 0 63.5 16.5t46.5 45t17 61.5v284h81z" />
    <glyph glyph-name="pi" unicode="&#x3c0;" horiz-adv-x="621" 
d="M122 185.5q21 114.5 26 211.5q-48 0 -72.5 -4.5t-47.5 -17.5l-12 69q45 26 150 26h428l-7 -73h-87v-257q0 -93 14 -140h-76q-15 26 -15 132v265l-198 1q-5 -95 -27.5 -217t-49.5 -181h-75q28 71 49 185.5z" />
    <glyph glyph-name="zero" unicode="0" horiz-adv-x="640" 
d="M182 40.5q-62 50.5 -97 138t-35 196.5q0 110 33.5 197.5t94.5 137.5t142 50q80 0 141.5 -50t95 -137.5t33.5 -197.5q0 -108 -35.5 -196t-97 -138.5t-137.5 -50.5t-138 50.5zM418.5 103.5q41.5 38.5 64 109t22.5 162.5q0 95 -24 163t-66 102.5t-94 34.5q-53 0 -95 -34.5
t-66 -102.5t-24 -163q0 -93 22.5 -163t64.5 -108.5t98 -38.5t97.5 38.5z" />
    <glyph glyph-name="one" unicode="1" horiz-adv-x="640" 
d="M300 0v665h-155v85h240v-750h-85z" />
    <glyph glyph-name="two" unicode="2" horiz-adv-x="640" 
d="M580 85v-85h-510v8q164 169 247.5 271.5t110.5 160.5t27 108q0 60 -38.5 94t-96.5 34q-62 0 -99 -38.5t-37 -100.5l-92 1q0 65 30.5 116t83 79t117.5 28q62 0 111.5 -25.5t77.5 -72.5t28 -109q0 -71 -35 -144.5t-96.5 -149.5t-156.5 -175h328z" />
    <glyph glyph-name="three" unicode="3" horiz-adv-x="640" 
d="M535.5 336.5q40.5 -51.5 40.5 -123.5q0 -66 -34 -117t-92.5 -78.5t-130.5 -27.5q-71 0 -130 27.5t-93 77t-34 113.5l85 1q0 -63 48.5 -101t123.5 -38q76 0 124 39.5t48 107.5t-48 106.5t-124 38.5h-76v80h72q59 0 94.5 35t35.5 87t-35 84t-95 32q-58 0 -94.5 -30.5
t-36.5 -79.5h-85q0 55 28.5 98.5t78 67.5t109.5 24t109 -24t77.5 -67.5t28.5 -99.5q0 -55 -28 -96t-79 -63q72 -22 112.5 -73.5z" />
    <glyph glyph-name="four" unicode="4" horiz-adv-x="640" 
d="M613 238v-80h-133v-158h-85v158h-362v55l341 537h106v-512h133zM145 238h250v408z" />
    <glyph glyph-name="five" unicode="5" horiz-adv-x="640" 
d="M462 467.5q55 -31.5 86 -88t31 -127.5q0 -75 -34 -134t-93.5 -92.5t-133.5 -33.5q-63 0 -119 25t-92.5 74.5t-42.5 119.5h90q11 -67 58.5 -101.5t106.5 -34.5q48 0 86 22.5t59.5 62t21.5 88.5q0 50 -21.5 89.5t-58.5 61.5t-82 22q-42 0 -81.5 -20t-65.5 -55h-89l68 404
h390v-82h-322l-38 -221q30 26 70 39t83 13q68 0 123 -31.5z" />
    <glyph glyph-name="six" unicode="6" horiz-adv-x="640" 
d="M531.5 120.5q-34.5 -58.5 -93 -93.5t-126.5 -35q-74 0 -136.5 33t-99 91.5t-36.5 130.5q0 90 64 169l265 334h105l-219 -261q28 11 72 11q53 0 109 -32t93 -89.5t37 -131.5q0 -68 -34.5 -126.5zM399.5 98q39.5 23 61.5 62t22 86q0 54 -24 95.5t-65.5 64t-90.5 22.5
q-54 0 -94.5 -23.5t-62.5 -64.5t-22 -91q0 -79 52.5 -126.5t134.5 -47.5q49 0 88.5 23z" />
    <glyph glyph-name="seven" unicode="7" horiz-adv-x="640" 
d="M80 750h520v-56l-388 -694h-100l382 669h-414v81z" />
    <glyph glyph-name="eight" unicode="8" horiz-adv-x="640" 
d="M527.5 334.5q33.5 -52.5 33.5 -117.5q0 -63 -31.5 -115t-87 -82t-122.5 -30q-66 0 -121 30t-87 82t-32 115q0 64 34 117t91 81q-41 24 -61.5 64.5t-20.5 93.5q0 52 26 94.5t71 67.5t101 25q55 0 100 -25t71 -67.5t26 -94.5q0 -53 -20.5 -93.5t-61.5 -64.5
q58 -28 91.5 -80.5zM236.5 644.5q-34.5 -34.5 -34.5 -84.5t34.5 -84t84.5 -34t84 34.5t34 83.5q0 50 -34 84.5t-84 34.5t-84.5 -34.5zM398.5 86.5q35.5 21.5 56 58t20.5 78.5q0 43 -20.5 78.5t-56 56t-78.5 20.5q-42 0 -77.5 -20.5t-56 -56t-20.5 -78.5q0 -42 20.5 -78.5
t56 -58t77.5 -21.5q43 0 78.5 21.5z" />
    <glyph glyph-name="nine" unicode="9" horiz-adv-x="640" 
d="M502 334l-265 -334h-105l219 261q-28 -11 -72 -11q-53 0 -109 32t-93 89.5t-37 131.5q0 68 34.5 126.5t93 93.5t126.5 35q74 0 136.5 -33t99 -91.5t36.5 -130.5q0 -90 -64 -169zM397.5 345.5q40.5 23.5 62.5 64.5t22 91q0 79 -52.5 126.5t-134.5 47.5q-49 0 -88.5 -23
t-61.5 -62t-22 -86q0 -54 24 -95.5t65.5 -64t90.5 -22.5q54 0 94.5 23.5z" />
    <glyph glyph-name="zero.dnom" horiz-adv-x="387" 
d="M72 57q-45 63 -45 168t45 168t121 63q50 0 88 -28.5t58.5 -81t20.5 -121.5t-20.5 -121.5t-58.5 -81t-88 -28.5q-76 0 -121 63zM254 114.5q24 42.5 24 110.5t-24 110.5t-60 42.5q-38 0 -61.5 -42.5t-23.5 -110.5t23.5 -110.5t61.5 -42.5q36 0 60 42.5z" />
    <glyph glyph-name="one.dnom" horiz-adv-x="236" 
d="M95 0v376h-65v74h146v-450h-81z" />
    <glyph glyph-name="two.dnom" horiz-adv-x="346" 
d="M320 74v-74h-295v42q89 94 132.5 147.5t57.5 80.5t14 49q0 33 -17.5 48t-41.5 15q-29 0 -44.5 -17.5t-15.5 -47.5h-81q0 64 39 102t103 38q61 0 99 -36t38 -98q0 -51 -34 -104.5t-123 -144.5h169z" />
    <glyph glyph-name="three.dnom" horiz-adv-x="354" 
d="M307 205q18 -30 18 -67q0 -39 -20 -72.5t-54 -52.5t-76 -19q-61 0 -103.5 38t-42.5 96l82 1q0 -25 19 -41.5t46 -16.5q29 0 48.5 20t19.5 49t-19 47t-48 18h-42v69h37q23 0 38.5 16t15.5 39t-15.5 37t-38.5 14q-22 0 -35.5 -13t-13.5 -33l-80 1q0 53 37 87t92 34
q54 0 91 -34t37 -84q0 -27 -11.5 -49t-31.5 -36q32 -18 50 -48z" />
    <glyph glyph-name="four.dnom" horiz-adv-x="376" 
d="M342 169v-74h-41v-95h-81v95h-214v51l187 304h108v-281h41zM104 169h116v198z" />
    <glyph glyph-name="five.dnom" horiz-adv-x="376" 
d="M309.5 266q38.5 -41 38.5 -108q0 -48 -21.5 -85.5t-58.5 -58t-82 -20.5q-64 0 -110.5 37t-49.5 99l86 2q5 -29 26.5 -44.5t50.5 -15.5q33 0 54.5 23t21.5 61q0 37 -22 59.5t-54 22.5q-20 0 -40 -11.5t-33 -30.5l-83 1l44 253h254v-73h-194l-17 -99q16 13 40 21t53 8
q58 0 96.5 -41z" />
    <glyph glyph-name="six.dnom" horiz-adv-x="377" 
d="M330.5 72q-22.5 -36 -59.5 -56.5t-81 -20.5q-45 0 -83 20t-60.5 55.5t-22.5 78.5q0 51 36 102l149 199h95l-114 -144q4 1 11 1q38 0 73.5 -21t57 -56.5t21.5 -78.5t-22.5 -79zM249.5 92q23.5 24 23.5 59q0 37 -24 61t-60 24q-38 0 -60.5 -24t-22.5 -61t23.5 -60t60.5 -23
q36 0 59.5 24z" />
    <glyph glyph-name="seven.dnom" horiz-adv-x="338" 
d="M28 450h307v-59l-212 -391h-93l210 377h-212v73z" />
    <glyph glyph-name="eight.dnom" horiz-adv-x="354" 
d="M314 201.5q18 -30.5 18 -67.5q0 -39 -20 -71t-55.5 -50.5t-79.5 -18.5t-79.5 18.5t-55.5 50.5t-20 71q0 37 18 67.5t50 48.5q-41 30 -41 88q0 50 36.5 84t91.5 34t91.5 -34t36.5 -84q0 -28 -10.5 -50.5t-30.5 -37.5q32 -18 50 -48.5zM136.5 288.5q16.5 -16.5 40.5 -16.5
t40.5 16.5t16.5 40.5q0 25 -16.5 41.5t-40.5 16.5t-40.5 -16.5t-16.5 -41.5q0 -24 16.5 -40.5zM229 87q21 22 21 54q0 31 -21 51.5t-52 20.5t-52 -20.5t-21 -51.5q0 -32 21 -54t52 -22t52 22z" />
    <glyph glyph-name="nine.dnom" horiz-adv-x="377" 
d="M270 435q38 -20 60.5 -55.5t22.5 -78.5q0 -51 -36 -102l-149 -199h-95l114 144l-11 -1q-38 0 -73 20.5t-57 56.5t-22 79t22.5 79t59.5 56.5t81 20.5q45 0 83 -20zM248.5 238q22.5 24 22.5 61t-23.5 60t-60.5 23q-36 0 -59.5 -24t-23.5 -59q0 -37 24 -61t60 -24
q38 0 60.5 24z" />
    <glyph glyph-name="zero.numr" horiz-adv-x="387" 
d="M72 361q-45 63 -45 168t45 168t121 63q50 0 88 -28.5t58.5 -81t20.5 -121.5t-20.5 -121.5t-58.5 -81t-88 -28.5q-76 0 -121 63zM254 418.5q24 42.5 24 110.5t-24 110.5t-60 42.5q-38 0 -61.5 -42.5t-23.5 -110.5t23.5 -110.5t61.5 -42.5q36 0 60 42.5z" />
    <glyph glyph-name="one.numr" horiz-adv-x="236" 
d="M95 300v376h-65v74h146v-450h-81z" />
    <glyph glyph-name="two.numr" horiz-adv-x="346" 
d="M320 374v-74h-295v42q89 94 132.5 147.5t57.5 80.5t14 49q0 33 -17.5 48t-41.5 15q-29 0 -44.5 -17.5t-15.5 -47.5h-81q0 64 39 102t103 38q61 0 99 -36t38 -98q0 -51 -34 -104.5t-123 -144.5h169z" />
    <glyph glyph-name="three.numr" horiz-adv-x="354" 
d="M307 505q18 -30 18 -67q0 -39 -20 -72.5t-54 -52.5t-76 -19q-61 0 -103.5 38t-42.5 96l82 1q0 -25 19 -41.5t46 -16.5q29 0 48.5 20t19.5 49t-19 47t-48 18h-42v69h37q23 0 38.5 16t15.5 39t-15.5 37t-38.5 14q-22 0 -35.5 -13t-13.5 -33l-80 1q0 53 37 87t92 34
q54 0 91 -34t37 -84q0 -27 -11.5 -49t-31.5 -36q32 -18 50 -48z" />
    <glyph glyph-name="four.numr" horiz-adv-x="376" 
d="M342 469v-74h-41v-95h-81v95h-214v51l187 304h108v-281h41zM104 469h116v198z" />
    <glyph glyph-name="five.numr" horiz-adv-x="376" 
d="M309.5 566q38.5 -41 38.5 -108q0 -48 -21.5 -85.5t-58.5 -58t-82 -20.5q-64 0 -110.5 37t-49.5 99l86 2q5 -29 26.5 -44.5t50.5 -15.5q33 0 54.5 23t21.5 61q0 37 -22 59.5t-54 22.5q-20 0 -40 -11.5t-33 -30.5l-83 1l44 253h254v-73h-194l-17 -99q16 13 40 21t53 8
q58 0 96.5 -41z" />
    <glyph glyph-name="six.numr" horiz-adv-x="377" 
d="M330.5 372q-22.5 -36 -59.5 -56.5t-81 -20.5q-45 0 -83 20t-60.5 55.5t-22.5 78.5q0 51 36 102l149 199h95l-114 -144q4 1 11 1q38 0 73.5 -21t57 -56.5t21.5 -78.5t-22.5 -79zM249.5 392q23.5 24 23.5 59q0 37 -24 61t-60 24q-38 0 -60.5 -24t-22.5 -61t23.5 -60
t60.5 -23q36 0 59.5 24z" />
    <glyph glyph-name="seven.numr" horiz-adv-x="338" 
d="M28 750h307v-59l-212 -391h-93l210 377h-212v73z" />
    <glyph glyph-name="eight.numr" horiz-adv-x="354" 
d="M314 501.5q18 -30.5 18 -67.5q0 -39 -20 -71t-55.5 -50.5t-79.5 -18.5t-79.5 18.5t-55.5 50.5t-20 71q0 37 18 67.5t50 48.5q-41 30 -41 88q0 50 36.5 84t91.5 34t91.5 -34t36.5 -84q0 -28 -10.5 -50.5t-30.5 -37.5q32 -18 50 -48.5zM136.5 588.5q16.5 -16.5 40.5 -16.5
t40.5 16.5t16.5 40.5q0 25 -16.5 41.5t-40.5 16.5t-40.5 -16.5t-16.5 -41.5q0 -24 16.5 -40.5zM229 387q21 22 21 54q0 31 -21 51.5t-52 20.5t-52 -20.5t-21 -51.5q0 -32 21 -54t52 -22t52 22z" />
    <glyph glyph-name="nine.numr" horiz-adv-x="377" 
d="M270 735q38 -20 60.5 -55.5t22.5 -78.5q0 -51 -36 -102l-149 -199h-95l114 144l-11 -1q-38 0 -73 20.5t-57 56.5t-22 79t22.5 79t59.5 56.5t81 20.5q45 0 83 -20zM248.5 538q22.5 24 22.5 61t-23.5 60t-60.5 23q-36 0 -59.5 -24t-23.5 -59q0 -37 24 -61t60 -24
q38 0 60.5 24z" />
    <glyph glyph-name="uni00B9" unicode="&#xb9;" horiz-adv-x="236" 
d="M95 300v376h-65v74h146v-450h-81z" />
    <glyph glyph-name="uni00B2" unicode="&#xb2;" horiz-adv-x="346" 
d="M320 374v-74h-295v42q89 94 132.5 147.5t57.5 80.5t14 49q0 33 -17.5 48t-41.5 15q-29 0 -44.5 -17.5t-15.5 -47.5h-81q0 64 39 102t103 38q61 0 99 -36t38 -98q0 -51 -34 -104.5t-123 -144.5h169z" />
    <glyph glyph-name="uni00B3" unicode="&#xb3;" horiz-adv-x="354" 
d="M307 505q18 -30 18 -67q0 -39 -20 -72.5t-54 -52.5t-76 -19q-61 0 -103.5 38t-42.5 96l82 1q0 -25 19 -41.5t46 -16.5q29 0 48.5 20t19.5 49t-19 47t-48 18h-42v69h37q23 0 38.5 16t15.5 39t-15.5 37t-38.5 14q-22 0 -35.5 -13t-13.5 -33l-80 1q0 53 37 87t92 34
q54 0 91 -34t37 -84q0 -27 -11.5 -49t-31.5 -36q32 -18 50 -48z" />
    <glyph glyph-name="fraction" unicode="&#x2044;" horiz-adv-x="249" 
d="M-180 0l523 750h86l-523 -750h-86z" />
    <glyph glyph-name="asterisk" unicode="*" horiz-adv-x="375" 
d="M124 454l-40 24l78 116l-142 -6v46l142 -8l-78 118l40 22l64 -122l63 122l41 -22l-79 -118l142 8v-46l-142 6l79 -116l-41 -24l-63 123z" />
    <glyph glyph-name="backslash" unicode="\" horiz-adv-x="599" 
d="M517 -170l-528 1000h80l527 -1000h-79z" />
    <glyph glyph-name="periodcentered" unicode="&#xb7;" horiz-adv-x="285" 
d="M110.5 328q-13.5 13 -13.5 32q0 18 13.5 31.5t31.5 13.5t32 -13.5t14 -31.5q0 -19 -14 -32t-32 -13t-31.5 13z" />
    <glyph glyph-name="bullet" unicode="&#x2022;" horiz-adv-x="479" 
d="M179 218q-28 16 -45 44t-17 62q0 32 17 60.5t45.5 45.5t60.5 17t60 -17t45 -45.5t17 -60.5q0 -34 -17 -62t-45 -44t-60 -16q-33 0 -61 16z" />
    <glyph glyph-name="colon" unicode=":" horiz-adv-x="312" 
d="M116.5 414.5q-16.5 16.5 -16.5 39.5t17 39.5t39 16.5q23 0 39.5 -16.5t16.5 -39.5t-16.5 -39.5t-39.5 -16.5t-39.5 16.5zM116.5 6.5q-16.5 16.5 -16.5 39.5t17 39.5t39 16.5q23 0 39.5 -16.5t16.5 -39.5t-16.5 -39.5t-39.5 -16.5t-39.5 16.5z" />
    <glyph glyph-name="comma" unicode="," horiz-adv-x="214" 
d="M190 25l-71 -209h-61l54 181q-14 7 -22 20t-8 29q0 23 17 39.5t39 16.5q23 0 39.5 -16.5t16.5 -39.5q0 -5 -2 -15z" />
    <glyph glyph-name="ellipsis" unicode="&#x2026;" horiz-adv-x="755" 
d="M334.5 6.5q-16.5 16.5 -16.5 39.5t17 39.5t39 16.5q23 0 39.5 -16.5t16.5 -39.5t-16.5 -39.5t-39.5 -16.5t-39.5 16.5zM614.5 6.5q-16.5 16.5 -16.5 39.5t17 39.5t39 16.5q23 0 39.5 -16.5t16.5 -39.5t-16.5 -39.5t-39.5 -16.5t-39.5 16.5zM61.5 6.5
q-16.5 16.5 -16.5 39.5t17 39.5t39 16.5q23 0 39.5 -16.5t16.5 -39.5t-16.5 -39.5t-39.5 -16.5t-39.5 16.5z" />
    <glyph glyph-name="exclam" unicode="!" horiz-adv-x="306" 
d="M112 216v534h82v-534h-82zM114 7q-17 17 -17 39q0 23 16.5 39.5t39.5 16.5t39.5 -16.5t16.5 -39.5q0 -22 -16.5 -39t-39.5 -17q-22 0 -39 17z" />
    <glyph glyph-name="exclamdown" unicode="&#xa1;" horiz-adv-x="306" 
d="M192.5 493.5q16.5 -16.5 16.5 -39.5t-16.5 -39.5t-39.5 -16.5t-39.5 16.5t-16.5 39.5t17 39.5t39 16.5q23 0 39.5 -16.5zM112 284h82v-534h-82v534z" />
    <glyph glyph-name="numbersign" unicode="#" horiz-adv-x="791" 
d="M189 0l25 175h-141l8 62h141l35 233h-142l10 61h139l26 176h60l-24 -176h189l25 176h61l-25 -176h142l-10 -61h-140l-33 -233h140l-8 -62h-140l-27 -175h-60l25 175h-191l-24 -175h-61zM284 237h189l34 233h-190z" />
    <glyph glyph-name="period" unicode="." horiz-adv-x="202" 
d="M61.5 6.5q-16.5 16.5 -16.5 39.5t17 39.5t39 16.5q23 0 39.5 -16.5t16.5 -39.5t-16.5 -39.5t-39.5 -16.5t-39.5 16.5z" />
    <glyph glyph-name="question" unicode="?" horiz-adv-x="546" 
d="M224 273q0 45 13 73t31.5 42.5t50.5 32.5q29 16 46 29.5t28.5 37t11.5 60.5q0 59 -40.5 96.5t-103.5 37.5q-60 0 -100 -38t-42 -96h-74q0 58 28.5 105t77.5 74t110 27q62 0 111.5 -26.5t77.5 -73.5t28 -106q0 -51 -15 -84t-36.5 -51t-55.5 -38q-37 -23 -54.5 -41.5
t-17.5 -51.5v-72h-75v63zM225.5 6.5q-16.5 16.5 -16.5 39.5t17 39.5t39 16.5q23 0 39.5 -16.5t16.5 -39.5t-16.5 -39.5t-39.5 -16.5t-39.5 16.5z" />
    <glyph glyph-name="questiondown" unicode="&#xbf;" horiz-adv-x="546" 
d="M297.5 494.5q16.5 -16.5 16.5 -39.5q0 -22 -16.5 -39t-39.5 -17t-39.5 16.5t-16.5 39.5t16.5 39.5t39.5 16.5t39.5 -16.5zM299 228q0 -45 -13 -73t-31.5 -42.5t-50.5 -32.5q-29 -16 -46 -29.5t-28.5 -37t-11.5 -60.5q0 -59 40.5 -96.5t103.5 -37.5q60 0 100 38t42 96h74
q0 -58 -28.5 -105t-77.5 -74t-110 -27q-62 0 -111.5 26.5t-77.5 73.5t-28 106q0 51 15 84t36.5 51t55.5 38q37 23 54.5 41.5t17.5 51.5v72h75v-63z" />
    <glyph glyph-name="quotedbl" unicode="&#x22;" horiz-adv-x="440" 
d="M97 436v314h78l1 -314h-79zM263 436l1 314h79v-314h-80z" />
    <glyph glyph-name="quotesingle" unicode="'" horiz-adv-x="272" 
d="M96 436v314h80v-314h-80z" />
    <glyph glyph-name="semicolon" unicode=";" horiz-adv-x="338" 
d="M134.5 414.5q-16.5 16.5 -16.5 39.5t16.5 39.5t39.5 16.5t39.5 -16.5t16.5 -39.5t-16.5 -39.5t-39.5 -16.5t-39.5 16.5zM213.5 85.5q16.5 -16.5 16.5 -39.5q0 -5 -2 -15l-2 -6l-71 -209h-61l54 181q-14 7 -22 20t-8 29q0 23 17 39.5t39 16.5q23 0 39.5 -16.5z" />
    <glyph glyph-name="slash" unicode="/" horiz-adv-x="599" 
d="M-11 -170l528 1000h79l-527 -1000h-80z" />
    <glyph glyph-name="comma.ss01" horiz-adv-x="214" 
d="M119 -184h-61l49 306h94z" />
    <glyph glyph-name="semicolon.ss01" horiz-adv-x="338" 
d="M134.5 414.5q-16.5 16.5 -16.5 39.5t16.5 39.5t39.5 16.5t39.5 -16.5t16.5 -39.5t-16.5 -39.5t-39.5 -16.5t-39.5 16.5zM156 -184h-61l49 306h94z" />
    <glyph glyph-name="comma.ss02" horiz-adv-x="214" 
d="M119 -184h-61l49 306h94z" />
    <glyph glyph-name="semicolon.ss02" horiz-adv-x="338" 
d="M134.5 414.5q-16.5 16.5 -16.5 39.5t16.5 39.5t39.5 16.5t39.5 -16.5t16.5 -39.5t-16.5 -39.5t-39.5 -16.5t-39.5 16.5zM156 -184h-61l49 306h94z" />
    <glyph glyph-name="braceleft" unicode="{" horiz-adv-x="309" 
d="M161.5 -213q-29.5 37 -29.5 91v243q0 50 -5 78t-21 48t-49 36v54q33 16 49 36t21 48.5t5 77.5v242q0 55 29.5 92t73.5 37h44v-59h-27q-30 0 -42.5 -22t-12.5 -66v-238q0 -62 -14 -104t-55 -71q41 -29 55 -71t14 -104v-239q0 -44 12.5 -65t42.5 -21h27v-60h-44
q-44 0 -73.5 37z" />
    <glyph glyph-name="braceright" unicode="}" horiz-adv-x="309" 
d="M30 -250v60h27q30 0 42.5 21t12.5 65v239q0 62 14 104t55 71q-41 29 -55 71t-14 104v238q0 44 -12.5 66t-42.5 22h-27v59h44q44 0 73.5 -37t29.5 -92v-242q0 -49 5 -77.5t21 -48.5t49 -36v-54q-33 -16 -49 -36t-21 -48t-5 -78v-243q0 -54 -29.5 -91t-73.5 -37h-44z" />
    <glyph glyph-name="bracketleft" unicode="[" horiz-adv-x="301" 
d="M70 -250v1120h201v-63h-129v-994h129v-63h-201z" />
    <glyph glyph-name="bracketright" unicode="]" horiz-adv-x="321" 
d="M251 -250h-201v63h129v994h-129v63h201v-1120z" />
    <glyph glyph-name="parenleft" unicode="(" horiz-adv-x="365" 
d="M130 -24.5q-55 138.5 -55 340.5q0 199 55 340t150 202l37 -50q-83 -57 -130 -182.5t-47 -309.5q0 -187 47 -310t130 -180l-37 -51q-95 62 -150 200.5z" />
    <glyph glyph-name="parenright" unicode=")" horiz-adv-x="364" 
d="M46 -174q83 57 130 180t47 310q0 184 -47 309.5t-130 182.5l37 50q95 -61 150 -202t55 -340q0 -202 -55 -340.5t-150 -200.5z" />
    <glyph glyph-name="emdash" unicode="&#x2014;" horiz-adv-x="1000" 
d="M0 228v64h1000v-64h-1000z" />
    <glyph glyph-name="endash" unicode="&#x2013;" horiz-adv-x="590" 
d="M45 228v64h500v-64h-500z" />
    <glyph glyph-name="hyphen" unicode="-" horiz-adv-x="440" 
d="M45 228v64h350v-64h-350z" />
    <glyph glyph-name="uni00AD" unicode="&#xad;" horiz-adv-x="620" 
d="M45 224v71h350v-71h-350z" />
    <glyph glyph-name="guillemotleft" unicode="&#xab;" horiz-adv-x="643" 
d="M270 95l-152 184l152 184h70l-152 -184l152 -184h-70zM454 95l-152 184l152 184h72l-152 -184l152 -184h-72z" />
    <glyph glyph-name="guillemotright" unicode="&#xbb;" horiz-adv-x="643" 
d="M117 95l152 184l-152 184h70l152 -184l-152 -184h-70zM301 95l152 184l-152 184h72l152 -184l-152 -184h-72z" />
    <glyph glyph-name="guilsinglleft" unicode="&#x2039;" horiz-adv-x="357" 
d="M210 95l-152 184l152 184h70l-152 -184l152 -184h-70z" />
    <glyph glyph-name="guilsinglright" unicode="&#x203a;" horiz-adv-x="357" 
d="M77 95l152 184l-152 184h70l152 -184l-152 -184h-70z" />
    <glyph glyph-name="quotedblbase" unicode="&#x201e;" horiz-adv-x="382" 
d="M358 25l-71 -209h-61l54 181q-14 7 -22 20t-8 29q0 23 17 39.5t39 16.5q23 0 39.5 -16.5t16.5 -39.5q0 -5 -2 -15zM190 25l-71 -209h-61l54 181q-14 7 -22 20t-8 29q0 23 17 39.5t39 16.5q23 0 39.5 -16.5t16.5 -39.5q0 -5 -2 -15z" />
    <glyph glyph-name="quotedblleft" unicode="&#x201c;" horiz-adv-x="382" 
d="M149 750l-54 -181q14 -7 22 -20t8 -29q0 -22 -16.5 -39t-39.5 -17q-22 0 -39 17t-17 39q0 5 2 15l2 6l71 209h61zM299 549q8 -13 8 -29q0 -22 -16.5 -39t-39.5 -17q-22 0 -39 17t-17 39q0 5 2 15l2 6l71 209h61l-54 -181q14 -7 22 -20z" />
    <glyph glyph-name="quotedblright" unicode="&#x201d;" horiz-adv-x="433" 
d="M401 683l-71 -209h-61l54 181q-14 7 -22 20t-8 29q0 23 17 39.5t39 16.5q23 0 39.5 -16.5t16.5 -39.5q0 -5 -2 -15zM213 682l-71 -209h-61l54 181q-14 7 -22 20t-8 29q0 23 17 39.5t39 16.5q23 0 39.5 -16.5t16.5 -39.5q0 -5 -2 -15z" />
    <glyph glyph-name="quoteleft" unicode="&#x2018;" horiz-adv-x="200" 
d="M117 549q8 -13 8 -29q0 -22 -16.5 -39t-39.5 -17q-22 0 -39 17t-17 39q0 5 2 15l2 6l71 209h61l-54 -181q14 -7 22 -20z" />
    <glyph glyph-name="quoteright" unicode="&#x2019;" horiz-adv-x="245" 
d="M213 683l-71 -209h-61l54 181q-14 7 -22 20t-8 29q0 23 17 39.5t39 16.5q23 0 39.5 -16.5t16.5 -39.5q0 -5 -2 -15z" />
    <glyph glyph-name="quotesinglbase" unicode="&#x201a;" horiz-adv-x="214" 
d="M190 25l-71 -209h-61l54 181q-14 7 -22 20t-8 29q0 23 17 39.5t39 16.5q23 0 39.5 -16.5t16.5 -39.5q0 -5 -2 -15z" />
    <glyph glyph-name="quotedblbase.ss01" horiz-adv-x="382" 
d="M358 25l-71 -209h-61l54 181q-14 7 -22 20t-8 29q0 23 17 39.5t39 16.5q23 0 39.5 -16.5t16.5 -39.5q0 -5 -2 -15zM190 25l-71 -209h-61l54 181q-14 7 -22 20t-8 29q0 23 17 39.5t39 16.5q23 0 39.5 -16.5t16.5 -39.5q0 -5 -2 -15z" />
    <glyph glyph-name="quotedblleft.ss01" horiz-adv-x="386" 
d="M95 750h61l-49 -306h-94zM274 750h61l-49 -306h-94z" />
    <glyph glyph-name="quotedblright.ss01" horiz-adv-x="431" 
d="M321 444h-61l49 306h94zM142 444h-61l49 306h94z" />
    <glyph glyph-name="quoteleft.ss01" horiz-adv-x="207" 
d="M95 750h61l-49 -306h-94z" />
    <glyph glyph-name="quoteright.ss01" horiz-adv-x="221" 
d="M119 444h-61l49 306h94z" />
    <glyph glyph-name="quotesinglbase.ss01" horiz-adv-x="221" 
d="M119 -184h-61l49 306h94z" />
    <glyph glyph-name="quotedblleft.ss02" horiz-adv-x="386" 
d="M95 750h61l-49 -306h-94zM274 750h61l-49 -306h-94z" />
    <glyph glyph-name="quotedblright.ss02" horiz-adv-x="431" 
d="M321 444h-61l49 306h94zM142 444h-61l49 306h94z" />
    <glyph glyph-name="quoteleft.ss02" horiz-adv-x="207" 
d="M95 750h61l-49 -306h-94z" />
    <glyph glyph-name="quoteright.ss02" horiz-adv-x="221" 
d="M119 444h-61l49 306h94z" />
    <glyph glyph-name="quotesinglbase.ss02" horiz-adv-x="221" 
d="M119 -184h-61l49 306h94z" />
    <glyph glyph-name="cent" unicode="&#xa2;" horiz-adv-x="546" 
d="M380 214q39 26 59 70l75 -34q-26 -60 -80 -98t-122 -43v-110h-53v111q-60 7 -109 41t-77 86.5t-28 114.5t28 114.5t77 86.5t109 41v107h53v-106q68 -5 122 -43t80 -98l-75 -34q-20 44 -59 70t-89 26q-46 0 -83.5 -21.5t-59 -59t-21.5 -83.5t21.5 -83.5t59 -59t83.5 -21.5
q50 0 89 26z" />
    <glyph glyph-name="currency" unicode="&#xa4;" horiz-adv-x="612" 
d="M176 188l-51 -52l-45 48l51 50q-43 56 -43 129q0 74 43 129l-50 49l45 48l51 -52q28 22 62 33.5t69 11.5q70 0 128 -44l50 50l46 -45l-50 -50q44 -58 44 -130t-44 -130l50 -49l-45 -48l-51 52q-58 -44 -130 -44t-130 44zM383.5 229q35.5 21 56.5 56.5t21 77.5t-21 77.5
t-56.5 56t-77.5 20.5t-77.5 -21t-56.5 -57t-21 -78t21 -77t56.5 -55.5t77.5 -20.5t77.5 21z" />
    <glyph glyph-name="dollar" unicode="$" horiz-adv-x="545" 
d="M460.5 60q-49.5 -53 -129.5 -66v-80h-81v78q-67 6 -124.5 38t-95.5 78l61 61q72 -103 186 -103q66 0 109.5 35.5t43.5 93.5q0 40 -21.5 68t-53.5 45.5t-88 41.5q-67 28 -107 51.5t-67 63t-27 98.5q0 83 51.5 135.5t132.5 60.5v79h81v-84q93 -18 159 -96l-51 -53
q-43 45 -80 62t-83 17q-55 0 -92.5 -31t-37.5 -84q0 -40 22 -67t54 -43.5t91 -40.5q62 -25 102 -49.5t67.5 -66t27.5 -104.5q0 -85 -49.5 -138z" />
    <glyph glyph-name="Euro" unicode="&#x20ac;" horiz-adv-x="783" 
d="M549 98.5q56 23.5 97 64.5l61 -60q-51 -51 -125 -82t-147 -31q-85 0 -159 33.5t-128 93.5t-79 137h-58v70h42q-3 26 -3 51q0 24 3 46h-42v70h57q24 78 77.5 139t128.5 95.5t161 34.5q73 0 147 -31t125 -82l-61 -60q-41 41 -97 64.5t-114 23.5q-93 0 -168.5 -50.5
t-108.5 -133.5h346v-70h-366q-3 -22 -3 -46q0 -28 4 -51h365v-70h-344q35 -81 109 -130t166 -49q58 0 114 23.5z" />
    <glyph glyph-name="florin" unicode="&#x192;" horiz-adv-x="468" 
d="M313 660q-27 -25 -34 -66l-15 -94h138l-11 -78h-140l-107 -672h-91l106 672h-84l12 78h84l17 107q7 42 33.5 77t65.5 55.5t81 20.5q21 0 40.5 -5t28.5 -12l-9 -74q-19 16 -50 16q-38 0 -65 -25z" />
    <glyph glyph-name="sterling" unicode="&#xa3;" horiz-adv-x="628" 
d="M204 80h357v-80h-524v74l80 4v250h-80v75h80v118q0 69 29.5 123.5t82.5 85t121 30.5q73 0 135.5 -46t84.5 -116l-83 -37q-8 48 -48 80t-89 32q-66 0 -106 -42t-40 -110v-118h186v-75h-186v-248z" />
    <glyph glyph-name="yen" unicode="&#xa5;" horiz-adv-x="608" 
d="M608 750l-257 -389h194v-70h-198v-84h197v-70h-197v-137h-85v137h-198v70h198v84h-198v70h193l-257 389h106l199 -307l199 307h104z" />
    <glyph glyph-name="plus" unicode="+" horiz-adv-x="668" 
d="M295 92v199h-199v78h199v199h78v-199h199v-78h-199v-199h-78z" />
    <glyph glyph-name="minus" unicode="&#x2212;" horiz-adv-x="545" 
d="M96 291v78h353v-78h-353z" />
    <glyph glyph-name="multiply" unicode="&#xd7;" horiz-adv-x="564" 
d="M150 138l-54 55l131 131l-131 130l54 55l132 -130l131 130l55 -55l-132 -130l132 -131l-55 -55l-131 131z" />
    <glyph glyph-name="divide" unicode="&#xf7;" horiz-adv-x="545" 
d="M230 463q-17 17 -17 41t17.5 41.5t40.5 17.5q24 0 42 -17.5t18 -41.5t-18 -41t-42 -17t-41 17zM96 291v78h353v-78h-353zM230 114q-17 17 -17 42q0 23 17.5 40.5t40.5 17.5q24 0 42 -17.5t18 -40.5q0 -25 -18 -42t-42 -17t-41 17z" />
    <glyph glyph-name="equal" unicode="=" horiz-adv-x="545" 
d="M96 393v78h353v-78h-353zM96 191v77h353v-77h-353z" />
    <glyph glyph-name="greater" unicode="&#x3e;" horiz-adv-x="738" 
d="M93 675l552 -277v-93l-552 -279v88l471 238l-471 237v86z" />
    <glyph glyph-name="less" unicode="&#x3c;" horiz-adv-x="738" 
d="M645 675v-86l-471 -237l471 -238v-88l-552 279v93z" />
    <glyph glyph-name="greaterequal" unicode="&#x2265;" horiz-adv-x="798" 
d="M123 703l552 -252v-94l-552 -255v88l466 214l-466 213v86zM123 0v62h552v-62h-552z" />
    <glyph glyph-name="lessequal" unicode="&#x2264;" horiz-adv-x="798" 
d="M675 703v-86l-466 -213l466 -214v-88l-552 255v94zM123 0v62h552v-62h-552z" />
    <glyph glyph-name="approxequal" unicode="&#x2248;" horiz-adv-x="607" 
d="M333 338q-30 21 -61 55q-18 20 -33 29t-33 9q-36 0 -57 -29.5t-20 -74.5h-73q-2 80 39.5 129t111.5 49q38 0 66 -17.5t60 -55.5q19 -22 33.5 -33t36.5 -11q33 0 54.5 28.5t20.5 75.5h73q2 -76 -37.5 -125.5t-104.5 -49.5q-46 0 -76 21zM350.5 122.5q-25.5 11.5 -41 25.5
t-37.5 38q-19 21 -33 30t-33 9q-36 -1 -57 -30t-20 -74h-73q-2 80 39.5 129t111.5 49q38 0 66.5 -17.5t59.5 -55.5q17 -21 32.5 -32.5t37.5 -11.5q34 0 55 28.5t20 75.5h73q2 -76 -37.5 -125.5t-104.5 -49.5q-33 0 -58.5 11.5z" />
    <glyph glyph-name="asciitilde" unicode="~" horiz-adv-x="584" 
d="M321 188q-30 21 -61 55q-18 21 -33 30t-33 9q-36 0 -57 -30t-20 -75h-73q-3 52 15 92.5t53.5 63t82.5 22.5q39 0 67.5 -17.5t58.5 -54.5q18 -22 33 -33t37 -11q34 0 56 28.5t19 75.5h73l1 -17q0 -69 -40.5 -114t-102.5 -45q-46 0 -76 21z" />
    <glyph glyph-name="logicalnot" unicode="&#xac;" horiz-adv-x="801" 
d="M636 110v256h-543v73h615v-329h-72z" />
    <glyph glyph-name="emptyset" unicode="&#x2205;" horiz-adv-x="830" 
d="M694.5 398q19.5 -51 19.5 -107q0 -81 -40.5 -149.5t-109 -109t-149.5 -40.5q-56 0 -107 19.5t-91 55.5l-43 -43l-26 26l43 43q-36 40 -55.5 91t-19.5 107q0 81 40.5 149.5t109 109t149.5 40.5q56 0 107 -19.5t91 -55.5l43 43l26 -26l-43 -43q36 -40 55.5 -91zM200 210.5
q14 -38.5 40 -68.5l324 324q-30 26 -68.5 40t-80.5 14q-62 0 -115 -30.5t-83.5 -83.5t-30.5 -115q0 -42 14 -80.5zM530 92.5q53 30.5 83.5 83.5t30.5 115q0 42 -14 80.5t-40 68.5l-324 -324q30 -26 68.5 -40t80.5 -14q62 0 115 30.5z" />
    <glyph glyph-name="infinity" unicode="&#x221e;" horiz-adv-x="780" 
d="M105.5 183q-40.5 43 -42.5 108q2 65 42.5 108t101.5 43q43 0 90 -26t93 -74q45 48 92.5 74t90.5 26q63 0 102.5 -41.5t41.5 -109.5q-2 -68 -41.5 -109.5t-102.5 -41.5q-43 0 -90.5 26t-92.5 74q-46 -48 -93 -74t-90 -26q-61 0 -101.5 43zM271.5 229.5
q35.5 21.5 73.5 61.5q-38 40 -73.5 61.5t-64.5 21.5q-31 0 -53 -24t-23 -59q1 -35 23 -59t53 -24q29 0 64.5 21.5zM626.5 231q21.5 23 22.5 60q-1 37 -22.5 60t-53.5 23q-30 0 -65.5 -21.5t-72.5 -61.5q37 -40 72.5 -61.5t65.5 -21.5q32 0 53.5 23z" />
    <glyph glyph-name="integral" unicode="&#x222b;" horiz-adv-x="420" 
d="M18 -139q79 0 114 33.5t35 109.5v555q0 43 18.5 76.5t50 52.5t69.5 19q56 0 97 -34l-43 -66q-20 19 -49 19q-26 0 -43.5 -18.5t-17.5 -55.5v-549q0 -107 -62 -166.5t-169 -59.5v84z" />
    <glyph glyph-name="product" unicode="&#x220f;" horiz-adv-x="758" 
d="M705 703v-74h-73v-629h-74v629h-358v-629h-74v629h-73v74h652z" />
    <glyph glyph-name="summation" unicode="&#x2211;" horiz-adv-x="763" 
d="M93 -118v60l360 350l-360 350v61h577v-79h-443l334 -332l-334 -332h443v-79z" />
    <glyph glyph-name="radical" unicode="&#x221a;" horiz-adv-x="745" 
d="M254 -78l-113 348h-68v68h117l99 -304l349 730l63 -26l-390 -816h-57z" />
    <glyph glyph-name="uni00B5" unicode="&#xb5;" horiz-adv-x="597" 
d="M524 500v-500h-82v74q-28 -39 -69.5 -61.5t-90.5 -22.5q-37 0 -71 13.5t-61 38.5v-292h-63v750h82v-303q0 -36 18 -67t49 -49t68 -18t69 18t50.5 49t18.5 67v303h82z" />
    <glyph glyph-name="partialdiff" unicode="&#x2202;" horiz-adv-x="549" 
d="M214 709q79 0 143 -49t100.5 -135.5t36.5 -193.5q0 -91 -32 -165t-87.5 -117t-123.5 -43q-89 0 -140.5 50.5t-51.5 133.5q0 53 22 112q32 85 92.5 132.5t133.5 47.5q45 0 89 -19q-22 83 -72 129.5t-118 46.5q-20 0 -30 -2v69q20 3 38 3zM410 389q-47 31 -94 31
q-51 0 -92.5 -36t-66.5 -103q-17 -48 -17 -87q0 -57 30.5 -91.5t81.5 -34.5q42 0 78.5 34t58.5 94t23 132q0 41 -2 61z" />
    <glyph glyph-name="percent" unicode="%" horiz-adv-x="687" 
d="M86.5 474q-35.5 21 -56 56.5t-20.5 77.5q0 41 20.5 76t56 55.5t77.5 20.5q41 0 76 -20.5t55.5 -55.5t20.5 -76q0 -42 -20.5 -77.5t-55.5 -56.5t-76 -21q-42 0 -77.5 21zM159 0h-90l458 750h88zM224 546.5q25 25.5 25 61.5q0 35 -25 60t-60 25q-36 0 -61.5 -25t-25.5 -60
q0 -36 25.5 -61.5t61.5 -25.5q35 0 60 25.5zM447 12.5q-35 20.5 -55.5 56t-20.5 77.5q0 41 20.5 76t56 55.5t76.5 20.5t76.5 -20.5t56 -55.5t20.5 -76q0 -42 -20.5 -77.5t-56 -56t-76.5 -20.5q-42 0 -77 20.5zM585 84.5q25 25.5 25 61.5q0 35 -25.5 60t-60.5 25
q-36 0 -61 -25t-25 -60q0 -36 25 -61.5t61 -25.5t61 25.5z" />
    <glyph glyph-name="perthousand" unicode="&#x2030;" horiz-adv-x="1036" 
d="M86.5 474q-35.5 21 -56 56.5t-20.5 77.5q0 41 20.5 76t56 55.5t77.5 20.5q41 0 76 -20.5t55.5 -55.5t20.5 -76q0 -42 -20.5 -77.5t-55.5 -56.5t-76 -21q-42 0 -77.5 21zM159 0h-90l458 750h88zM224 546.5q25 25.5 25 61.5q0 35 -25 60t-60 25q-36 0 -61.5 -25t-25.5 -60
q0 -36 25.5 -61.5t61.5 -25.5q35 0 60 25.5zM447 12.5q-35 20.5 -55.5 56t-20.5 77.5q0 41 20.5 76t56 55.5t76.5 20.5t76.5 -20.5t56 -55.5t20.5 -76q0 -42 -20.5 -77.5t-56 -56t-76.5 -20.5q-42 0 -77 20.5zM796 12.5q-35 20.5 -55.5 56t-20.5 77.5q0 41 20.5 76t56 55.5
t76.5 20.5t76.5 -20.5t56 -55.5t20.5 -76q0 -42 -20.5 -77.5t-56 -56t-76.5 -20.5q-42 0 -77 20.5zM585 84.5q25 25.5 25 61.5q0 35 -25.5 60t-60.5 25q-36 0 -61 -25t-25 -60q0 -36 25 -61.5t61 -25.5t61 25.5zM934 84.5q25 25.5 25 61.5q0 35 -25.5 60t-60.5 25
q-36 0 -61 -25t-25 -60q0 -36 25 -61.5t61 -25.5t61 25.5z" />
    <glyph glyph-name="arrowup" unicode="&#x2191;" horiz-adv-x="533" 
d="M198 0v507h-128l188 243l188 -243h-127v-507h-121z" />
    <glyph glyph-name="uni2197" unicode="&#x2197;" horiz-adv-x="565" 
d="M-49 154l358 358l-90 91l305 39l-39 -305l-90 90l-358 -359z" />
    <glyph glyph-name="arrowright" unicode="&#x2192;" horiz-adv-x="870" 
d="M103 416h507v128l243 -188l-243 -188v127h-507v121z" />
    <glyph glyph-name="uni2198" unicode="&#x2198;" horiz-adv-x="566" 
d="M-48 596l86 86l358 -359l90 90l39 -305l-305 39l90 91z" />
    <glyph glyph-name="arrowdown" unicode="&#x2193;" horiz-adv-x="516" 
d="M198 750h121v-507h127l-188 -243l-188 243h128v507z" />
    <glyph glyph-name="uni2199" unicode="&#x2199;" horiz-adv-x="566" 
d="M620 596l-358 -358l90 -91l-305 -39l39 305l90 -90l358 359z" />
    <glyph glyph-name="arrowleft" unicode="&#x2190;" horiz-adv-x="870" 
d="M773 416v-121h-507v-127l-243 188l243 188v-128h507z" />
    <glyph glyph-name="uni2196" unicode="&#x2196;" horiz-adv-x="565" 
d="M620 154l-86 -86l-358 359l-90 -90l-39 305l305 -39l-90 -91z" />
    <glyph glyph-name="arrowboth" unicode="&#x2194;" horiz-adv-x="886" 
d="M193 144l-243 189l243 188v-127l500 -1v127l243 -188l-243 -188v128l-500 1v-129z" />
    <glyph glyph-name="arrowupdn" unicode="&#x2195;" horiz-adv-x="516" 
d="M258 -71l-188 243h128v328h-128l188 243l188 -243h-127v-328h127z" />
    <glyph glyph-name="lozenge" unicode="&#x25ca;" horiz-adv-x="798" 
d="M399 52l-302 301l302 302l301 -301zM400 145l207 209l-207 208l-209 -209z" />
    <glyph glyph-name="uniF8FF" unicode="&#xf8ff;" horiz-adv-x="954" 
d="M287 51.5q-87 51.5 -138.5 138.5t-51.5 190t51.5 190.5t138.5 138.5t190 51t190.5 -51t138.5 -138.5t51 -190.5t-51 -190t-138.5 -138.5t-190.5 -51.5t-190 51.5zM649 82.5q79 46.5 125.5 125.5t46.5 172t-46.5 172t-125.5 125.5t-172 46.5t-172 -46.5t-125.5 -125.5
t-46.5 -172t46.5 -172t125.5 -125.5t172 -46.5t172 46.5zM664 223l-145 144q-5 7 -5 13q0 8 5 13l145 145q5 5 13 5t12 -5q5 -4 5 -13q0 -8 -5 -13l-132 -132l132 -132q5 -5 5 -12q0 -6 -5 -13q-4 -6 -13 -6q-7 0 -12 6zM265.5 222.5q-5.5 5.5 -5.5 12.5v290q0 8 5.5 13
t12.5 5q8 0 13 -5t5 -13v-290q0 -7 -5 -12.5t-13 -5.5q-7 0 -12.5 5.5zM464.5 222.5q-5.5 5.5 -5.5 12.5v290q0 8 5.5 13t12.5 5q8 0 13 -5t5 -13v-290q0 -7 -5 -12.5t-13 -5.5q-7 0 -12.5 5.5zM319.5 367.5q-5.5 5.5 -5.5 12.5q0 8 5.5 13t12.5 5h91q8 0 13 -5t5 -13
q0 -7 -5 -12.5t-13 -5.5h-91q-7 0 -12.5 5.5z" />
    <glyph glyph-name="at" unicode="@" horiz-adv-x="811" 
d="M226.5 -66.5q-84.5 45.5 -133 128.5t-48.5 190q0 103 50 187.5t136 132.5t191 48q93 0 171.5 -36.5t125.5 -108t47 -171.5q0 -76 -25.5 -130t-67.5 -81.5t-93 -27.5q-39 0 -62.5 20.5t-27.5 51.5h-2q-18 -29 -51.5 -50t-73.5 -21q-63 0 -100.5 43.5t-37.5 113.5
q0 58 24.5 108.5t68.5 81t99 30.5q37 0 65.5 -16.5t40.5 -42.5h2l10 46h60l-38 -194q-8 -35 -8 -59q0 -26 10.5 -39.5t35.5 -13.5q46 0 76.5 47t30.5 126q0 81 -35 140.5t-99 91t-147 31.5q-89 0 -158 -39.5t-107.5 -110t-38.5 -159.5q0 -92 40 -160.5t110 -105.5t157 -37
q76 0 136 21.5t112 65.5l37 -46q-57 -50 -131 -75.5t-161 -25.5q-106 0 -190.5 45.5zM442.5 153q26.5 25 39.5 61.5t13 70.5q0 43 -18.5 70t-59.5 27q-35 0 -61.5 -24t-40.5 -61.5t-14 -76.5q0 -36 18 -64t58 -28q39 0 65.5 25z" />
    <glyph glyph-name="ampersand" unicode="&#x26;" horiz-adv-x="716" 
d="M154 15.5q-49 27.5 -76.5 77t-27.5 111.5q0 50 19 87t52 68t96 79q-41 48 -59 86.5t-18 77.5q0 45 20.5 81t57.5 56.5t84 20.5t84 -20t58 -55.5t21 -78.5q0 -36 -16 -66t-41.5 -55t-71.5 -62l149 -193l85 108l63 -50l-96 -121l129 -167l-107 -2l-80 105q-53 -55 -105 -85
t-108 -30q-63 0 -112 27.5zM342.5 520q18.5 16 31 36.5t12.5 46.5q0 37 -26 60t-62 23q-37 0 -58.5 -23t-21.5 -62q0 -30 13 -52.5t31 -44l24 -28.5q38 28 56.5 44zM343 95.5q41 26.5 85 72.5l-160 208q-49 -36 -76.5 -60t-44 -51.5t-16.5 -60.5q0 -34 17 -65t47 -50.5
t65 -19.5q42 0 83 26.5z" />
    <glyph glyph-name="paragraph" unicode="&#xb6;" horiz-adv-x="630" 
d="M317 415h-32q-84 0 -131 43.5t-47 124.5t47 124t131 43h78v-900h-46v565zM457 -150v900h46v-900h-46z" />
    <glyph glyph-name="section" unicode="&#xa7;" horiz-adv-x="512" 
d="M456.5 -18q20.5 -36 20.5 -87q0 -60 -27 -104.5t-74.5 -69t-105.5 -24.5q-65 0 -120 28.5t-87 73.5l68 54q22 -34 57.5 -52.5t79.5 -18.5q53 0 88.5 27.5t35.5 79.5q0 36 -20 62t-50 43t-81 40q-64 29 -103 53.5t-67 66t-28 103.5q0 95 66 155q-79 57 -79 148
q0 61 27.5 106.5t74.5 70t106 24.5q65 0 119.5 -28.5t86.5 -73.5l-68 -54q-22 34 -57 52.5t-79 18.5q-53 0 -89 -28t-36 -79q0 -36 20 -62t50 -43t81 -40q64 -29 103 -53.5t67 -66t28 -103.5q0 -49 -17 -88.5t-48 -66.5q37 -28 57.5 -64zM149.5 195q21.5 -28 53 -46.5
t86.5 -42.5l28 -13q29 16 45.5 42t16.5 61q0 39 -21 67t-53.5 46.5t-85.5 42.5l-28 13q-63 -33 -63 -103q0 -39 21.5 -67z" />
    <glyph glyph-name="copyright" unicode="&#xa9;" horiz-adv-x="870" 
d="M242.5 42q-88.5 52 -140.5 140.5t-52 192.5t52 192.5t140.5 140.5t192.5 52t192.5 -52t140.5 -140.5t52 -192.5t-52 -192.5t-140.5 -140.5t-192.5 -52t-192.5 52zM604.5 84q77.5 45 122.5 122t45 169t-45 169t-122.5 122t-169.5 45t-169 -45t-122 -122t-45 -169t45 -169
t122 -122t169 -45t169.5 45zM328 189.5q-49 28.5 -77.5 77.5t-28.5 108t28.5 108t77.5 77.5t108 28.5q40 0 81 -17t70 -46l-34 -33q-22 23 -53.5 36t-63.5 13q-46 0 -84 -22t-60.5 -60.5t-22.5 -84.5t22.5 -84t60.5 -60t84 -22q32 0 63.5 13t53.5 36l34 -34q-29 -29 -70 -46
t-81 -17q-59 0 -108 28.5z" />
    <glyph glyph-name="registered" unicode="&#xae;" horiz-adv-x="870" 
d="M627.5 708q88.5 -52 140.5 -140.5t52 -192.5t-52 -192.5t-140.5 -140.5t-192.5 -52t-192.5 52t-140.5 140.5t-52 192.5t52 192.5t140.5 140.5t192.5 52t192.5 -52zM604.5 84q77.5 45 122.5 122t45 169t-45 169t-122.5 122t-169.5 45t-169 -45t-122 -122t-45 -169t45 -169
t122 -122t169 -45t169.5 45zM585.5 405q-23.5 -34 -61.5 -49l100 -223h-59l-96 214h-116v-214h-55v484h175q37 0 68.5 -18t49.5 -49t18 -68q0 -43 -23.5 -77zM353 400h115q37 0 61.5 21.5t24.5 59.5q0 37 -24.5 60t-61.5 23h-115v-164z" />
    <glyph glyph-name="trademark" unicode="&#x2122;" horiz-adv-x="792" 
d="M47 704v46h241v-46h-95v-305h-52v305h-94zM640 750h55v-351h-51v270l-130 -193l-129 191v-268h-52v351h56l125 -187z" />
    <glyph glyph-name="degree" unicode="&#xb0;" horiz-adv-x="610" 
d="M224 552q-37 22 -58.5 59t-21.5 80q0 44 21.5 81t58.5 58.5t81 21.5q43 0 80 -21.5t59 -58.5t22 -81q0 -43 -22 -80t-59 -59t-80 -22q-44 0 -81 22zM388 608q34 34 34 83t-34 83t-83 34t-83 -34t-34 -83t34 -83t83 -34t83 34z" />
    <glyph glyph-name="bar" unicode="|" horiz-adv-x="298" 
d="M121 -150v900h55v-900h-55z" />
    <glyph glyph-name="brokenbar" unicode="&#xa6;" horiz-adv-x="298" 
d="M121 390v360h55v-360h-55zM121 -150v360h55v-360h-55z" />
    <glyph glyph-name="uni2113" unicode="&#x2113;" horiz-adv-x="615" 
d="M195.5 50.5q-49.5 55.5 -56.5 136.5v11l-48 -35l-22 -17l-26 49q30 24 45 34l23.5 18.5t26.5 21.5v292q0 137 53.5 198.5t131.5 61.5q74 0 112.5 -50.5t38.5 -126.5q0 -96 -65 -192t-189 -205v-28q0 -77 40 -117t96 -40q54 0 99 34t71 80l41 -36q-41 -73 -99.5 -109
t-129.5 -36q-93 0 -142.5 55.5zM361 491.5q50 75.5 50 148.5q0 120 -89 120q-25 0 -48.5 -18t-39 -60.5t-15.5 -109.5v-246q92 90 142 165.5z" />
    <glyph glyph-name="dagger" unicode="&#x2020;" horiz-adv-x="677" 
d="M539 473v-56h-175v-587h-56v587h-171v56h171v197h56v-197h175z" />
    <glyph glyph-name="daggerdbl" unicode="&#x2021;" horiz-adv-x="677" 
d="M539 417h-175v-330h175v-55h-175v-202h-56v202h-171v55h171v330h-171v56h171v197h56v-197h175v-56z" />
    <glyph glyph-name="estimated" unicode="&#x212e;" horiz-adv-x="948" 
d="M259 42.5q-98 51.5 -155.5 139.5t-57.5 192q0 105 57.5 193.5t155.5 140.5t214 52q117 0 215 -52t155.5 -140.5t57.5 -193.5v-10h-692q-6 0 -6 -4v-210q0 -11 9 -24q52 -53 119.5 -83.5t142.5 -30.5q81 0 153 34t123 94h61q-58 -69 -147 -109t-191 -40q-116 0 -214 51.5z
M740 385q4 0 4 7v210q0 16 -10 25q-52 51 -119 80.5t-141 29.5t-141 -30t-120 -83q-10 -12 -10 -26v-206q0 -2 1.5 -4.5t4.5 -2.5h531z" />
    <glyph glyph-name="uni2116" unicode="&#x2116;" horiz-adv-x="1329" 
d="M569 189v561h84v-766h-27l-445 578v-562h-85v766h27zM915.5 214q-56.5 33 -89.5 89t-33 122t33 122t89.5 89t123.5 33t123 -33t89 -89t33 -122t-33 -122t-89 -89t-123 -33t-123.5 33zM956.5 567q-37.5 -22 -59.5 -59.5t-22 -82.5t22 -82.5t59.5 -59.5t82.5 -22
q44 0 81.5 22t59.5 59.5t22 82.5t-22 82.5t-59.5 59.5t-81.5 22q-45 0 -82.5 -22zM813 0v62h451v-62h-451z" />
    <glyph glyph-name="asciicircum" unicode="^" horiz-adv-x="706" 
d="M668 198h-71l-244 485l-245 -485h-71l278 552h75z" />
    <glyph glyph-name="uni0308" unicode="&#x308;" horiz-adv-x="0" 
d="M-324.5 573.5q-16.5 16.5 -16.5 38.5q0 24 16.5 40t39.5 16t39.5 -16t16.5 -40q0 -22 -16.5 -38.5t-39.5 -16.5t-39.5 16.5zM-140.5 573.5q-16.5 16.5 -16.5 38.5q0 24 16.5 40t39.5 16t39.5 -16t16.5 -40q0 -23 -16.5 -39t-39.5 -16t-39.5 16.5z" />
    <glyph glyph-name="uni0307" unicode="&#x307;" horiz-adv-x="0" 
d="M-140.5 609.5q-16.5 16.5 -16.5 38.5q0 24 16.5 40t39.5 16t39.5 -16t16.5 -40q0 -22 -16.5 -38.5t-39.5 -16.5t-39.5 16.5z" />
    <glyph glyph-name="gravecomb" unicode="&#x300;" horiz-adv-x="0" 
d="M-76 558l-164 141l48 53l147 -159z" />
    <glyph glyph-name="acutecomb" unicode="&#x301;" horiz-adv-x="0" 
d="M-208 558l-32 35l148 159l47 -53z" />
    <glyph glyph-name="uni030B" unicode="&#x30b;" horiz-adv-x="0" 
d="M-387 582l-41 46l160 138l42 -46zM-206 582l-41 46l160 138l42 -46z" />
    <glyph glyph-name="uni0302" unicode="&#x302;" horiz-adv-x="0" 
d="M-285 580l-41 25l98 145h84l99 -145l-42 -25l-98 116z" />
    <glyph glyph-name="uni030C" unicode="&#x30c;" horiz-adv-x="0" 
d="M-228 579l-98 145l43 26l98 -117l97 117l43 -26l-99 -145h-84z" />
    <glyph glyph-name="uni0306" unicode="&#x306;" horiz-adv-x="0" 
d="M-329.5 628q-46.5 42 -46.5 112h51q0 -43 32.5 -72.5t81.5 -29.5q50 0 82.5 29.5t32.5 72.5h51q0 -70 -46.5 -112t-119.5 -42q-72 0 -118.5 42z" />
    <glyph glyph-name="uni030A" unicode="&#x30a;" horiz-adv-x="0" 
d="M-223.5 598q-31.5 31 -31.5 74t31 74t75 31q43 0 73.5 -31t30.5 -74t-30.5 -74t-73.5 -31t-74.5 31zM-106.5 628.5q17.5 17.5 17.5 43.5q0 25 -17.5 43.5t-42.5 18.5t-42.5 -18.5t-17.5 -43.5q0 -26 17 -43.5t43 -17.5q25 0 42.5 17.5z" />
    <glyph glyph-name="tildecomb" unicode="&#x303;" horiz-adv-x="0" 
d="M-244 667q-18 27 -40 27q-23 0 -35.5 -22t-12.5 -56h-61q0 60 29 99t78 39q54 0 92 -55q9 -13 18 -20t24 -7q23 0 35 19.5t12 58.5h60q0 -60 -28 -99t-79 -39q-55 0 -92 55z" />
    <glyph glyph-name="uni0304" unicode="&#x304;" horiz-adv-x="0" 
d="M-355 602v56h310v-56h-310z" />
    <glyph glyph-name="hookabovecomb" unicode="&#x309;" horiz-adv-x="0" 
d="M-179 594q70 15 70 63q0 19 -13.5 32t-35.5 13q-27 0 -52 -17l-32 45q38 30 82 30q46 0 78 -29t32 -74q0 -32 -19.5 -57.5t-56.5 -36.5v-44h-53v75z" />
    <glyph glyph-name="uni0312" unicode="&#x312;" horiz-adv-x="0" 
d="M-90 614q8 -13 8 -29q0 -22 -17 -39t-39 -17q-23 0 -39.5 17t-16.5 39q0 5 2 15l2 6l71 209h61l-54 -181q14 -7 22 -20z" />
    <glyph glyph-name="uni031B" unicode="&#x31b;" horiz-adv-x="0" 
d="M-197 385.5q-28 8.5 -53 24.5l36 19q25 -14 47 -14q25 0 36.5 20.5t11.5 44.5v80h69v-61q0 -63 -27.5 -92.5t-68.5 -29.5q-23 0 -51 8.5z" />
    <glyph glyph-name="dotbelowcomb" unicode="&#x323;" horiz-adv-x="0" 
d="M-140.5 -233.5q-16.5 16.5 -16.5 39.5q0 22 16.5 39t39.5 17q22 0 39 -17t17 -39q0 -23 -16.5 -39.5t-39.5 -16.5t-39.5 16.5z" />
    <glyph glyph-name="uni0326" unicode="&#x326;" horiz-adv-x="0" 
d="M-162 -149l-45 18l92 215l70 -29z" />
    <glyph glyph-name="uni0327" unicode="&#x327;" horiz-adv-x="0" 
d="M-216.5 -241q-33.5 19 -47.5 47l45 18q10 -15 31 -25t40 -10q23 0 38.5 16t15.5 39q0 24 -15.5 38t-40.5 14q-19 0 -41 -9l-39 25l45 90h49l-32 -68q13 3 26 3q42 0 69.5 -26t27.5 -67q0 -44 -30 -74t-73 -30q-35 0 -68.5 19z" />
    <glyph glyph-name="uni0328" unicode="&#x328;" horiz-adv-x="0" 
d="M-259 -232q-33 27 -33 76q0 98 143 180l44 -24q-56 -23 -92.5 -59.5t-36.5 -77.5q0 -27 16 -40.5t42 -13.5q23 0 48 10.5t43 28.5l40 -56q-51 -51 -126 -51q-55 0 -88 27z" />
    <glyph glyph-name="uni0335" unicode="&#x335;" horiz-adv-x="0" 
d="M-339 227v58h294v-58h-294z" />
    <glyph glyph-name="uni0336" unicode="&#x336;" horiz-adv-x="0" 
d="M-760 231v58h715v-58h-715z" />
    <glyph glyph-name="uni0337" unicode="&#x337;" horiz-adv-x="0" 
d="M-328 111v75l283 211v-75z" />
    <glyph glyph-name="uni0338" unicode="&#x338;" horiz-adv-x="0" 
d="M-670 -9l563 807l62 -39l-562 -806z" />
    <glyph glyph-name="acute" unicode="&#xb4;" horiz-adv-x="285" 
d="M77 558l-32 35l148 159l47 -53z" />
    <glyph glyph-name="breve" unicode="&#x2d8;" horiz-adv-x="421" 
d="M91.5 628q-46.5 42 -46.5 112h51q0 -43 32.5 -72.5t81.5 -29.5q50 0 82.5 29.5t32.5 72.5h51q0 -70 -46.5 -112t-119.5 -42q-72 0 -118.5 42z" />
    <glyph glyph-name="caron" unicode="&#x2c7;" horiz-adv-x="371" 
d="M143 579l-98 145l43 26l98 -117l97 117l43 -26l-99 -145h-84z" />
    <glyph glyph-name="cedilla" unicode="&#xb8;" horiz-adv-x="309" 
d="M92.5 -241q-33.5 19 -47.5 47l45 18q10 -15 31 -25t40 -10q23 0 38.5 16t15.5 39q0 24 -15.5 38t-40.5 14q-19 0 -41 -9l-39 25l45 90h49l-32 -68q13 3 26 3q42 0 69.5 -26t27.5 -67q0 -44 -30 -74t-73 -30q-35 0 -68.5 19z" />
    <glyph glyph-name="circumflex" unicode="&#x2c6;" horiz-adv-x="371" 
d="M86 580l-41 25l98 145h84l99 -145l-42 -25l-98 116z" />
    <glyph glyph-name="dieresis" unicode="&#xa8;" horiz-adv-x="386" 
d="M61.5 573.5q-16.5 16.5 -16.5 38.5q0 24 16.5 40t39.5 16t39.5 -16t16.5 -40q0 -22 -16.5 -38.5t-39.5 -16.5t-39.5 16.5zM245.5 573.5q-16.5 16.5 -16.5 38.5q0 24 16.5 40t39.5 16t39.5 -16t16.5 -40q0 -23 -16.5 -39t-39.5 -16t-39.5 16.5z" />
    <glyph glyph-name="dotaccent" unicode="&#x2d9;" horiz-adv-x="202" 
d="M61.5 609.5q-16.5 16.5 -16.5 38.5q0 24 16.5 40t39.5 16t39.5 -16t16.5 -40q0 -22 -16.5 -38.5t-39.5 -16.5t-39.5 16.5z" />
    <glyph glyph-name="grave" unicode="`" horiz-adv-x="285" 
d="M209 558l-164 141l48 53l147 -159z" />
    <glyph glyph-name="hungarumlaut" unicode="&#x2dd;" horiz-adv-x="285" 
d="M77 558l-32 35l148 159l47 -53z" />
    <glyph glyph-name="macron" unicode="&#xaf;" horiz-adv-x="400" 
d="M45 602v56h310v-56h-310z" />
    <glyph glyph-name="ogonek" unicode="&#x2db;" horiz-adv-x="337" 
d="M78 -232q-33 27 -33 76q0 98 143 180l44 -24q-56 -23 -92.5 -59.5t-36.5 -77.5q0 -27 16 -40.5t42 -13.5q23 0 48 10.5t43 28.5l40 -56q-51 -51 -126 -51q-55 0 -88 27z" />
    <glyph glyph-name="ring" unicode="&#x2da;" horiz-adv-x="300" 
d="M76.5 598q-31.5 31 -31.5 74t31 74t75 31q43 0 73.5 -31t30.5 -74t-30.5 -74t-73.5 -31t-74.5 31zM193.5 628.5q17.5 17.5 17.5 43.5q0 25 -17.5 43.5t-42.5 18.5t-42.5 -18.5t-17.5 -43.5q0 -26 17 -43.5t43 -17.5q25 0 42.5 17.5z" />
    <glyph glyph-name="tilde" unicode="&#x2dc;" horiz-adv-x="438" 
d="M194 667q-18 27 -40 27q-23 0 -35.5 -22t-12.5 -56h-61q0 60 29 99t78 39q54 0 92 -55q9 -13 18 -20t24 -7q23 0 35 19.5t12 58.5h60q0 -60 -28 -99t-79 -39q-55 0 -92 55z" />
    <glyph glyph-name="uni03060301" horiz-adv-x="0" 
d="M-508.5 628q-46.5 42 -46.5 112h51q0 -43 32.5 -72.5t81.5 -29.5q50 0 82.5 29.5t32.5 72.5h51q0 -70 -46.5 -112t-119.5 -42q-72 0 -118.5 42zM-409 783l-32 35l148 159l47 -53z" />
    <glyph glyph-name="uni03060300" horiz-adv-x="0" 
d="M-508.5 628q-46.5 42 -46.5 112h51q0 -43 32.5 -72.5t81.5 -29.5q50 0 82.5 29.5t32.5 72.5h51q0 -70 -46.5 -112t-119.5 -42q-72 0 -118.5 42zM-388 783l-164 141l48 53l147 -159z" />
    <glyph glyph-name="uni03060309" horiz-adv-x="0" 
d="M-508.5 628q-46.5 42 -46.5 112h51q0 -43 32.5 -72.5t81.5 -29.5q50 0 82.5 29.5t32.5 72.5h51q0 -70 -46.5 -112t-119.5 -42q-72 0 -118.5 42zM-416 849q70 15 70 63q0 19 -13.5 32t-35.5 13q-27 0 -52 -17l-32 45q38 30 82 30q46 0 78 -29t32 -74q0 -32 -19.5 -57.5
t-56.5 -36.5v-44h-53v75z" />
    <glyph glyph-name="uni03060303" horiz-adv-x="0" 
d="M-508.5 628q-46.5 42 -46.5 112h51q0 -43 32.5 -72.5t81.5 -29.5q50 0 82.5 29.5t32.5 72.5h51q0 -70 -46.5 -112t-119.5 -42q-72 0 -118.5 42zM-415 831q-18 27 -40 27q-23 0 -35.5 -22t-12.5 -56h-61q0 60 29 99t78 39q54 0 92 -55q9 -13 18 -20t24 -7q23 0 35 19.5
t12 58.5h60q0 -60 -28 -99t-79 -39q-55 0 -92 55z" />
    <glyph glyph-name="uni03020301" horiz-adv-x="0" 
d="M-514 580l-41 25l98 145h84l99 -145l-42 -25l-98 116zM-435 808l-32 35l148 159l47 -53z" />
    <glyph glyph-name="uni03020300" horiz-adv-x="0" 
d="M-514 580l-41 25l98 145h84l99 -145l-42 -25l-98 116zM-414 808l-164 141l48 53l147 -159z" />
    <glyph glyph-name="uni03020309" horiz-adv-x="0" 
d="M-514 580l-41 25l98 145h84l99 -145l-42 -25l-98 116zM-442 874q70 15 70 63q0 19 -13.5 32t-35.5 13q-27 0 -52 -17l-32 45q38 30 82 30q46 0 78 -29t32 -74q0 -32 -19.5 -57.5t-56.5 -36.5v-44h-53v75z" />
    <glyph glyph-name="uni03020303" horiz-adv-x="0" 
d="M-514 580l-41 25l98 145h84l99 -145l-42 -25l-98 116zM-441 856q-18 27 -40 27q-23 0 -35.5 -22t-12.5 -56h-61q0 60 29 99t78 39q54 0 92 -55q9 -13 18 -20t24 -7q23 0 35 19.5t12 58.5h60q0 -60 -28 -99t-79 -39q-55 0 -92 55z" />
    </font>
</defs>
</svg>
